<svg width="143" height="54" viewBox="0 0 143 54" fill="none" xmlns="http://www.w3.org/2000/svg">
<path d="M26.0546 12.9972C27.664 13.6222 27.541 15.8399 25.8715 16.2988L17.4421 18.6161L13.5924 26.151C12.8304 27.6439 10.5246 27.3742 10.1597 25.7496L6.2364 8.25134C6.16629 7.94031 6.18619 7.61689 6.29396 7.31588C6.40173 7.01486 6.5933 6.74764 6.84805 6.54296C7.10279 6.33828 7.41108 6.20389 7.73975 6.15425C8.06841 6.1046 8.40501 6.14158 8.71334 6.26121L26.0546 12.9972Z" fill="#8000FF"/>
<rect x="26" y="24" width="117" height="30" rx="15" fill="#8000FF"/>
<path d="M37.064 44V34.2H38.184L42.258 40.906H41.53L45.604 34.2H46.724V44H45.114V37.028L45.478 37.126L42.454 42.096H41.334L38.31 37.126L38.674 37.028V44H37.064ZM48.6532 44V37.28H50.1932V44H48.6532ZM49.4232 36.048C49.1618 36.048 48.9425 35.9593 48.7652 35.782C48.5972 35.6047 48.5132 35.3853 48.5132 35.124C48.5132 34.8627 48.5972 34.6433 48.7652 34.466C48.9425 34.2887 49.1618 34.2 49.4232 34.2C49.6938 34.2 49.9132 34.2887 50.0812 34.466C50.2492 34.6433 50.3332 34.8627 50.3332 35.124C50.3332 35.3853 50.2492 35.6047 50.0812 35.782C49.9132 35.9593 49.6938 36.048 49.4232 36.048ZM51.9204 44V37.28H53.4604V44H51.9204ZM53.4604 40.262L52.9284 39.996C52.9284 39.1467 53.1151 38.4607 53.4884 37.938C53.8711 37.406 54.4451 37.14 55.2104 37.14C55.5464 37.14 55.8497 37.2007 56.1204 37.322C56.3911 37.4433 56.6431 37.6393 56.8764 37.91L55.8684 38.946C55.7471 38.8153 55.6117 38.722 55.4624 38.666C55.3131 38.61 55.1404 38.582 54.9444 38.582C54.5151 38.582 54.1604 38.7173 53.8804 38.988C53.6004 39.2587 53.4604 39.6833 53.4604 40.262ZM59.6692 44.14C59.2959 44.14 58.9365 44.0933 58.5912 44C58.2459 43.8973 57.9285 43.7573 57.6392 43.58C57.3499 43.3933 57.0979 43.1693 56.8832 42.908L57.8632 41.928C58.0965 42.1987 58.3625 42.404 58.6612 42.544C58.9692 42.6747 59.3145 42.74 59.6972 42.74C60.0425 42.74 60.3039 42.6887 60.4812 42.586C60.6585 42.4833 60.7472 42.334 60.7472 42.138C60.7472 41.9327 60.6632 41.774 60.4952 41.662C60.3272 41.55 60.1079 41.4567 59.8372 41.382C59.5759 41.298 59.2959 41.214 58.9972 41.13C58.7079 41.046 58.4279 40.934 58.1572 40.794C57.8959 40.6447 57.6812 40.444 57.5132 40.192C57.3452 39.94 57.2612 39.6133 57.2612 39.212C57.2612 38.7827 57.3592 38.414 57.5552 38.106C57.7605 37.798 58.0452 37.56 58.4092 37.392C58.7825 37.224 59.2259 37.14 59.7392 37.14C60.2805 37.14 60.7565 37.238 61.1672 37.434C61.5872 37.6207 61.9372 37.9053 62.2172 38.288L61.2372 39.268C61.0412 39.0253 60.8172 38.8433 60.5652 38.722C60.3132 38.6007 60.0239 38.54 59.6972 38.54C59.3892 38.54 59.1512 38.5867 58.9832 38.68C58.8152 38.7733 58.7312 38.9087 58.7312 39.086C58.7312 39.2727 58.8152 39.4173 58.9832 39.52C59.1512 39.6227 59.3659 39.7113 59.6272 39.786C59.8979 39.8607 60.1779 39.9447 60.4672 40.038C60.7659 40.122 61.0459 40.2433 61.3072 40.402C61.5779 40.5513 61.7972 40.7567 61.9652 41.018C62.1332 41.27 62.2172 41.6013 62.2172 42.012C62.2172 42.6653 61.9885 43.1833 61.5312 43.566C61.0739 43.9487 60.4532 44.14 59.6692 44.14ZM66.3008 44.14C65.6941 44.14 65.1435 43.986 64.6488 43.678C64.1635 43.37 63.7761 42.9547 63.4868 42.432C63.2068 41.9 63.0668 41.3073 63.0668 40.654C63.0668 39.9913 63.2068 39.3987 63.4868 38.876C63.7761 38.344 64.1635 37.924 64.6488 37.616C65.1435 37.2987 65.6941 37.14 66.3008 37.14C66.8141 37.14 67.2668 37.252 67.6588 37.476C68.0601 37.6907 68.3775 37.9893 68.6108 38.372C68.8441 38.7547 68.9608 39.1887 68.9608 39.674V41.606C68.9608 42.0913 68.8441 42.5253 68.6108 42.908C68.3868 43.2907 68.0741 43.594 67.6728 43.818C67.2715 44.0327 66.8141 44.14 66.3008 44.14ZM66.5528 42.684C67.1221 42.684 67.5795 42.4927 67.9248 42.11C68.2795 41.7273 68.4568 41.2373 68.4568 40.64C68.4568 40.2387 68.3775 39.884 68.2188 39.576C68.0601 39.268 67.8361 39.03 67.5468 38.862C67.2668 38.6847 66.9355 38.596 66.5528 38.596C66.1795 38.596 65.8481 38.6847 65.5588 38.862C65.2788 39.03 65.0548 39.268 64.8868 39.576C64.7281 39.884 64.6488 40.2387 64.6488 40.64C64.6488 41.0413 64.7281 41.396 64.8868 41.704C65.0548 42.012 65.2788 42.2547 65.5588 42.432C65.8481 42.6 66.1795 42.684 66.5528 42.684ZM68.3588 44V42.194L68.6248 40.556L68.3588 38.932V37.28H69.8988V44H68.3588ZM71.6219 44V37.28H73.1619V44H71.6219ZM72.3919 36.048C72.1306 36.048 71.9112 35.9593 71.7339 35.782C71.5659 35.6047 71.4819 35.3853 71.4819 35.124C71.4819 34.8627 71.5659 34.6433 71.7339 34.466C71.9112 34.2887 72.1306 34.2 72.3919 34.2C72.6626 34.2 72.8819 34.2887 73.0499 34.466C73.2179 34.6433 73.3019 34.8627 73.3019 35.124C73.3019 35.3853 73.2179 35.6047 73.0499 35.782C72.8819 35.9593 72.6626 36.048 72.3919 36.048ZM77.7032 44.14C77.0965 44.14 76.5458 43.986 76.0512 43.678C75.5658 43.37 75.1785 42.9547 74.8892 42.432C74.6092 41.9 74.4692 41.3073 74.4692 40.654C74.4692 39.9913 74.6092 39.3987 74.8892 38.876C75.1785 38.344 75.5658 37.924 76.0512 37.616C76.5458 37.2987 77.0965 37.14 77.7032 37.14C78.2165 37.14 78.6692 37.252 79.0612 37.476C79.4625 37.6907 79.7798 37.9893 80.0132 38.372C80.2465 38.7547 80.3632 39.1887 80.3632 39.674V41.606C80.3632 42.0913 80.2465 42.5253 80.0132 42.908C79.7892 43.2907 79.4765 43.594 79.0752 43.818C78.6738 44.0327 78.2165 44.14 77.7032 44.14ZM77.9552 42.684C78.3378 42.684 78.6692 42.6 78.9492 42.432C79.2385 42.2547 79.4625 42.012 79.6212 41.704C79.7798 41.396 79.8592 41.0413 79.8592 40.64C79.8592 40.2387 79.7798 39.884 79.6212 39.576C79.4625 39.268 79.2385 39.03 78.9492 38.862C78.6692 38.6847 78.3378 38.596 77.9552 38.596C77.5818 38.596 77.2505 38.6847 76.9612 38.862C76.6812 39.03 76.4572 39.268 76.2892 39.576C76.1305 39.884 76.0512 40.2387 76.0512 40.64C76.0512 41.0413 76.1305 41.396 76.2892 41.704C76.4572 42.012 76.6812 42.2547 76.9612 42.432C77.2505 42.6 77.5818 42.684 77.9552 42.684ZM81.3012 44H79.7612V42.194L80.0272 40.556L79.7612 38.932V33.92H81.3012V44ZM87.129 44V42.6H89.943C90.4377 42.6 90.8203 42.446 91.091 42.138C91.3617 41.83 91.497 41.4753 91.497 41.074C91.497 40.8033 91.4363 40.5513 91.315 40.318C91.1937 40.0847 91.0163 39.898 90.783 39.758C90.5497 39.618 90.2697 39.548 89.943 39.548H87.129V38.148H89.705C90.125 38.148 90.461 38.0407 90.713 37.826C90.965 37.6113 91.091 37.294 91.091 36.874C91.091 36.454 90.965 36.1367 90.713 35.922C90.461 35.7073 90.125 35.6 89.705 35.6H87.129V34.2H89.747C90.4097 34.2 90.9603 34.3213 91.399 34.564C91.8377 34.8067 92.1643 35.1193 92.379 35.502C92.5937 35.8847 92.701 36.2953 92.701 36.734C92.701 37.2473 92.5563 37.7 92.267 38.092C91.987 38.484 91.5717 38.8013 91.021 39.044L91.147 38.54C91.763 38.792 92.2437 39.1467 92.589 39.604C92.9343 40.0613 93.107 40.598 93.107 41.214C93.107 41.718 92.981 42.18 92.729 42.6C92.4863 43.02 92.1223 43.3607 91.637 43.622C91.161 43.874 90.573 44 89.873 44H87.129ZM86.023 44V34.2H87.633V44H86.023ZM97.602 44.14C96.9486 44.14 96.356 43.986 95.824 43.678C95.292 43.3607 94.8673 42.936 94.55 42.404C94.242 41.872 94.088 41.2793 94.088 40.626C94.088 39.9727 94.242 39.3847 94.55 38.862C94.8673 38.3393 95.292 37.924 95.824 37.616C96.356 37.2987 96.9486 37.14 97.602 37.14C98.2646 37.14 98.862 37.294 99.394 37.602C99.926 37.91 100.346 38.33 100.654 38.862C100.971 39.3847 101.13 39.9727 101.13 40.626C101.13 41.2793 100.971 41.872 100.654 42.404C100.346 42.936 99.926 43.3607 99.394 43.678C98.862 43.986 98.2646 44.14 97.602 44.14ZM97.602 42.656C97.9846 42.656 98.3206 42.572 98.61 42.404C98.9086 42.2267 99.1373 41.984 99.296 41.676C99.464 41.368 99.548 41.018 99.548 40.626C99.548 40.234 99.464 39.8887 99.296 39.59C99.128 39.2913 98.8993 39.058 98.61 38.89C98.3206 38.7127 97.9846 38.624 97.602 38.624C97.2286 38.624 96.8926 38.7127 96.594 38.89C96.3046 39.058 96.076 39.2913 95.908 39.59C95.7493 39.8887 95.67 40.234 95.67 40.626C95.67 41.018 95.7493 41.368 95.908 41.676C96.076 41.984 96.3046 42.2267 96.594 42.404C96.8926 42.572 97.2286 42.656 97.602 42.656ZM102.411 44V33.92H103.951V44H102.411ZM106.687 44V34.48H108.227V44H106.687ZM105.077 38.68V37.28H109.837V38.68H105.077ZM113.578 44.14C112.971 44.14 112.421 43.986 111.926 43.678C111.441 43.37 111.053 42.9547 110.764 42.432C110.484 41.9 110.344 41.3073 110.344 40.654C110.344 39.9913 110.484 39.3987 110.764 38.876C111.053 38.344 111.441 37.924 111.926 37.616C112.421 37.2987 112.971 37.14 113.578 37.14C114.091 37.14 114.544 37.252 114.936 37.476C115.337 37.6907 115.655 37.9893 115.888 38.372C116.121 38.7547 116.238 39.1887 116.238 39.674V41.606C116.238 42.0913 116.121 42.5253 115.888 42.908C115.664 43.2907 115.351 43.594 114.95 43.818C114.549 44.0327 114.091 44.14 113.578 44.14ZM113.83 42.684C114.399 42.684 114.857 42.4927 115.202 42.11C115.557 41.7273 115.734 41.2373 115.734 40.64C115.734 40.2387 115.655 39.884 115.496 39.576C115.337 39.268 115.113 39.03 114.824 38.862C114.544 38.6847 114.213 38.596 113.83 38.596C113.457 38.596 113.125 38.6847 112.836 38.862C112.556 39.03 112.332 39.268 112.164 39.576C112.005 39.884 111.926 40.2387 111.926 40.64C111.926 41.0413 112.005 41.396 112.164 41.704C112.332 42.012 112.556 42.2547 112.836 42.432C113.125 42.6 113.457 42.684 113.83 42.684ZM115.636 44V42.194L115.902 40.556L115.636 38.932V37.28H117.176V44H115.636ZM122.007 44.14C121.335 44.14 120.729 43.9907 120.187 43.692C119.655 43.384 119.231 42.964 118.913 42.432C118.605 41.9 118.451 41.3027 118.451 40.64C118.451 39.9773 118.605 39.3847 118.913 38.862C119.221 38.33 119.637 37.91 120.159 37.602C120.691 37.294 121.279 37.14 121.923 37.14C122.549 37.14 123.099 37.2847 123.575 37.574C124.061 37.8633 124.439 38.26 124.709 38.764C124.989 39.268 125.129 39.842 125.129 40.486C125.129 40.598 125.12 40.7147 125.101 40.836C125.092 40.948 125.073 41.074 125.045 41.214H119.529V39.954H124.247L123.673 40.458C123.655 40.0473 123.575 39.702 123.435 39.422C123.295 39.142 123.095 38.9273 122.833 38.778C122.581 38.6287 122.269 38.554 121.895 38.554C121.503 38.554 121.163 38.638 120.873 38.806C120.584 38.974 120.36 39.212 120.201 39.52C120.043 39.8187 119.963 40.178 119.963 40.598C119.963 41.018 120.047 41.3867 120.215 41.704C120.383 42.0213 120.621 42.2687 120.929 42.446C121.237 42.614 121.592 42.698 121.993 42.698C122.339 42.698 122.656 42.6373 122.945 42.516C123.244 42.3947 123.496 42.2173 123.701 41.984L124.681 42.978C124.355 43.3607 123.958 43.65 123.491 43.846C123.025 44.042 122.53 44.14 122.007 44.14ZM128.522 44L125.456 37.28H127.164L129.502 42.754H128.494L130.846 37.28H132.484L129.418 44H128.522Z" fill="white"/>
</svg>
