<svg width="199" height="101" viewBox="0 0 199 101" fill="none" xmlns="http://www.w3.org/2000/svg">
<rect x="8" width="191" height="84" rx="42" transform="rotate(5 8 0)" fill="black"/>
<path d="M51.9344 62.5709C49.6192 62.3684 47.5044 61.8039 45.5898 60.8775C43.7056 59.9257 42.0854 58.6878 40.729 57.1638C39.4006 55.6422 38.4137 53.9116 37.7683 51.9719C37.1229 50.0323 36.8965 47.9607 37.0893 45.7571C37.2846 43.5256 37.8823 41.5121 38.8826 39.7164C39.9108 37.9232 41.2378 36.4091 42.8637 35.1741C44.5198 33.9137 46.385 32.9947 48.4592 32.4173C50.5359 31.812 52.7179 31.6094 55.0051 31.8095C57.7666 32.0511 60.1937 32.7413 62.2864 33.88C64.407 35.0212 66.0799 36.4604 67.3051 38.1978L61.1626 43.3521C60.2354 42.0624 59.2396 41.0758 58.1751 40.3925C57.1106 39.7091 55.7974 39.2991 54.2353 39.1624C52.757 39.0331 51.3888 39.2506 50.1308 39.8152C48.8753 40.3518 47.8324 41.1881 47.0023 42.324C46.2 43.4624 45.7281 44.8406 45.5865 46.4584C45.445 48.0762 45.6413 49.5268 46.1755 50.8103C46.74 52.0683 47.5787 53.0832 48.6917 53.8552C49.8046 54.6271 51.1421 55.0814 52.7042 55.2181C54.2104 55.3498 55.5052 55.168 56.5885 54.6725C57.6718 54.177 58.526 53.4086 59.1512 52.3671C59.8042 51.3281 60.1954 50.0694 60.3248 48.591L65.7384 52.7326L51.9259 51.1026L52.5116 44.4081L69.0385 45.854L68.9286 47.1092C68.6163 50.6796 67.6948 53.6626 66.1642 56.0584C64.6614 58.4565 62.6812 60.2086 60.2234 61.3146C57.7936 62.423 55.0306 62.8418 51.9344 62.5709ZM79.5437 64.9864C77.1449 64.7766 75.0779 64.146 73.343 63.0948C71.6104 62.0157 70.2989 60.6221 69.4084 58.914C68.5482 57.1804 68.2108 55.2537 68.3963 53.1338C68.5793 51.0418 69.2297 49.2296 70.3476 47.6972C71.4933 46.1672 72.9711 45.0176 74.781 44.2484C76.5934 43.4514 78.5874 43.148 80.7631 43.3383C82.9109 43.5262 84.7686 44.1385 86.3362 45.1751C87.9063 46.1837 89.0832 47.5094 89.867 49.1519C90.6788 50.7969 90.9968 52.6236 90.8211 54.6319C90.7845 55.0503 90.7175 55.4942 90.6202 55.9635C90.5533 56.4073 90.4233 56.93 90.2301 57.5315L71.6421 56.0317L72.0813 51.0109L87.615 52.2434L83.6136 54.1278C83.7112 53.0121 83.651 52.0934 83.4331 51.3716C83.2455 50.6244 82.9026 50.0463 82.4043 49.6374C81.9061 49.2284 81.2525 48.9885 80.4436 48.9177C79.6068 48.8445 78.8633 48.9903 78.213 49.355C77.5627 49.7197 77.0361 50.2779 76.633 51.0296C76.2579 51.7838 76.0215 52.7188 75.9239 53.8345C75.8238 54.9781 75.907 55.9551 76.1734 56.7654C76.4701 57.5503 76.9361 58.1672 77.5714 58.6163C78.2067 59.0654 79.0264 59.3338 80.0305 59.4217C81.0068 59.5071 81.871 59.4281 82.6231 59.1847C83.4055 58.9159 84.134 58.4597 84.8087 57.816L88.5539 62.2333C87.4194 63.3145 86.1013 64.0845 84.5995 64.5434C83.0978 65.0023 81.4126 65.1499 79.5437 64.9864ZM93.7943 65.7273L96.3347 36.6902L104.535 37.4077L101.995 66.4447L93.7943 65.7273ZM90.6164 51.452L91.2021 44.7576L121.829 47.4371L121.243 54.1315L90.6164 51.452ZM107.434 66.9206L109.975 37.8835L118.175 38.601L115.635 67.6381L107.434 66.9206ZM131.458 69.5284C129.059 69.3185 126.992 68.688 125.257 67.6367C123.525 66.5576 122.213 65.164 121.323 63.4559C120.463 61.7223 120.125 59.7956 120.311 57.6757C120.494 55.5837 121.144 53.7715 122.262 52.2391C123.408 50.7091 124.886 49.5595 126.696 48.7904C128.508 47.9933 130.502 47.6899 132.678 47.8803C134.825 48.0682 136.683 48.6804 138.251 49.717C139.821 50.7257 140.998 52.0513 141.782 53.6939C142.593 55.3389 142.911 57.1655 142.736 59.1739C142.699 59.5923 142.632 60.0361 142.535 60.5054C142.468 60.9493 142.338 61.4719 142.145 62.0734L123.557 60.5736L123.996 55.5528L139.53 56.7853L135.528 58.6698C135.626 57.554 135.566 56.6353 135.348 55.9135C135.16 55.1664 134.817 54.5883 134.319 54.1793C133.821 53.7703 133.167 53.5304 132.358 53.4597C131.521 53.3864 130.778 53.5322 130.128 53.8969C129.477 54.2616 128.951 54.8198 128.548 55.5716C128.172 56.3258 127.936 57.2607 127.838 58.3764C127.738 59.5201 127.821 60.497 128.088 61.3073C128.385 62.0922 128.851 62.7092 129.486 63.1582C130.121 63.6073 130.941 63.8758 131.945 63.9636C132.921 64.049 133.785 63.9701 134.538 63.7267C135.32 63.4578 136.049 63.0016 136.723 62.358L140.468 66.7752C139.334 67.8564 138.016 68.6265 136.514 69.0853C135.012 69.5442 133.327 69.6919 131.458 69.5284ZM142.989 70.0313L144.79 49.4459L152.991 50.1634L151.19 70.7487L142.989 70.0313ZM152.164 59.6193L148.653 55.8971C149.908 53.7584 151.278 52.234 152.763 51.3239C154.278 50.3884 156.096 50.0134 158.216 50.1989C159.164 50.2819 159.963 50.4642 160.613 50.7459C161.291 51.0301 161.821 51.3997 162.203 51.8547L157.029 57.9791C156.853 57.7388 156.576 57.5319 156.198 57.3583C155.85 57.1592 155.425 57.0377 154.923 56.9938C154.086 56.9205 153.437 57.1167 152.974 57.5822C152.514 58.0197 152.244 58.6988 152.164 59.6193Z" fill="white"/>
</svg>
