<svg width="174" height="54" viewBox="0 0 174 54" fill="none" xmlns="http://www.w3.org/2000/svg">
<path d="M26.0546 12.9972C27.664 13.6222 27.541 15.8399 25.8715 16.2988L17.4421 18.6161L13.5924 26.151C12.8304 27.6439 10.5246 27.3742 10.1597 25.7496L6.2364 8.25134C6.16629 7.94031 6.18619 7.61689 6.29396 7.31588C6.40173 7.01486 6.5933 6.74764 6.84805 6.54296C7.10279 6.33828 7.41108 6.20389 7.73975 6.15425C8.06841 6.1046 8.40501 6.14158 8.71334 6.26121L26.0546 12.9972Z" fill="#FF3D00"/>
<rect x="26" y="24" width="148" height="30" rx="15" fill="#FF3D00"/>
<path d="M38.17 44V42.53H40.746C41.418 42.53 42.006 42.3853 42.51 42.096C43.0233 41.8067 43.42 41.4053 43.7 40.892C43.9893 40.3693 44.134 39.7673 44.134 39.086C44.134 38.414 43.9893 37.8213 43.7 37.308C43.4107 36.7947 43.0093 36.3933 42.496 36.104C41.992 35.8147 41.4087 35.67 40.746 35.67H38.17V34.2H40.788C41.4973 34.2 42.1553 34.326 42.762 34.578C43.3687 34.8207 43.896 35.166 44.344 35.614C44.8013 36.0527 45.156 36.5707 45.408 37.168C45.66 37.756 45.786 38.4 45.786 39.1C45.786 39.7907 45.66 40.4347 45.408 41.032C45.156 41.6293 44.806 42.152 44.358 42.6C43.91 43.0387 43.3827 43.384 42.776 43.636C42.1693 43.8787 41.516 44 40.816 44H38.17ZM37.064 44V34.2H38.674V44H37.064ZM47.2313 44V37.28H48.7713V44H47.2313ZM48.0013 36.048C47.7399 36.048 47.5206 35.9593 47.3433 35.782C47.1753 35.6047 47.0913 35.3853 47.0913 35.124C47.0913 34.8627 47.1753 34.6433 47.3433 34.466C47.5206 34.2887 47.7399 34.2 48.0013 34.2C48.2719 34.2 48.4913 34.2887 48.6593 34.466C48.8273 34.6433 48.9113 34.8627 48.9113 35.124C48.9113 35.3853 48.8273 35.6047 48.6593 35.782C48.4913 35.9593 48.2719 36.048 48.0013 36.048ZM52.6685 44.07L49.7985 37.28H51.4925L53.4525 42.264H52.9625L55.0345 37.28H56.7425L53.6205 44.07H52.6685ZM50.6665 46.8L52.7525 42.502L53.6205 44.07L52.3745 46.8H50.6665ZM60.4828 44.14C59.8295 44.14 59.2368 43.986 58.7048 43.678C58.1728 43.3607 57.7482 42.936 57.4308 42.404C57.1228 41.872 56.9688 41.2793 56.9688 40.626C56.9688 39.9727 57.1228 39.3847 57.4308 38.862C57.7482 38.3393 58.1728 37.924 58.7048 37.616C59.2368 37.2987 59.8295 37.14 60.4828 37.14C61.1455 37.14 61.7428 37.294 62.2748 37.602C62.8068 37.91 63.2268 38.33 63.5348 38.862C63.8522 39.3847 64.0108 39.9727 64.0108 40.626C64.0108 41.2793 63.8522 41.872 63.5348 42.404C63.2268 42.936 62.8068 43.3607 62.2748 43.678C61.7428 43.986 61.1455 44.14 60.4828 44.14ZM60.4828 42.656C60.8655 42.656 61.2015 42.572 61.4908 42.404C61.7895 42.2267 62.0182 41.984 62.1768 41.676C62.3448 41.368 62.4288 41.018 62.4288 40.626C62.4288 40.234 62.3448 39.8887 62.1768 39.59C62.0088 39.2913 61.7802 39.058 61.4908 38.89C61.2015 38.7127 60.8655 38.624 60.4828 38.624C60.1095 38.624 59.7735 38.7127 59.4748 38.89C59.1855 39.058 58.9568 39.2913 58.7888 39.59C58.6302 39.8887 58.5508 40.234 58.5508 40.626C58.5508 41.018 58.6302 41.368 58.7888 41.676C58.9568 41.984 59.1855 42.2267 59.4748 42.404C59.7735 42.572 60.1095 42.656 60.4828 42.656ZM65.2915 44V37.28H66.8315V44H65.2915ZM66.8315 40.262L66.2995 39.996C66.2995 39.1467 66.4862 38.4607 66.8595 37.938C67.2422 37.406 67.8162 37.14 68.5815 37.14C68.9175 37.14 69.2208 37.2007 69.4915 37.322C69.7622 37.4433 70.0142 37.6393 70.2475 37.91L69.2395 38.946C69.1182 38.8153 68.9828 38.722 68.8335 38.666C68.6842 38.61 68.5115 38.582 68.3155 38.582C67.8862 38.582 67.5315 38.7173 67.2515 38.988C66.9715 39.2587 66.8315 39.6833 66.8315 40.262ZM74.4403 44.14C73.9269 44.14 73.4696 44.0327 73.0683 43.818C72.6669 43.594 72.3496 43.2907 72.1163 42.908C71.8923 42.5253 71.7803 42.0913 71.7803 41.606V39.674C71.7803 39.1887 71.8969 38.7547 72.1303 38.372C72.3636 37.9893 72.6809 37.6907 73.0823 37.476C73.4836 37.252 73.9363 37.14 74.4403 37.14C75.0469 37.14 75.5929 37.2987 76.0783 37.616C76.5729 37.924 76.9603 38.344 77.2403 38.876C77.5296 39.3987 77.6743 39.9913 77.6743 40.654C77.6743 41.3073 77.5296 41.9 77.2403 42.432C76.9603 42.9547 76.5729 43.37 76.0783 43.678C75.5929 43.986 75.0469 44.14 74.4403 44.14ZM74.1883 42.684C74.5616 42.684 74.8883 42.6 75.1683 42.432C75.4576 42.2547 75.6816 42.012 75.8403 41.704C76.0083 41.396 76.0923 41.0413 76.0923 40.64C76.0923 40.2387 76.0083 39.884 75.8403 39.576C75.6816 39.268 75.4576 39.03 75.1683 38.862C74.8883 38.6847 74.5616 38.596 74.1883 38.596C73.8149 38.596 73.4836 38.6847 73.1943 38.862C72.9049 39.03 72.6809 39.268 72.5223 39.576C72.3636 39.884 72.2843 40.2387 72.2843 40.64C72.2843 41.0413 72.3636 41.396 72.5223 41.704C72.6809 42.012 72.9049 42.2547 73.1943 42.432C73.4836 42.6 73.8149 42.684 74.1883 42.684ZM70.8423 44V33.92H72.3823V38.932L72.1163 40.556L72.3823 42.194V44H70.8423ZM82.0854 44.14C81.4134 44.14 80.8067 43.9907 80.2654 43.692C79.7334 43.384 79.3087 42.964 78.9914 42.432C78.6834 41.9 78.5294 41.3027 78.5294 40.64C78.5294 39.9773 78.6834 39.3847 78.9914 38.862C79.2994 38.33 79.7147 37.91 80.2374 37.602C80.7694 37.294 81.3574 37.14 82.0014 37.14C82.6267 37.14 83.1774 37.2847 83.6534 37.574C84.1387 37.8633 84.5167 38.26 84.7874 38.764C85.0674 39.268 85.2074 39.842 85.2074 40.486C85.2074 40.598 85.198 40.7147 85.1794 40.836C85.17 40.948 85.1514 41.074 85.1234 41.214H79.6074V39.954H84.3254L83.7514 40.458C83.7327 40.0473 83.6534 39.702 83.5134 39.422C83.3734 39.142 83.1727 38.9273 82.9114 38.778C82.6594 38.6287 82.3467 38.554 81.9734 38.554C81.5814 38.554 81.2407 38.638 80.9514 38.806C80.662 38.974 80.438 39.212 80.2794 39.52C80.1207 39.8187 80.0414 40.178 80.0414 40.598C80.0414 41.018 80.1254 41.3867 80.2934 41.704C80.4614 42.0213 80.6994 42.2687 81.0074 42.446C81.3154 42.614 81.67 42.698 82.0714 42.698C82.4167 42.698 82.734 42.6373 83.0234 42.516C83.322 42.3947 83.574 42.2173 83.7794 41.984L84.7594 42.978C84.4327 43.3607 84.036 43.65 83.5694 43.846C83.1027 44.042 82.608 44.14 82.0854 44.14ZM90.7119 44L87.8699 40.57L90.6979 37.28H92.5319L89.2839 40.976L89.3539 40.094L92.6719 44H90.7119ZM86.4419 44V33.92H87.9819V44H86.4419ZM99.2745 40.08L95.4525 34.2H97.3145L100.297 38.89H99.4285L102.411 34.2H104.245L100.395 40.08H99.2745ZM99.0505 44V39.072H100.661V44H99.0505ZM106.85 44.14C106.281 44.14 105.772 44.014 105.324 43.762C104.886 43.51 104.54 43.1647 104.288 42.726C104.046 42.278 103.924 41.7647 103.924 41.186V37.28H105.464V41.116C105.464 41.4427 105.516 41.7227 105.618 41.956C105.73 42.18 105.889 42.3527 106.094 42.474C106.309 42.5953 106.561 42.656 106.85 42.656C107.298 42.656 107.639 42.5253 107.872 42.264C108.115 41.9933 108.236 41.6107 108.236 41.116V37.28H109.776V41.186C109.776 41.774 109.65 42.292 109.398 42.74C109.156 43.1787 108.815 43.524 108.376 43.776C107.938 44.0187 107.429 44.14 106.85 44.14ZM113.523 44.14C113.149 44.14 112.79 44.0933 112.445 44C112.099 43.8973 111.782 43.7573 111.493 43.58C111.203 43.3933 110.951 43.1693 110.737 42.908L111.717 41.928C111.95 42.1987 112.216 42.404 112.515 42.544C112.823 42.6747 113.168 42.74 113.551 42.74C113.896 42.74 114.157 42.6887 114.335 42.586C114.512 42.4833 114.601 42.334 114.601 42.138C114.601 41.9327 114.517 41.774 114.349 41.662C114.181 41.55 113.961 41.4567 113.691 41.382C113.429 41.298 113.149 41.214 112.851 41.13C112.561 41.046 112.281 40.934 112.011 40.794C111.749 40.6447 111.535 40.444 111.367 40.192C111.199 39.94 111.115 39.6133 111.115 39.212C111.115 38.7827 111.213 38.414 111.409 38.106C111.614 37.798 111.899 37.56 112.263 37.392C112.636 37.224 113.079 37.14 113.593 37.14C114.134 37.14 114.61 37.238 115.021 37.434C115.441 37.6207 115.791 37.9053 116.071 38.288L115.091 39.268C114.895 39.0253 114.671 38.8433 114.419 38.722C114.167 38.6007 113.877 38.54 113.551 38.54C113.243 38.54 113.005 38.5867 112.837 38.68C112.669 38.7733 112.585 38.9087 112.585 39.086C112.585 39.2727 112.669 39.4173 112.837 39.52C113.005 39.6227 113.219 39.7113 113.481 39.786C113.751 39.8607 114.031 39.9447 114.321 40.038C114.619 40.122 114.899 40.2433 115.161 40.402C115.431 40.5513 115.651 40.7567 115.819 41.018C115.987 41.27 116.071 41.6013 116.071 42.012C116.071 42.6653 115.842 43.1833 115.385 43.566C114.927 43.9487 114.307 44.14 113.523 44.14ZM120.098 44.14C119.529 44.14 119.02 44.014 118.572 43.762C118.134 43.51 117.788 43.1647 117.536 42.726C117.294 42.278 117.172 41.7647 117.172 41.186V37.28H118.712V41.116C118.712 41.4427 118.764 41.7227 118.866 41.956C118.978 42.18 119.137 42.3527 119.342 42.474C119.557 42.5953 119.809 42.656 120.098 42.656C120.546 42.656 120.887 42.5253 121.12 42.264C121.363 41.9933 121.484 41.6107 121.484 41.116V37.28H123.024V41.186C123.024 41.774 122.898 42.292 122.646 42.74C122.404 43.1787 122.063 43.524 121.624 43.776C121.186 44.0187 120.677 44.14 120.098 44.14ZM125.497 44V36.398C125.497 35.8847 125.609 35.432 125.833 35.04C126.066 34.648 126.383 34.34 126.785 34.116C127.195 33.892 127.667 33.78 128.199 33.78C128.609 33.78 128.959 33.85 129.249 33.99C129.538 34.13 129.809 34.3307 130.061 34.592L129.067 35.586C128.955 35.474 128.833 35.3853 128.703 35.32C128.572 35.2547 128.404 35.222 128.199 35.222C127.825 35.222 127.536 35.3247 127.331 35.53C127.135 35.726 127.037 36.0107 127.037 36.384V44H125.497ZM123.887 38.68V37.28H129.067V38.68H123.887ZM129.547 46.94C129.071 46.94 128.684 46.8653 128.385 46.716C128.077 46.5667 127.797 46.3473 127.545 46.058L128.539 45.064C128.651 45.2133 128.777 45.3207 128.917 45.386C129.057 45.4607 129.23 45.498 129.435 45.498C129.687 45.498 129.902 45.4187 130.079 45.26C130.266 45.1107 130.359 44.8867 130.359 44.588V37.28H131.899V44.574C131.899 45.0873 131.787 45.5167 131.563 45.862C131.349 46.2167 131.064 46.4827 130.709 46.66C130.355 46.8467 129.967 46.94 129.547 46.94ZM131.157 36.048C130.896 36.048 130.677 35.9593 130.499 35.782C130.331 35.6047 130.247 35.3853 130.247 35.124C130.247 34.8627 130.331 34.6433 130.499 34.466C130.677 34.2887 130.896 34.2 131.157 34.2C131.428 34.2 131.647 34.2887 131.815 34.466C131.983 34.6433 132.067 34.8627 132.067 35.124C132.067 35.3853 131.983 35.6047 131.815 35.782C131.647 35.9593 131.428 36.048 131.157 36.048ZM136.69 44.14C136.037 44.14 135.444 43.986 134.912 43.678C134.38 43.3607 133.955 42.936 133.638 42.404C133.33 41.872 133.176 41.2793 133.176 40.626C133.176 39.9727 133.33 39.3847 133.638 38.862C133.955 38.3393 134.38 37.924 134.912 37.616C135.444 37.2987 136.037 37.14 136.69 37.14C137.353 37.14 137.95 37.294 138.482 37.602C139.014 37.91 139.434 38.33 139.742 38.862C140.059 39.3847 140.218 39.9727 140.218 40.626C140.218 41.2793 140.059 41.872 139.742 42.404C139.434 42.936 139.014 43.3607 138.482 43.678C137.95 43.986 137.353 44.14 136.69 44.14ZM136.69 42.656C137.073 42.656 137.409 42.572 137.698 42.404C137.997 42.2267 138.225 41.984 138.384 41.676C138.552 41.368 138.636 41.018 138.636 40.626C138.636 40.234 138.552 39.8887 138.384 39.59C138.216 39.2913 137.987 39.058 137.698 38.89C137.409 38.7127 137.073 38.624 136.69 38.624C136.317 38.624 135.981 38.7127 135.682 38.89C135.393 39.058 135.164 39.2913 134.996 39.59C134.837 39.8887 134.758 40.234 134.758 40.626C134.758 41.018 134.837 41.368 134.996 41.676C135.164 41.984 135.393 42.2267 135.682 42.404C135.981 42.572 136.317 42.656 136.69 42.656ZM146.105 44V40.122C146.105 39.674 145.96 39.3053 145.671 39.016C145.391 38.7267 145.027 38.582 144.579 38.582C144.28 38.582 144.014 38.6473 143.781 38.778C143.547 38.9087 143.365 39.0907 143.235 39.324C143.104 39.5573 143.039 39.8233 143.039 40.122L142.437 39.786C142.437 39.2727 142.549 38.82 142.773 38.428C142.997 38.0267 143.305 37.714 143.697 37.49C144.098 37.2567 144.546 37.14 145.041 37.14C145.545 37.14 145.993 37.2707 146.385 37.532C146.777 37.784 147.085 38.1153 147.309 38.526C147.533 38.9273 147.645 39.3473 147.645 39.786V44H146.105ZM141.499 44V37.28H143.039V44H141.499ZM152.289 44.14C151.636 44.14 151.043 43.986 150.511 43.678C149.979 43.3607 149.555 42.936 149.237 42.404C148.929 41.872 148.775 41.2793 148.775 40.626C148.775 39.9727 148.929 39.3847 149.237 38.862C149.555 38.3393 149.979 37.924 150.511 37.616C151.043 37.2987 151.636 37.14 152.289 37.14C152.952 37.14 153.549 37.294 154.081 37.602C154.613 37.91 155.033 38.33 155.341 38.862C155.659 39.3847 155.817 39.9727 155.817 40.626C155.817 41.2793 155.659 41.872 155.341 42.404C155.033 42.936 154.613 43.3607 154.081 43.678C153.549 43.986 152.952 44.14 152.289 44.14ZM152.289 42.656C152.672 42.656 153.008 42.572 153.297 42.404C153.596 42.2267 153.825 41.984 153.983 41.676C154.151 41.368 154.235 41.018 154.235 40.626C154.235 40.234 154.151 39.8887 153.983 39.59C153.815 39.2913 153.587 39.058 153.297 38.89C153.008 38.7127 152.672 38.624 152.289 38.624C151.916 38.624 151.58 38.7127 151.281 38.89C150.992 39.058 150.763 39.2913 150.595 39.59C150.437 39.8887 150.357 40.234 150.357 40.626C150.357 41.018 150.437 41.368 150.595 41.676C150.763 41.984 150.992 42.2267 151.281 42.404C151.58 42.572 151.916 42.656 152.289 42.656ZM159.134 44L156.068 37.28H157.776L160.114 42.754H159.106L161.458 37.28H163.096L160.03 44H159.134Z" fill="white"/>
</svg>
