<svg width="190" height="100" viewBox="0 0 190 100" fill="none" xmlns="http://www.w3.org/2000/svg">
<rect y="16" width="183" height="84" rx="42" transform="rotate(-5 0 16)" fill="#F9FE00"/>
<path d="M45.3174 69.6124C43.8613 69.7398 42.5528 69.6148 41.3919 69.2372C40.24 68.8489 39.3042 68.1922 38.5845 67.267C37.8647 66.3419 37.4386 65.1215 37.306 63.606C37.1968 62.3579 37.3166 61.2745 37.6654 60.3556C38.0133 59.4269 38.544 58.6469 39.2573 58.0155C39.9706 57.3842 40.8194 56.8757 41.8038 56.4902C42.798 56.1038 43.8806 55.8144 45.0516 55.6222C46.3207 55.4113 47.3355 55.2027 48.096 54.9965C48.8655 54.7794 49.4123 54.527 49.7365 54.2391C50.0598 53.9413 50.2024 53.5745 50.1642 53.1387L50.159 53.0793C50.107 52.4849 49.8393 52.0492 49.356 51.7721C48.8726 51.495 48.2743 51.3877 47.5611 51.4501C46.7786 51.5185 46.1549 51.7478 45.6899 52.1378C45.234 52.517 44.9873 53.0626 44.9498 53.7746L37.4019 54.4349C37.3797 53.0395 37.7086 51.7231 38.3889 50.4858C39.0782 49.2378 40.1499 48.1958 41.6038 47.3599C43.057 46.5142 44.9177 45.9921 47.186 45.7936C48.8204 45.6506 50.3033 45.7155 51.6347 45.9883C52.9652 46.2512 54.116 46.6845 55.0871 47.2882C56.0573 47.8821 56.82 48.6138 57.3752 49.4835C57.9394 50.3424 58.2679 51.3018 58.3606 52.3617L59.7282 67.9923L52.0614 68.6631L51.7806 65.4538L51.6023 65.4694C51.2212 66.3611 50.7267 67.098 50.1189 67.6802C49.521 68.2615 48.8164 68.7075 48.0052 69.018C47.2038 69.3276 46.3079 69.5258 45.3174 69.6124ZM47.5394 64.2079C48.1635 64.1533 48.7366 63.9734 49.2589 63.6682C49.791 63.3621 50.2092 62.9512 50.5135 62.4355C50.8177 61.9198 50.9395 61.3153 50.8788 60.6219L50.7124 58.7201C50.5023 58.8283 50.2769 58.9329 50.0362 59.0338C49.8054 59.1338 49.5544 59.2307 49.2831 59.3243C49.0217 59.417 48.7401 59.5065 48.4382 59.5928C48.1462 59.6782 47.839 59.76 47.5165 59.8381C46.8912 59.9927 46.3854 60.2016 45.9993 60.4649C45.6221 60.7175 45.3488 61.0159 45.1793 61.3601C45.0188 61.6936 44.9559 62.0584 44.9906 62.4546C45.046 63.0885 45.3114 63.5544 45.7866 63.8522C46.2618 64.15 46.8461 64.2685 47.5394 64.2079ZM69.392 50.3186L68.8564 44.1971L90.9652 42.2629L91.5007 48.3844L84.25 49.0187L85.7111 65.7191L77.9849 66.3951L76.5238 49.6947L69.392 50.3186ZM99.1281 47.7769L106.141 47.1634C109.4 46.8783 112.031 47.4066 114.035 48.7485C116.038 50.0804 117.159 52.0584 117.399 54.6824C117.537 56.3771 117.234 57.8758 116.49 59.1786C115.755 60.4805 114.63 61.5322 113.113 62.3337C111.605 63.1243 109.766 63.6146 107.597 63.8044L96.0077 64.8183L94.0111 41.9964L101.737 41.3204L103.198 58.0208L107.061 57.6829C107.903 57.6092 108.579 57.3504 109.09 56.9066C109.599 56.4528 109.831 55.9134 109.786 55.2885C109.718 54.6257 109.394 54.1102 108.813 53.7418C108.231 53.3635 107.519 53.2112 106.677 53.2849L99.6637 53.8984L99.1281 47.7769ZM119.781 62.7384L117.784 39.9165L125.986 39.199L127.982 62.0209L119.781 62.7384ZM137.298 51.6239L137.236 50.9107C137.093 49.2764 137.108 47.9625 137.28 46.9693C137.453 45.976 137.766 45.1651 138.22 44.5365C138.673 43.898 139.246 43.3089 139.937 42.7693C140.535 42.2978 141.064 41.8473 141.526 41.4176C141.997 40.9871 142.357 40.5414 142.606 40.0804C142.865 39.6186 142.971 39.1103 142.922 38.5556C142.879 38.0604 142.722 37.6349 142.451 37.2793C142.181 36.9237 141.833 36.6597 141.409 36.4872C140.984 36.3147 140.525 36.2501 140.029 36.2935C139.494 36.3403 139.01 36.5074 138.576 36.7949C138.152 37.0815 137.82 37.4549 137.581 37.915C137.352 38.3742 137.262 38.8911 137.313 39.4656L129.705 40.1312C129.534 37.9503 129.875 36.1388 130.727 34.6969C131.578 33.245 132.778 32.1319 134.327 31.3576C135.876 30.5733 137.611 30.0972 139.532 29.929C141.652 29.7436 143.571 29.8901 145.29 30.3685C147.008 30.8371 148.402 31.6533 149.472 32.8174C150.541 33.9715 151.157 35.4796 151.32 37.3418C151.425 38.5404 151.309 39.6135 150.973 40.5612C150.646 41.4981 150.146 42.3453 149.473 43.1028C148.81 43.8495 148.018 44.5477 147.096 45.1972C146.42 45.6756 145.858 46.1589 145.412 46.6471C144.964 47.1254 144.642 47.6577 144.444 48.244C144.244 48.8204 144.18 49.5048 144.249 50.2972L144.311 51.0104L137.298 51.6239ZM141.797 61.2913C140.648 61.3919 139.627 61.0769 138.735 60.3465C137.852 59.6053 137.364 58.6549 137.273 57.4951C137.164 56.3667 137.481 55.3659 138.223 54.4925C138.975 53.6182 139.925 53.1308 141.074 53.0303C142.164 52.935 143.16 53.2521 144.062 53.9816C144.974 54.7103 145.485 55.6388 145.593 56.7671C145.651 57.5406 145.51 58.2616 145.169 58.9303C144.837 59.5881 144.376 60.1325 143.785 60.5635C143.193 60.9846 142.53 61.2272 141.797 61.2913Z" fill="black"/>
</svg>
