<svg width="151" height="54" viewBox="0 0 151 54" fill="none" xmlns="http://www.w3.org/2000/svg">
<path d="M124.945 12.9972C123.336 13.6222 123.459 15.8399 125.129 16.2988L133.558 18.6161L137.408 26.151C138.17 27.6439 140.475 27.3742 140.84 25.7496L144.764 8.25134C144.834 7.94031 144.814 7.61689 144.706 7.31588C144.598 7.01486 144.407 6.74764 144.152 6.54296C143.897 6.33828 143.589 6.20389 143.26 6.15425C142.932 6.1046 142.595 6.14158 142.287 6.26121L124.945 12.9972Z" fill="#3F53D9"/>
<rect width="125" height="30" rx="15" transform="matrix(-1 0 0 1 125 24)" fill="#3F53D9"/>
<path d="M10.336 44L14.368 34.2H15.488L19.492 44H17.756L14.62 36.062H15.208L12.044 44H10.336ZM12.324 42.11V40.71H17.518V42.11H12.324ZM24.2821 44.14C23.7687 44.14 23.3114 44.0327 22.9101 43.818C22.5087 43.594 22.1914 43.2907 21.9581 42.908C21.7341 42.5253 21.6221 42.0913 21.6221 41.606V39.674C21.6221 39.1887 21.7387 38.7547 21.9721 38.372C22.2054 37.9893 22.5227 37.6907 22.9241 37.476C23.3254 37.252 23.7781 37.14 24.2821 37.14C24.8887 37.14 25.4347 37.2987 25.9201 37.616C26.4147 37.924 26.8021 38.344 27.0821 38.876C27.3714 39.3987 27.5161 39.9913 27.5161 40.654C27.5161 41.3073 27.3714 41.9 27.0821 42.432C26.8021 42.9547 26.4147 43.37 25.9201 43.678C25.4347 43.986 24.8887 44.14 24.2821 44.14ZM24.0301 42.684C24.4034 42.684 24.7301 42.6 25.0101 42.432C25.2994 42.2547 25.5234 42.012 25.6821 41.704C25.8501 41.396 25.9341 41.0413 25.9341 40.64C25.9341 40.2387 25.8501 39.884 25.6821 39.576C25.5234 39.268 25.2994 39.03 25.0101 38.862C24.7301 38.6847 24.4034 38.596 24.0301 38.596C23.6567 38.596 23.3254 38.6847 23.0361 38.862C22.7467 39.03 22.5227 39.268 22.3641 39.576C22.2054 39.884 22.1261 40.2387 22.1261 40.64C22.1261 41.0413 22.2054 41.396 22.3641 41.704C22.5227 42.012 22.7467 42.2547 23.0361 42.432C23.3254 42.6 23.6567 42.684 24.0301 42.684ZM20.6841 44V33.92H22.2241V38.932L21.9581 40.556L22.2241 42.194V44H20.6841ZM32.4032 44.14C31.8898 44.14 31.4325 44.0327 31.0312 43.818C30.6298 43.594 30.3125 43.2907 30.0792 42.908C29.8552 42.5253 29.7432 42.0913 29.7432 41.606V39.674C29.7432 39.1887 29.8598 38.7547 30.0932 38.372C30.3265 37.9893 30.6438 37.6907 31.0452 37.476C31.4465 37.252 31.8992 37.14 32.4032 37.14C33.0098 37.14 33.5558 37.2987 34.0412 37.616C34.5358 37.924 34.9232 38.344 35.2032 38.876C35.4925 39.3987 35.6372 39.9913 35.6372 40.654C35.6372 41.3073 35.4925 41.9 35.2032 42.432C34.9232 42.9547 34.5358 43.37 34.0412 43.678C33.5558 43.986 33.0098 44.14 32.4032 44.14ZM32.1512 42.684C32.5245 42.684 32.8512 42.6 33.1312 42.432C33.4205 42.2547 33.6445 42.012 33.8032 41.704C33.9712 41.396 34.0552 41.0413 34.0552 40.64C34.0552 40.2387 33.9712 39.884 33.8032 39.576C33.6445 39.268 33.4205 39.03 33.1312 38.862C32.8512 38.6847 32.5245 38.596 32.1512 38.596C31.7778 38.596 31.4465 38.6847 31.1572 38.862C30.8678 39.03 30.6438 39.268 30.4852 39.576C30.3265 39.884 30.2472 40.2387 30.2472 40.64C30.2472 41.0413 30.3265 41.396 30.4852 41.704C30.6438 42.012 30.8678 42.2547 31.1572 42.432C31.4465 42.6 31.7778 42.684 32.1512 42.684ZM28.8052 44V33.92H30.3452V38.932L30.0792 40.556L30.3452 42.194V44H28.8052ZM40.0063 44.14C39.3529 44.14 38.7603 43.986 38.2283 43.678C37.6963 43.3607 37.2716 42.936 36.9543 42.404C36.6463 41.872 36.4923 41.2793 36.4923 40.626C36.4923 39.9727 36.6463 39.3847 36.9543 38.862C37.2716 38.3393 37.6963 37.924 38.2283 37.616C38.7603 37.2987 39.3529 37.14 40.0063 37.14C40.6689 37.14 41.2663 37.294 41.7983 37.602C42.3303 37.91 42.7503 38.33 43.0583 38.862C43.3756 39.3847 43.5343 39.9727 43.5343 40.626C43.5343 41.2793 43.3756 41.872 43.0583 42.404C42.7503 42.936 42.3303 43.3607 41.7983 43.678C41.2663 43.986 40.6689 44.14 40.0063 44.14ZM40.0063 42.656C40.3889 42.656 40.7249 42.572 41.0143 42.404C41.3129 42.2267 41.5416 41.984 41.7003 41.676C41.8683 41.368 41.9523 41.018 41.9523 40.626C41.9523 40.234 41.8683 39.8887 41.7003 39.59C41.5323 39.2913 41.3036 39.058 41.0143 38.89C40.7249 38.7127 40.3889 38.624 40.0063 38.624C39.6329 38.624 39.2969 38.7127 38.9983 38.89C38.7089 39.058 38.4803 39.2913 38.3123 39.59C38.1536 39.8887 38.0743 40.234 38.0743 40.626C38.0743 41.018 38.1536 41.368 38.3123 41.676C38.4803 41.984 38.7089 42.2267 38.9983 42.404C39.2969 42.572 39.6329 42.656 40.0063 42.656ZM47.0129 44.14C46.6396 44.14 46.2803 44.0933 45.9349 44C45.5896 43.8973 45.2723 43.7573 44.9829 43.58C44.6936 43.3933 44.4416 43.1693 44.2269 42.908L45.2069 41.928C45.4403 42.1987 45.7063 42.404 46.0049 42.544C46.3129 42.6747 46.6583 42.74 47.0409 42.74C47.3863 42.74 47.6476 42.6887 47.8249 42.586C48.0023 42.4833 48.0909 42.334 48.0909 42.138C48.0909 41.9327 48.0069 41.774 47.8389 41.662C47.6709 41.55 47.4516 41.4567 47.1809 41.382C46.9196 41.298 46.6396 41.214 46.3409 41.13C46.0516 41.046 45.7716 40.934 45.5009 40.794C45.2396 40.6447 45.0249 40.444 44.8569 40.192C44.6889 39.94 44.6049 39.6133 44.6049 39.212C44.6049 38.7827 44.7029 38.414 44.8989 38.106C45.1043 37.798 45.3889 37.56 45.7529 37.392C46.1263 37.224 46.5696 37.14 47.0829 37.14C47.6243 37.14 48.1003 37.238 48.5109 37.434C48.9309 37.6207 49.2809 37.9053 49.5609 38.288L48.5809 39.268C48.3849 39.0253 48.1609 38.8433 47.9089 38.722C47.6569 38.6007 47.3676 38.54 47.0409 38.54C46.7329 38.54 46.4949 38.5867 46.3269 38.68C46.1589 38.7733 46.0749 38.9087 46.0749 39.086C46.0749 39.2727 46.1589 39.4173 46.3269 39.52C46.4949 39.6227 46.7096 39.7113 46.9709 39.786C47.2416 39.8607 47.5216 39.9447 47.8109 40.038C48.1096 40.122 48.3896 40.2433 48.6509 40.402C48.9216 40.5513 49.1409 40.7567 49.3089 41.018C49.4769 41.27 49.5609 41.6013 49.5609 42.012C49.5609 42.6653 49.3323 43.1833 48.8749 43.566C48.4176 43.9487 47.7969 44.14 47.0129 44.14ZM55.2948 44.14C54.7255 44.14 54.2168 44.028 53.7688 43.804C53.3301 43.5707 52.9755 43.2627 52.7048 42.88L53.8388 41.844C53.9975 42.0867 54.1981 42.2733 54.4408 42.404C54.6835 42.5347 54.9495 42.6 55.2388 42.6C55.5561 42.6 55.8268 42.5347 56.0508 42.404C56.2748 42.2733 56.4475 42.0867 56.5688 41.844C56.6901 41.6013 56.7508 41.312 56.7508 40.976V34.2H58.3608V40.85C58.3608 41.5033 58.2301 42.0773 57.9688 42.572C57.7168 43.0667 57.3621 43.454 56.9048 43.734C56.4475 44.0047 55.9108 44.14 55.2948 44.14ZM62.9688 44.14C62.3621 44.14 61.8114 43.986 61.3168 43.678C60.8314 43.37 60.4441 42.9547 60.1548 42.432C59.8748 41.9 59.7348 41.3073 59.7348 40.654C59.7348 39.9913 59.8748 39.3987 60.1548 38.876C60.4441 38.344 60.8314 37.924 61.3168 37.616C61.8114 37.2987 62.3621 37.14 62.9688 37.14C63.4821 37.14 63.9348 37.252 64.3268 37.476C64.7281 37.6907 65.0454 37.9893 65.2788 38.372C65.5121 38.7547 65.6288 39.1887 65.6288 39.674V41.606C65.6288 42.0913 65.5121 42.5253 65.2788 42.908C65.0548 43.2907 64.7421 43.594 64.3408 43.818C63.9394 44.0327 63.4821 44.14 62.9688 44.14ZM63.2208 42.684C63.7901 42.684 64.2474 42.4927 64.5928 42.11C64.9474 41.7273 65.1248 41.2373 65.1248 40.64C65.1248 40.2387 65.0454 39.884 64.8868 39.576C64.7281 39.268 64.5041 39.03 64.2148 38.862C63.9348 38.6847 63.6034 38.596 63.2208 38.596C62.8474 38.596 62.5161 38.6847 62.2268 38.862C61.9468 39.03 61.7228 39.268 61.5548 39.576C61.3961 39.884 61.3168 40.2387 61.3168 40.64C61.3168 41.0413 61.3961 41.396 61.5548 41.704C61.7228 42.012 61.9468 42.2547 62.2268 42.432C62.5161 42.6 62.8474 42.684 63.2208 42.684ZM65.0268 44V42.194L65.2928 40.556L65.0268 38.932V37.28H66.5668V44H65.0268ZM72.8819 44V40.122C72.8819 39.674 72.7372 39.3053 72.4479 39.016C72.1679 38.7267 71.8039 38.582 71.3559 38.582C71.0572 38.582 70.7912 38.6473 70.5579 38.778C70.3245 38.9087 70.1425 39.0907 70.0119 39.324C69.8812 39.5573 69.8159 39.8233 69.8159 40.122L69.2139 39.786C69.2139 39.2727 69.3259 38.82 69.5499 38.428C69.7739 38.0267 70.0819 37.714 70.4739 37.49C70.8752 37.2567 71.3232 37.14 71.8179 37.14C72.3219 37.14 72.7699 37.2707 73.1619 37.532C73.5539 37.784 73.8619 38.1153 74.0859 38.526C74.3099 38.9273 74.4219 39.3473 74.4219 39.786V44H72.8819ZM68.2759 44V37.28H69.8159V44H68.2759ZM76.0008 44V37.28H77.5408V44H76.0008ZM76.7708 36.048C76.5095 36.048 76.2901 35.9593 76.1128 35.782C75.9448 35.6047 75.8608 35.3853 75.8608 35.124C75.8608 34.8627 75.9448 34.6433 76.1128 34.466C76.2901 34.2887 76.5095 34.2 76.7708 34.2C77.0415 34.2 77.2608 34.2887 77.4288 34.466C77.5968 34.6433 77.6808 34.8627 77.6808 35.124C77.6808 35.3853 77.5968 35.6047 77.4288 35.782C77.2608 35.9593 77.0415 36.048 76.7708 36.048ZM78.7641 43.16L82.5161 38.12H84.3221L80.5701 43.16H78.7641ZM78.7641 44V43.16L80.1641 42.6H84.2381V44H78.7641ZM79.0161 38.68V37.28H84.3221V38.12L82.9221 38.68H79.0161ZM88.2891 44.14C87.6824 44.14 87.1318 43.986 86.6371 43.678C86.1518 43.37 85.7644 42.9547 85.4751 42.432C85.1951 41.9 85.0551 41.3073 85.0551 40.654C85.0551 39.9913 85.1951 39.3987 85.4751 38.876C85.7644 38.344 86.1518 37.924 86.6371 37.616C87.1318 37.2987 87.6824 37.14 88.2891 37.14C88.8024 37.14 89.2551 37.252 89.6471 37.476C90.0484 37.6907 90.3658 37.9893 90.5991 38.372C90.8324 38.7547 90.9491 39.1887 90.9491 39.674V41.606C90.9491 42.0913 90.8324 42.5253 90.5991 42.908C90.3751 43.2907 90.0624 43.594 89.6611 43.818C89.2598 44.0327 88.8024 44.14 88.2891 44.14ZM88.5411 42.684C89.1104 42.684 89.5678 42.4927 89.9131 42.11C90.2678 41.7273 90.4451 41.2373 90.4451 40.64C90.4451 40.2387 90.3658 39.884 90.2071 39.576C90.0484 39.268 89.8244 39.03 89.5351 38.862C89.2551 38.6847 88.9238 38.596 88.5411 38.596C88.1678 38.596 87.8364 38.6847 87.5471 38.862C87.2671 39.03 87.0431 39.268 86.8751 39.576C86.7164 39.884 86.6371 40.2387 86.6371 40.64C86.6371 41.0413 86.7164 41.396 86.8751 41.704C87.0431 42.012 87.2671 42.2547 87.5471 42.432C87.8364 42.6 88.1678 42.684 88.5411 42.684ZM90.3471 44V42.194L90.6131 40.556L90.3471 38.932V37.28H91.8871V44H90.3471ZM97.8662 44L95.0242 40.57L97.8522 37.28H99.6862L96.4382 40.976L96.5082 40.094L99.8262 44H97.8662ZM93.5962 44V33.92H95.1362V44H93.5962ZM103.485 44.14C102.831 44.14 102.239 43.986 101.707 43.678C101.175 43.3607 100.75 42.936 100.433 42.404C100.125 41.872 99.9708 41.2793 99.9708 40.626C99.9708 39.9727 100.125 39.3847 100.433 38.862C100.75 38.3393 101.175 37.924 101.707 37.616C102.239 37.2987 102.831 37.14 103.485 37.14C104.147 37.14 104.745 37.294 105.277 37.602C105.809 37.91 106.229 38.33 106.537 38.862C106.854 39.3847 107.013 39.9727 107.013 40.626C107.013 41.2793 106.854 41.872 106.537 42.404C106.229 42.936 105.809 43.3607 105.277 43.678C104.745 43.986 104.147 44.14 103.485 44.14ZM103.485 42.656C103.867 42.656 104.203 42.572 104.493 42.404C104.791 42.2267 105.02 41.984 105.179 41.676C105.347 41.368 105.431 41.018 105.431 40.626C105.431 40.234 105.347 39.8887 105.179 39.59C105.011 39.2913 104.782 39.058 104.493 38.89C104.203 38.7127 103.867 38.624 103.485 38.624C103.111 38.624 102.775 38.7127 102.477 38.89C102.187 39.058 101.959 39.2913 101.791 39.59C101.632 39.8887 101.553 40.234 101.553 40.626C101.553 41.018 101.632 41.368 101.791 41.676C101.959 41.984 102.187 42.2267 102.477 42.404C102.775 42.572 103.111 42.656 103.485 42.656ZM110.329 44L107.263 37.28H108.971L111.309 42.754H110.301L112.653 37.28H114.291L111.225 44H110.329Z" fill="white"/>
</svg>
