<svg width="9" height="14" viewBox="0 0 9 14" fill="none" xmlns="http://www.w3.org/2000/svg">
<path d="M8.75 0.625528C8.75 0.526072 8.71049 0.43069 8.64017 0.360363C8.56984 0.290037 8.47446 0.250528 8.375 0.250528H6.5C5.55584 0.203497 4.63145 0.532072 3.92879 1.16446C3.22613 1.79685 2.80234 2.68165 2.75 3.62553V5.65053H0.875C0.775544 5.65053 0.680161 5.69004 0.609835 5.76036C0.539509 5.83069 0.5 5.92607 0.5 6.02553V7.97553C0.5 8.07498 0.539509 8.17037 0.609835 8.24069C0.680161 8.31102 0.775544 8.35053 0.875 8.35053H2.75V13.3755C2.75 13.475 2.78951 13.5704 2.85983 13.6407C2.93016 13.711 3.02554 13.7505 3.125 13.7505H5.375C5.47446 13.7505 5.56984 13.711 5.64017 13.6407C5.71049 13.5704 5.75 13.475 5.75 13.3755V8.35053H7.715C7.79839 8.35173 7.8798 8.32509 7.94636 8.27483C8.01292 8.22457 8.06082 8.15356 8.0825 8.07303L8.6225 6.12303C8.63742 6.06762 8.63943 6.00953 8.62836 5.95322C8.6173 5.89692 8.59346 5.8439 8.55869 5.79826C8.52391 5.75261 8.47912 5.71556 8.42777 5.68995C8.37642 5.66434 8.31988 5.65085 8.2625 5.65053H5.75V3.62553C5.76866 3.43989 5.85584 3.26786 5.99452 3.14305C6.1332 3.01823 6.31343 2.94959 6.5 2.95053H8.375C8.47446 2.95053 8.56984 2.91102 8.64017 2.84069C8.71049 2.77037 8.75 2.67498 8.75 2.57553V0.625528Z" fill="#121212"/>
</svg>
