<svg width="885" height="385" viewBox="0 0 885 385" fill="none" xmlns="http://www.w3.org/2000/svg">
<rect x="431.656" y="66.4385" width="167" height="84" rx="42" transform="rotate(-5 431.656 66.4385)" fill="#8000FF"/>
<path d="M483.984 110.514L487.724 95.7545L493.548 95.2449L487.284 118.79L482.172 119.237L472.152 97.1168L477.977 96.6072L483.984 110.514ZM476.313 96.7528L478.309 119.575L470.583 120.251L468.587 97.4288L476.313 96.7528ZM491.682 118.405L489.685 95.5829L497.292 94.9174L499.289 117.739L491.682 118.405ZM506.35 100.353L513.363 99.7396C516.622 99.4544 519.254 99.9828 521.257 101.325C523.26 102.657 524.382 104.635 524.621 107.259C524.759 108.953 524.456 110.452 523.712 111.755C522.977 113.057 521.852 114.108 520.335 114.91C518.827 115.701 516.988 116.191 514.819 116.381L503.23 117.394L501.233 94.5726L508.959 93.8966L510.421 110.597L514.284 110.259C515.126 110.185 515.802 109.927 516.312 109.483C516.821 109.029 517.053 108.49 517.009 107.865C516.941 107.202 516.616 106.686 516.035 106.318C515.453 105.94 514.741 105.787 513.899 105.861L506.886 106.475L506.35 100.353ZM527.003 115.315L525.006 92.4927L533.208 91.7752L535.204 114.597L527.003 115.315ZM558.716 112.959C556.24 113.176 554.077 112.871 552.229 112.045C550.379 111.208 548.906 109.95 547.811 108.269C546.715 106.578 546.064 104.564 545.86 102.226C545.655 99.8888 545.947 97.7972 546.733 95.9517C547.519 94.0963 548.751 92.6012 550.428 91.4663C552.105 90.3215 554.181 89.6408 556.657 89.4241C558.896 89.2283 560.868 89.465 562.573 90.1342C564.288 90.7927 565.66 91.8205 566.691 93.2175C567.721 94.6046 568.327 96.2883 568.51 98.2685L560.903 98.9341C560.689 97.745 560.263 96.8641 559.624 96.2912C558.994 95.7075 558.223 95.4555 557.312 95.5352C556.599 95.5976 555.993 95.8602 555.494 96.3231C554.995 96.776 554.633 97.4315 554.409 98.2895C554.184 99.1377 554.125 100.186 554.235 101.434C554.344 102.682 554.583 103.709 554.953 104.515C555.322 105.311 555.793 105.894 556.364 106.263C556.934 106.622 557.576 106.771 558.289 106.708C558.894 106.656 559.416 106.47 559.858 106.152C560.298 105.824 560.638 105.375 560.878 104.805C561.126 104.224 561.246 103.535 561.236 102.738L568.843 102.072C568.989 104.086 568.682 105.879 567.921 107.453C567.16 109.017 565.998 110.276 564.434 111.231C562.881 112.186 560.975 112.762 558.716 112.959Z" fill="white"/>
<rect x="328" y="143" width="191" height="84" rx="42" transform="rotate(5 328 143)" fill="black"/>
<path d="M371.934 205.571C369.619 205.368 367.504 204.804 365.59 203.878C363.706 202.926 362.085 201.688 360.729 200.164C359.401 198.642 358.414 196.912 357.768 194.972C357.123 193.032 356.897 190.961 357.089 188.757C357.285 186.526 357.882 184.512 358.883 182.716C359.911 180.923 361.238 179.409 362.864 178.174C364.52 176.914 366.385 175.995 368.459 175.417C370.536 174.812 372.718 174.609 375.005 174.81C377.767 175.051 380.194 175.741 382.286 176.88C384.407 178.021 386.08 179.46 387.305 181.198L381.163 186.352C380.235 185.062 379.24 184.076 378.175 183.392C377.111 182.709 375.797 182.299 374.235 182.162C372.757 182.033 371.389 182.251 370.131 182.815C368.875 183.352 367.832 184.188 367.002 185.324C366.2 186.462 365.728 187.841 365.587 189.458C365.445 191.076 365.641 192.527 366.175 193.81C366.74 195.068 367.579 196.083 368.692 196.855C369.805 197.627 371.142 198.081 372.704 198.218C374.21 198.35 375.505 198.168 376.589 197.673C377.672 197.177 378.526 196.409 379.151 195.367C379.804 194.328 380.195 193.069 380.325 191.591L385.738 195.733L371.926 194.103L372.512 187.408L389.038 188.854L388.929 190.109C388.616 193.68 387.695 196.663 386.164 199.058C384.661 201.457 382.681 203.209 380.223 204.315C377.794 205.423 375.031 205.842 371.934 205.571ZM399.544 207.986C397.145 207.777 395.078 207.146 393.343 206.095C391.61 205.016 390.299 203.622 389.408 201.914C388.548 200.18 388.211 198.254 388.396 196.134C388.579 194.042 389.23 192.23 390.348 190.697C391.493 189.167 392.971 188.018 394.781 187.248C396.593 186.451 398.587 186.148 400.763 186.338C402.911 186.526 404.769 187.138 406.336 188.175C407.906 189.184 409.083 190.509 409.867 192.152C410.679 193.797 410.997 195.624 410.821 197.632C410.784 198.05 410.718 198.494 410.62 198.963C410.553 199.407 410.423 199.93 410.23 200.531L391.642 199.032L392.081 194.011L407.615 195.243L403.614 197.128C403.711 196.012 403.651 195.093 403.433 194.372C403.246 193.624 402.903 193.046 402.404 192.637C401.906 192.228 401.253 191.988 400.444 191.918C399.607 191.845 398.863 191.99 398.213 192.355C397.563 192.72 397.036 193.278 396.633 194.03C396.258 194.784 396.021 195.719 395.924 196.835C395.824 197.978 395.907 198.955 396.173 199.765C396.47 200.55 396.936 201.167 397.571 201.616C398.207 202.065 399.026 202.334 400.031 202.422C401.007 202.507 401.871 202.428 402.623 202.185C403.405 201.916 404.134 201.46 404.809 200.816L408.554 205.233C407.419 206.314 406.101 207.085 404.6 207.543C403.098 208.002 401.413 208.15 399.544 207.986ZM413.794 208.727L416.335 179.69L424.535 180.408L421.995 209.445L413.794 208.727ZM410.616 194.452L411.202 187.758L441.829 190.437L441.243 197.132L410.616 194.452ZM427.434 209.921L429.975 180.884L438.175 181.601L435.635 210.638L427.434 209.921ZM451.458 212.528C449.059 212.319 446.992 211.688 445.257 210.637C443.525 209.558 442.213 208.164 441.323 206.456C440.463 204.722 440.125 202.796 440.311 200.676C440.494 198.584 441.144 196.771 442.262 195.239C443.408 193.709 444.886 192.56 446.696 191.79C448.508 190.993 450.502 190.69 452.678 190.88C454.825 191.068 456.683 191.68 458.251 192.717C459.821 193.726 460.998 195.051 461.782 196.694C462.593 198.339 462.911 200.166 462.736 202.174C462.699 202.592 462.632 203.036 462.535 203.505C462.468 203.949 462.338 204.472 462.145 205.073L443.557 203.574L443.996 198.553L459.53 199.785L455.528 201.67C455.626 200.554 455.566 199.635 455.348 198.914C455.16 198.166 454.817 197.588 454.319 197.179C453.821 196.77 453.167 196.53 452.358 196.46C451.521 196.386 450.778 196.532 450.128 196.897C449.477 197.262 448.951 197.82 448.548 198.572C448.172 199.326 447.936 200.261 447.838 201.376C447.738 202.52 447.821 203.497 448.088 204.307C448.385 205.092 448.851 205.709 449.486 206.158C450.121 206.607 450.941 206.876 451.945 206.964C452.921 207.049 453.785 206.97 454.538 206.727C455.32 206.458 456.049 206.002 456.723 205.358L460.468 209.775C459.334 210.856 458.016 211.626 456.514 212.085C455.012 212.544 453.327 212.692 451.458 212.528ZM462.989 213.031L464.79 192.446L472.991 193.163L471.19 213.749L462.989 213.031ZM472.164 202.619L468.653 198.897C469.908 196.758 471.278 195.234 472.763 194.324C474.278 193.388 476.096 193.013 478.216 193.199C479.164 193.282 479.963 193.464 480.613 193.746C481.291 194.03 481.821 194.4 482.203 194.855L477.029 200.979C476.853 200.739 476.576 200.532 476.198 200.358C475.85 200.159 475.425 200.038 474.923 199.994C474.086 199.921 473.437 200.117 472.974 200.582C472.514 201.02 472.244 201.699 472.164 202.619Z" fill="white"/>
<rect x="455" y="253" width="183" height="84" rx="42" transform="rotate(-5 455 253)" fill="#F9FE00"/>
<path d="M500.317 306.612C498.861 306.74 497.553 306.615 496.392 306.237C495.24 305.849 494.304 305.192 493.584 304.267C492.865 303.342 492.439 302.122 492.306 300.606C492.197 299.358 492.317 298.274 492.665 297.356C493.013 296.427 493.544 295.647 494.257 295.016C494.971 294.384 495.819 293.876 496.804 293.49C497.798 293.104 498.881 292.814 500.052 292.622C501.321 292.411 502.335 292.203 503.096 291.996C503.865 291.779 504.412 291.527 504.736 291.239C505.06 290.941 505.202 290.575 505.164 290.139L505.159 290.079C505.107 289.485 504.839 289.049 504.356 288.772C503.873 288.495 503.274 288.388 502.561 288.45C501.779 288.519 501.155 288.748 500.69 289.138C500.234 289.517 499.987 290.063 499.95 290.775L492.402 291.435C492.38 290.039 492.709 288.723 493.389 287.486C494.078 286.238 495.15 285.196 496.604 284.36C498.057 283.514 499.918 282.992 502.186 282.794C503.82 282.651 505.303 282.716 506.635 282.988C507.965 283.251 509.116 283.684 510.087 284.288C511.057 284.882 511.82 285.614 512.375 286.484C512.939 287.342 513.268 288.302 513.361 289.362L514.728 304.992L507.061 305.663L506.781 302.454L506.602 302.469C506.221 303.361 505.727 304.098 505.119 304.68C504.521 305.262 503.816 305.707 503.005 306.018C502.204 306.328 501.308 306.526 500.317 306.612ZM502.539 301.208C503.163 301.153 503.737 300.973 504.259 300.668C504.791 300.362 505.209 299.951 505.513 299.436C505.818 298.92 505.939 298.315 505.879 297.622L505.712 295.72C505.502 295.828 505.277 295.933 505.036 296.034C504.805 296.134 504.554 296.231 504.283 296.324C504.022 296.417 503.74 296.507 503.438 296.593C503.146 296.678 502.839 296.76 502.516 296.838C501.891 296.993 501.385 297.202 500.999 297.465C500.622 297.718 500.349 298.016 500.179 298.36C500.019 298.694 499.956 299.058 499.991 299.455C500.046 300.089 500.311 300.554 500.787 300.852C501.262 301.15 501.846 301.269 502.539 301.208ZM524.392 287.319L523.856 281.197L545.965 279.263L546.501 285.384L539.25 286.019L540.711 302.719L532.985 303.395L531.524 286.695L524.392 287.319ZM554.128 284.777L561.141 284.163C564.4 283.878 567.031 284.407 569.035 285.748C571.038 287.08 572.159 289.058 572.399 291.682C572.537 293.377 572.234 294.876 571.49 296.179C570.755 297.481 569.63 298.532 568.113 299.334C566.605 300.124 564.766 300.615 562.597 300.804L551.008 301.818L549.011 278.996L556.737 278.32L558.198 295.021L562.061 294.683C562.903 294.609 563.579 294.35 564.09 293.907C564.599 293.453 564.831 292.913 564.786 292.289C564.718 291.626 564.394 291.11 563.813 290.742C563.231 290.364 562.519 290.211 561.677 290.285L554.664 290.898L554.128 284.777ZM574.781 299.738L572.784 276.917L580.986 276.199L582.982 299.021L574.781 299.738ZM592.298 288.624L592.236 287.911C592.093 286.276 592.108 284.963 592.28 283.969C592.453 282.976 592.766 282.165 593.22 281.536C593.673 280.898 594.246 280.309 594.937 279.769C595.535 279.298 596.064 278.847 596.526 278.418C596.997 277.987 597.357 277.541 597.606 277.08C597.865 276.619 597.971 276.11 597.922 275.556C597.879 275.06 597.722 274.635 597.451 274.279C597.181 273.924 596.833 273.66 596.409 273.487C595.984 273.315 595.525 273.25 595.029 273.293C594.494 273.34 594.01 273.507 593.576 273.795C593.152 274.082 592.82 274.455 592.581 274.915C592.352 275.374 592.262 275.891 592.313 276.466L584.705 277.131C584.534 274.95 584.875 273.139 585.727 271.697C586.578 270.245 587.778 269.132 589.327 268.358C590.876 267.573 592.611 267.097 594.532 266.929C596.652 266.744 598.571 266.89 600.29 267.369C602.008 267.837 603.402 268.653 604.472 269.817C605.541 270.971 606.157 272.48 606.32 274.342C606.425 275.54 606.309 276.613 605.973 277.561C605.646 278.498 605.146 279.345 604.473 280.103C603.81 280.85 603.018 281.548 602.096 282.197C601.42 282.676 600.858 283.159 600.412 283.647C599.964 284.125 599.642 284.658 599.444 285.244C599.244 285.82 599.18 286.505 599.249 287.297L599.311 288.01L592.298 288.624ZM596.797 298.291C595.648 298.392 594.627 298.077 593.735 297.347C592.852 296.605 592.364 295.655 592.273 294.495C592.164 293.367 592.481 292.366 593.223 291.492C593.975 290.618 594.925 290.131 596.074 290.03C597.164 289.935 598.16 290.252 599.062 290.982C599.974 291.71 600.485 292.639 600.593 293.767C600.651 294.541 600.51 295.262 600.169 295.93C599.837 296.588 599.376 297.133 598.785 297.564C598.193 297.985 597.53 298.227 596.797 298.291Z" fill="black"/>
<path d="M247.055 343.997C248.664 344.622 248.541 346.84 246.871 347.299L238.442 349.616L234.592 357.151C233.83 358.644 231.525 358.374 231.16 356.75L227.236 339.251C227.166 338.94 227.186 338.617 227.294 338.316C227.402 338.015 227.593 337.748 227.848 337.543C228.103 337.338 228.411 337.204 228.74 337.154C229.068 337.105 229.405 337.142 229.713 337.261L247.055 343.997Z" fill="#8000FF"/>
<rect x="247" y="355" width="117" height="30" rx="15" fill="#8000FF"/>
<path d="M258.064 375V365.2H259.184L263.258 371.906H262.53L266.604 365.2H267.724V375H266.114V368.028L266.478 368.126L263.454 373.096H262.334L259.31 368.126L259.674 368.028V375H258.064ZM269.653 375V368.28H271.193V375H269.653ZM270.423 367.048C270.162 367.048 269.942 366.959 269.765 366.782C269.597 366.605 269.513 366.385 269.513 366.124C269.513 365.863 269.597 365.643 269.765 365.466C269.942 365.289 270.162 365.2 270.423 365.2C270.694 365.2 270.913 365.289 271.081 365.466C271.249 365.643 271.333 365.863 271.333 366.124C271.333 366.385 271.249 366.605 271.081 366.782C270.913 366.959 270.694 367.048 270.423 367.048ZM272.92 375V368.28H274.46V375H272.92ZM274.46 371.262L273.928 370.996C273.928 370.147 274.115 369.461 274.488 368.938C274.871 368.406 275.445 368.14 276.21 368.14C276.546 368.14 276.85 368.201 277.12 368.322C277.391 368.443 277.643 368.639 277.876 368.91L276.868 369.946C276.747 369.815 276.612 369.722 276.462 369.666C276.313 369.61 276.14 369.582 275.944 369.582C275.515 369.582 275.16 369.717 274.88 369.988C274.6 370.259 274.46 370.683 274.46 371.262ZM280.669 375.14C280.296 375.14 279.937 375.093 279.591 375C279.246 374.897 278.929 374.757 278.639 374.58C278.35 374.393 278.098 374.169 277.883 373.908L278.863 372.928C279.097 373.199 279.363 373.404 279.661 373.544C279.969 373.675 280.315 373.74 280.697 373.74C281.043 373.74 281.304 373.689 281.481 373.586C281.659 373.483 281.747 373.334 281.747 373.138C281.747 372.933 281.663 372.774 281.495 372.662C281.327 372.55 281.108 372.457 280.837 372.382C280.576 372.298 280.296 372.214 279.997 372.13C279.708 372.046 279.428 371.934 279.157 371.794C278.896 371.645 278.681 371.444 278.513 371.192C278.345 370.94 278.261 370.613 278.261 370.212C278.261 369.783 278.359 369.414 278.555 369.106C278.761 368.798 279.045 368.56 279.409 368.392C279.783 368.224 280.226 368.14 280.739 368.14C281.281 368.14 281.757 368.238 282.167 368.434C282.587 368.621 282.937 368.905 283.217 369.288L282.237 370.268C282.041 370.025 281.817 369.843 281.565 369.722C281.313 369.601 281.024 369.54 280.697 369.54C280.389 369.54 280.151 369.587 279.983 369.68C279.815 369.773 279.731 369.909 279.731 370.086C279.731 370.273 279.815 370.417 279.983 370.52C280.151 370.623 280.366 370.711 280.627 370.786C280.898 370.861 281.178 370.945 281.467 371.038C281.766 371.122 282.046 371.243 282.307 371.402C282.578 371.551 282.797 371.757 282.965 372.018C283.133 372.27 283.217 372.601 283.217 373.012C283.217 373.665 282.989 374.183 282.531 374.566C282.074 374.949 281.453 375.14 280.669 375.14ZM287.301 375.14C286.694 375.14 286.143 374.986 285.649 374.678C285.163 374.37 284.776 373.955 284.487 373.432C284.207 372.9 284.067 372.307 284.067 371.654C284.067 370.991 284.207 370.399 284.487 369.876C284.776 369.344 285.163 368.924 285.649 368.616C286.143 368.299 286.694 368.14 287.301 368.14C287.814 368.14 288.267 368.252 288.659 368.476C289.06 368.691 289.377 368.989 289.611 369.372C289.844 369.755 289.961 370.189 289.961 370.674V372.606C289.961 373.091 289.844 373.525 289.611 373.908C289.387 374.291 289.074 374.594 288.673 374.818C288.271 375.033 287.814 375.14 287.301 375.14ZM287.553 373.684C288.122 373.684 288.579 373.493 288.925 373.11C289.279 372.727 289.457 372.237 289.457 371.64C289.457 371.239 289.377 370.884 289.219 370.576C289.06 370.268 288.836 370.03 288.547 369.862C288.267 369.685 287.935 369.596 287.553 369.596C287.179 369.596 286.848 369.685 286.559 369.862C286.279 370.03 286.055 370.268 285.887 370.576C285.728 370.884 285.649 371.239 285.649 371.64C285.649 372.041 285.728 372.396 285.887 372.704C286.055 373.012 286.279 373.255 286.559 373.432C286.848 373.6 287.179 373.684 287.553 373.684ZM289.359 375V373.194L289.625 371.556L289.359 369.932V368.28H290.899V375H289.359ZM292.622 375V368.28H294.162V375H292.622ZM293.392 367.048C293.131 367.048 292.911 366.959 292.734 366.782C292.566 366.605 292.482 366.385 292.482 366.124C292.482 365.863 292.566 365.643 292.734 365.466C292.911 365.289 293.131 365.2 293.392 365.2C293.663 365.2 293.882 365.289 294.05 365.466C294.218 365.643 294.302 365.863 294.302 366.124C294.302 366.385 294.218 366.605 294.05 366.782C293.882 366.959 293.663 367.048 293.392 367.048ZM298.703 375.14C298.096 375.14 297.546 374.986 297.051 374.678C296.566 374.37 296.178 373.955 295.889 373.432C295.609 372.9 295.469 372.307 295.469 371.654C295.469 370.991 295.609 370.399 295.889 369.876C296.178 369.344 296.566 368.924 297.051 368.616C297.546 368.299 298.096 368.14 298.703 368.14C299.216 368.14 299.669 368.252 300.061 368.476C300.462 368.691 300.78 368.989 301.013 369.372C301.246 369.755 301.363 370.189 301.363 370.674V372.606C301.363 373.091 301.246 373.525 301.013 373.908C300.789 374.291 300.476 374.594 300.075 374.818C299.674 375.033 299.216 375.14 298.703 375.14ZM298.955 373.684C299.338 373.684 299.669 373.6 299.949 373.432C300.238 373.255 300.462 373.012 300.621 372.704C300.78 372.396 300.859 372.041 300.859 371.64C300.859 371.239 300.78 370.884 300.621 370.576C300.462 370.268 300.238 370.03 299.949 369.862C299.669 369.685 299.338 369.596 298.955 369.596C298.582 369.596 298.25 369.685 297.961 369.862C297.681 370.03 297.457 370.268 297.289 370.576C297.13 370.884 297.051 371.239 297.051 371.64C297.051 372.041 297.13 372.396 297.289 372.704C297.457 373.012 297.681 373.255 297.961 373.432C298.25 373.6 298.582 373.684 298.955 373.684ZM302.301 375H300.761V373.194L301.027 371.556L300.761 369.932V364.92H302.301V375ZM308.129 375V373.6H310.943C311.438 373.6 311.82 373.446 312.091 373.138C312.362 372.83 312.497 372.475 312.497 372.074C312.497 371.803 312.436 371.551 312.315 371.318C312.194 371.085 312.016 370.898 311.783 370.758C311.55 370.618 311.27 370.548 310.943 370.548H308.129V369.148H310.705C311.125 369.148 311.461 369.041 311.713 368.826C311.965 368.611 312.091 368.294 312.091 367.874C312.091 367.454 311.965 367.137 311.713 366.922C311.461 366.707 311.125 366.6 310.705 366.6H308.129V365.2H310.747C311.41 365.2 311.96 365.321 312.399 365.564C312.838 365.807 313.164 366.119 313.379 366.502C313.594 366.885 313.701 367.295 313.701 367.734C313.701 368.247 313.556 368.7 313.267 369.092C312.987 369.484 312.572 369.801 312.021 370.044L312.147 369.54C312.763 369.792 313.244 370.147 313.589 370.604C313.934 371.061 314.107 371.598 314.107 372.214C314.107 372.718 313.981 373.18 313.729 373.6C313.486 374.02 313.122 374.361 312.637 374.622C312.161 374.874 311.573 375 310.873 375H308.129ZM307.023 375V365.2H308.633V375H307.023ZM318.602 375.14C317.949 375.14 317.356 374.986 316.824 374.678C316.292 374.361 315.867 373.936 315.55 373.404C315.242 372.872 315.088 372.279 315.088 371.626C315.088 370.973 315.242 370.385 315.55 369.862C315.867 369.339 316.292 368.924 316.824 368.616C317.356 368.299 317.949 368.14 318.602 368.14C319.265 368.14 319.862 368.294 320.394 368.602C320.926 368.91 321.346 369.33 321.654 369.862C321.971 370.385 322.13 370.973 322.13 371.626C322.13 372.279 321.971 372.872 321.654 373.404C321.346 373.936 320.926 374.361 320.394 374.678C319.862 374.986 319.265 375.14 318.602 375.14ZM318.602 373.656C318.985 373.656 319.321 373.572 319.61 373.404C319.909 373.227 320.137 372.984 320.296 372.676C320.464 372.368 320.548 372.018 320.548 371.626C320.548 371.234 320.464 370.889 320.296 370.59C320.128 370.291 319.899 370.058 319.61 369.89C319.321 369.713 318.985 369.624 318.602 369.624C318.229 369.624 317.893 369.713 317.594 369.89C317.305 370.058 317.076 370.291 316.908 370.59C316.749 370.889 316.67 371.234 316.67 371.626C316.67 372.018 316.749 372.368 316.908 372.676C317.076 372.984 317.305 373.227 317.594 373.404C317.893 373.572 318.229 373.656 318.602 373.656ZM323.411 375V364.92H324.951V375H323.411ZM327.687 375V365.48H329.227V375H327.687ZM326.077 369.68V368.28H330.837V369.68H326.077ZM334.578 375.14C333.971 375.14 333.421 374.986 332.926 374.678C332.441 374.37 332.053 373.955 331.764 373.432C331.484 372.9 331.344 372.307 331.344 371.654C331.344 370.991 331.484 370.399 331.764 369.876C332.053 369.344 332.441 368.924 332.926 368.616C333.421 368.299 333.971 368.14 334.578 368.14C335.091 368.14 335.544 368.252 335.936 368.476C336.337 368.691 336.655 368.989 336.888 369.372C337.121 369.755 337.238 370.189 337.238 370.674V372.606C337.238 373.091 337.121 373.525 336.888 373.908C336.664 374.291 336.351 374.594 335.95 374.818C335.549 375.033 335.091 375.14 334.578 375.14ZM334.83 373.684C335.399 373.684 335.857 373.493 336.202 373.11C336.557 372.727 336.734 372.237 336.734 371.64C336.734 371.239 336.655 370.884 336.496 370.576C336.337 370.268 336.113 370.03 335.824 369.862C335.544 369.685 335.213 369.596 334.83 369.596C334.457 369.596 334.125 369.685 333.836 369.862C333.556 370.03 333.332 370.268 333.164 370.576C333.005 370.884 332.926 371.239 332.926 371.64C332.926 372.041 333.005 372.396 333.164 372.704C333.332 373.012 333.556 373.255 333.836 373.432C334.125 373.6 334.457 373.684 334.83 373.684ZM336.636 375V373.194L336.902 371.556L336.636 369.932V368.28H338.176V375H336.636ZM343.007 375.14C342.335 375.14 341.729 374.991 341.187 374.692C340.655 374.384 340.231 373.964 339.913 373.432C339.605 372.9 339.451 372.303 339.451 371.64C339.451 370.977 339.605 370.385 339.913 369.862C340.221 369.33 340.637 368.91 341.159 368.602C341.691 368.294 342.279 368.14 342.923 368.14C343.549 368.14 344.099 368.285 344.575 368.574C345.061 368.863 345.439 369.26 345.709 369.764C345.989 370.268 346.129 370.842 346.129 371.486C346.129 371.598 346.12 371.715 346.101 371.836C346.092 371.948 346.073 372.074 346.045 372.214H340.529V370.954H345.247L344.673 371.458C344.655 371.047 344.575 370.702 344.435 370.422C344.295 370.142 344.095 369.927 343.833 369.778C343.581 369.629 343.269 369.554 342.895 369.554C342.503 369.554 342.163 369.638 341.873 369.806C341.584 369.974 341.36 370.212 341.201 370.52C341.043 370.819 340.963 371.178 340.963 371.598C340.963 372.018 341.047 372.387 341.215 372.704C341.383 373.021 341.621 373.269 341.929 373.446C342.237 373.614 342.592 373.698 342.993 373.698C343.339 373.698 343.656 373.637 343.945 373.516C344.244 373.395 344.496 373.217 344.701 372.984L345.681 373.978C345.355 374.361 344.958 374.65 344.491 374.846C344.025 375.042 343.53 375.14 343.007 375.14ZM349.522 375L346.456 368.28H348.164L350.502 373.754H349.494L351.846 368.28H353.484L350.418 375H349.522Z" fill="white"/>
<g filter="url(#filter0_d_1202_1266)">
<path d="M144 327C144 315.954 152.954 307 164 307C175.046 307 184 315.954 184 327C184 338.046 175.046 347 164 347H144V327Z" fill="white"/>
</g>
<circle cx="164" cy="327" r="16" fill="#FFCD29"/>
<path d="M158.384 333L162.992 321.8H164.272L168.848 333H166.864L163.28 323.928H163.952L160.336 333H158.384ZM160.656 330.84V329.24H166.592V330.84H160.656Z" fill="#121212"/>
<g filter="url(#filter1_d_1202_1266)">
<rect x="17" y="193" width="62" height="62" rx="31" fill="#0D99FF"/>
</g>
<circle cx="53" cy="224" r="16" fill="#078AF2"/>
<circle cx="43" cy="224" r="17" fill="#007BE5" stroke="#0D99FF" stroke-width="2"/>
<path d="M38.336 230.16C37.4507 230.16 36.6987 230 36.08 229.68C35.4613 229.36 34.9067 228.891 34.416 228.272L35.664 227.024C35.9733 227.472 36.3413 227.824 36.768 228.08C37.1947 228.325 37.7387 228.448 38.4 228.448C39.0187 228.448 39.5093 228.32 39.872 228.064C40.2453 227.808 40.432 227.456 40.432 227.008C40.432 226.635 40.336 226.331 40.144 226.096C39.952 225.861 39.696 225.669 39.376 225.52C39.0667 225.36 38.72 225.221 38.336 225.104C37.9627 224.976 37.584 224.837 37.2 224.688C36.8267 224.528 36.48 224.331 36.16 224.096C35.8507 223.861 35.6 223.557 35.408 223.184C35.216 222.811 35.12 222.336 35.12 221.76C35.12 221.099 35.28 220.539 35.6 220.08C35.9307 219.611 36.3733 219.253 36.928 219.008C37.4827 218.763 38.1013 218.64 38.784 218.64C39.52 218.64 40.176 218.784 40.752 219.072C41.3387 219.36 41.8133 219.728 42.176 220.176L40.928 221.424C40.608 221.061 40.272 220.795 39.92 220.624C39.5787 220.443 39.184 220.352 38.736 220.352C38.1813 220.352 37.744 220.464 37.424 220.688C37.1147 220.912 36.96 221.227 36.96 221.632C36.96 221.973 37.056 222.251 37.248 222.464C37.44 222.667 37.6907 222.843 38 222.992C38.32 223.131 38.6667 223.264 39.04 223.392C39.424 223.52 39.8027 223.664 40.176 223.824C40.56 223.984 40.9067 224.192 41.216 224.448C41.536 224.693 41.792 225.013 41.984 225.408C42.176 225.803 42.272 226.299 42.272 226.896C42.272 227.899 41.9147 228.693 41.2 229.28C40.496 229.867 39.5413 230.16 38.336 230.16ZM49.1306 230V225.568C49.1306 225.056 48.9653 224.635 48.6346 224.304C48.3146 223.973 47.8986 223.808 47.3866 223.808C47.0453 223.808 46.7413 223.883 46.4746 224.032C46.208 224.181 46 224.389 45.8506 224.656C45.7013 224.923 45.6266 225.227 45.6266 225.568L44.9386 225.184C44.9386 224.597 45.0666 224.08 45.3226 223.632C45.5786 223.173 45.9306 222.816 46.3786 222.56C46.8373 222.293 47.3493 222.16 47.9146 222.16C48.4906 222.16 49.0026 222.288 49.4506 222.544C49.8986 222.8 50.2506 223.157 50.5066 223.616C50.7626 224.064 50.8906 224.587 50.8906 225.184V230H49.1306ZM43.8666 230V218.48H45.6266V230H43.8666Z" fill="white"/>
<path d="M348.945 12.9972C347.336 13.6222 347.459 15.8399 349.129 16.2988L357.558 18.6161L361.408 26.151C362.17 27.6439 364.475 27.3742 364.84 25.7496L368.764 8.25134C368.834 7.94031 368.814 7.61689 368.706 7.31588C368.598 7.01486 368.407 6.74764 368.152 6.54296C367.897 6.33828 367.589 6.20389 367.26 6.15425C366.932 6.1046 366.595 6.14158 366.287 6.26121L348.945 12.9972Z" fill="#00BC1E"/>
<rect width="151" height="30" rx="15" transform="matrix(-1 0 0 1 349 24)" fill="#00BC1E"/>
<path d="M208.336 44L212.368 34.2H213.488L217.492 44H215.756L212.62 36.062H213.208L210.044 44H208.336ZM210.324 42.11V40.71H215.518V42.11H210.324ZM222.282 44.14C221.769 44.14 221.311 44.0327 220.91 43.818C220.509 43.594 220.191 43.2907 219.958 42.908C219.734 42.5253 219.622 42.0913 219.622 41.606V39.674C219.622 39.1887 219.739 38.7547 219.972 38.372C220.205 37.9893 220.523 37.6907 220.924 37.476C221.325 37.252 221.778 37.14 222.282 37.14C222.889 37.14 223.435 37.2987 223.92 37.616C224.415 37.924 224.802 38.344 225.082 38.876C225.371 39.3987 225.516 39.9913 225.516 40.654C225.516 41.3073 225.371 41.9 225.082 42.432C224.802 42.9547 224.415 43.37 223.92 43.678C223.435 43.986 222.889 44.14 222.282 44.14ZM222.03 42.684C222.403 42.684 222.73 42.6 223.01 42.432C223.299 42.2547 223.523 42.012 223.682 41.704C223.85 41.396 223.934 41.0413 223.934 40.64C223.934 40.2387 223.85 39.884 223.682 39.576C223.523 39.268 223.299 39.03 223.01 38.862C222.73 38.6847 222.403 38.596 222.03 38.596C221.657 38.596 221.325 38.6847 221.036 38.862C220.747 39.03 220.523 39.268 220.364 39.576C220.205 39.884 220.126 40.2387 220.126 40.64C220.126 41.0413 220.205 41.396 220.364 41.704C220.523 42.012 220.747 42.2547 221.036 42.432C221.325 42.6 221.657 42.684 222.03 42.684ZM218.684 44V33.92H220.224V38.932L219.958 40.556L220.224 42.194V44H218.684ZM229.619 44.14C229.013 44.14 228.462 43.986 227.967 43.678C227.482 43.37 227.095 42.9547 226.805 42.432C226.525 41.9 226.385 41.3073 226.385 40.654C226.385 39.9913 226.525 39.3987 226.805 38.876C227.095 38.344 227.482 37.924 227.967 37.616C228.462 37.2987 229.013 37.14 229.619 37.14C230.133 37.14 230.585 37.252 230.977 37.476C231.379 37.6907 231.696 37.9893 231.929 38.372C232.163 38.7547 232.279 39.1887 232.279 39.674V41.606C232.279 42.0913 232.163 42.5253 231.929 42.908C231.705 43.2907 231.393 43.594 230.991 43.818C230.59 44.0327 230.133 44.14 229.619 44.14ZM229.871 42.684C230.254 42.684 230.585 42.6 230.865 42.432C231.155 42.2547 231.379 42.012 231.537 41.704C231.696 41.396 231.775 41.0413 231.775 40.64C231.775 40.2387 231.696 39.884 231.537 39.576C231.379 39.268 231.155 39.03 230.865 38.862C230.585 38.6847 230.254 38.596 229.871 38.596C229.498 38.596 229.167 38.6847 228.877 38.862C228.597 39.03 228.373 39.268 228.205 39.576C228.047 39.884 227.967 40.2387 227.967 40.64C227.967 41.0413 228.047 41.396 228.205 41.704C228.373 42.012 228.597 42.2547 228.877 42.432C229.167 42.6 229.498 42.684 229.871 42.684ZM233.217 44H231.677V42.194L231.943 40.556L231.677 38.932V33.92H233.217V44ZM237.684 44.14C237.115 44.14 236.606 44.014 236.158 43.762C235.72 43.51 235.374 43.1647 235.122 42.726C234.88 42.278 234.758 41.7647 234.758 41.186V37.28H236.298V41.116C236.298 41.4427 236.35 41.7227 236.452 41.956C236.564 42.18 236.723 42.3527 236.928 42.474C237.143 42.5953 237.395 42.656 237.684 42.656C238.132 42.656 238.473 42.5253 238.706 42.264C238.949 41.9933 239.07 41.6107 239.07 41.116V37.28H240.61V41.186C240.61 41.774 240.484 42.292 240.232 42.74C239.99 43.1787 239.649 43.524 239.21 43.776C238.772 44.0187 238.263 44.14 237.684 44.14ZM242.159 44V33.92H243.699V44H242.159ZM248.227 44.14C247.62 44.14 247.069 43.986 246.575 43.678C246.089 43.37 245.702 42.9547 245.413 42.432C245.133 41.9 244.993 41.3073 244.993 40.654C244.993 39.9913 245.133 39.3987 245.413 38.876C245.702 38.344 246.089 37.924 246.575 37.616C247.069 37.2987 247.62 37.14 248.227 37.14C248.74 37.14 249.193 37.252 249.585 37.476C249.986 37.6907 250.303 37.9893 250.537 38.372C250.77 38.7547 250.887 39.1887 250.887 39.674V41.606C250.887 42.0913 250.77 42.5253 250.537 42.908C250.313 43.2907 250 43.594 249.599 43.818C249.197 44.0327 248.74 44.14 248.227 44.14ZM248.479 42.684C249.048 42.684 249.505 42.4927 249.851 42.11C250.205 41.7273 250.383 41.2373 250.383 40.64C250.383 40.2387 250.303 39.884 250.145 39.576C249.986 39.268 249.762 39.03 249.473 38.862C249.193 38.6847 248.861 38.596 248.479 38.596C248.105 38.596 247.774 38.6847 247.485 38.862C247.205 39.03 246.981 39.268 246.813 39.576C246.654 39.884 246.575 40.2387 246.575 40.64C246.575 41.0413 246.654 41.396 246.813 41.704C246.981 42.012 247.205 42.2547 247.485 42.432C247.774 42.6 248.105 42.684 248.479 42.684ZM250.285 44V42.194L250.551 40.556L250.285 38.932V37.28H251.825V44H250.285ZM253.03 43.16L256.782 38.12H258.588L254.836 43.16H253.03ZM253.03 44V43.16L254.43 42.6H258.504V44H253.03ZM253.282 38.68V37.28H258.588V38.12L257.188 38.68H253.282ZM259.864 44V37.28H261.404V44H259.864ZM260.634 36.048C260.373 36.048 260.153 35.9593 259.976 35.782C259.808 35.6047 259.724 35.3853 259.724 35.124C259.724 34.8627 259.808 34.6433 259.976 34.466C260.153 34.2887 260.373 34.2 260.634 34.2C260.905 34.2 261.124 34.2887 261.292 34.466C261.46 34.6433 261.544 34.8627 261.544 35.124C261.544 35.3853 261.46 35.6047 261.292 35.782C261.124 35.9593 260.905 36.048 260.634 36.048ZM262.627 43.16L266.379 38.12H268.185L264.433 43.16H262.627ZM262.627 44V43.16L264.027 42.6H268.101V44H262.627ZM262.879 38.68V37.28H268.185V38.12L266.785 38.68H262.879ZM278.382 44L273.846 38.89L278.284 34.2H280.342L275.442 39.296L275.456 38.414L280.482 44H278.382ZM272.46 44V34.2H274.07V44H272.46ZM284.067 44.14C283.413 44.14 282.821 43.986 282.289 43.678C281.757 43.3607 281.332 42.936 281.015 42.404C280.707 41.872 280.553 41.2793 280.553 40.626C280.553 39.9727 280.707 39.3847 281.015 38.862C281.332 38.3393 281.757 37.924 282.289 37.616C282.821 37.2987 283.413 37.14 284.067 37.14C284.729 37.14 285.327 37.294 285.859 37.602C286.391 37.91 286.811 38.33 287.119 38.862C287.436 39.3847 287.595 39.9727 287.595 40.626C287.595 41.2793 287.436 41.872 287.119 42.404C286.811 42.936 286.391 43.3607 285.859 43.678C285.327 43.986 284.729 44.14 284.067 44.14ZM284.067 42.656C284.449 42.656 284.785 42.572 285.075 42.404C285.373 42.2267 285.602 41.984 285.761 41.676C285.929 41.368 286.013 41.018 286.013 40.626C286.013 40.234 285.929 39.8887 285.761 39.59C285.593 39.2913 285.364 39.058 285.075 38.89C284.785 38.7127 284.449 38.624 284.067 38.624C283.693 38.624 283.357 38.7127 283.059 38.89C282.769 39.058 282.541 39.2913 282.373 39.59C282.214 39.8887 282.135 40.234 282.135 40.626C282.135 41.018 282.214 41.368 282.373 41.676C282.541 41.984 282.769 42.2267 283.059 42.404C283.357 42.572 283.693 42.656 284.067 42.656ZM291.689 44.14C291.083 44.14 290.532 43.986 290.037 43.678C289.552 43.37 289.165 42.9547 288.875 42.432C288.595 41.9 288.455 41.3073 288.455 40.654C288.455 39.9913 288.595 39.3987 288.875 38.876C289.165 38.344 289.552 37.924 290.037 37.616C290.532 37.2987 291.083 37.14 291.689 37.14C292.203 37.14 292.655 37.252 293.047 37.476C293.449 37.6907 293.766 37.9893 293.999 38.372C294.233 38.7547 294.349 39.1887 294.349 39.674V41.606C294.349 42.0913 294.233 42.5253 293.999 42.908C293.775 43.2907 293.463 43.594 293.061 43.818C292.66 44.0327 292.203 44.14 291.689 44.14ZM291.941 42.684C292.324 42.684 292.655 42.6 292.935 42.432C293.225 42.2547 293.449 42.012 293.607 41.704C293.766 41.396 293.845 41.0413 293.845 40.64C293.845 40.2387 293.766 39.884 293.607 39.576C293.449 39.268 293.225 39.03 292.935 38.862C292.655 38.6847 292.324 38.596 291.941 38.596C291.568 38.596 291.237 38.6847 290.947 38.862C290.667 39.03 290.443 39.268 290.275 39.576C290.117 39.884 290.037 40.2387 290.037 40.64C290.037 41.0413 290.117 41.396 290.275 41.704C290.443 42.012 290.667 42.2547 290.947 42.432C291.237 42.6 291.568 42.684 291.941 42.684ZM295.287 44H293.747V42.194L294.013 40.556L293.747 38.932V33.92H295.287V44ZM297.011 44V37.28H298.551V44H297.011ZM297.781 36.048C297.519 36.048 297.3 35.9593 297.123 35.782C296.955 35.6047 296.871 35.3853 296.871 35.124C296.871 34.8627 296.955 34.6433 297.123 34.466C297.3 34.2887 297.519 34.2 297.781 34.2C298.051 34.2 298.271 34.2887 298.439 34.466C298.607 34.6433 298.691 34.8627 298.691 35.124C298.691 35.3853 298.607 35.6047 298.439 35.782C298.271 35.9593 298.051 36.048 297.781 36.048ZM300.278 44V37.28H301.818V44H300.278ZM301.818 40.262L301.286 39.996C301.286 39.1467 301.472 38.4607 301.846 37.938C302.228 37.406 302.802 37.14 303.568 37.14C303.904 37.14 304.207 37.2007 304.478 37.322C304.748 37.4433 305 37.6393 305.234 37.91L304.226 38.946C304.104 38.8153 303.969 38.722 303.82 38.666C303.67 38.61 303.498 38.582 303.302 38.582C302.872 38.582 302.518 38.7173 302.238 38.988C301.958 39.2587 301.818 39.6833 301.818 40.262ZM305.307 46.94C304.831 46.94 304.444 46.8653 304.145 46.716C303.837 46.5667 303.557 46.3473 303.305 46.058L304.299 45.064C304.411 45.2133 304.537 45.3207 304.677 45.386C304.817 45.4607 304.99 45.498 305.195 45.498C305.447 45.498 305.662 45.4187 305.839 45.26C306.026 45.1107 306.119 44.8867 306.119 44.588V37.28H307.659V44.574C307.659 45.0873 307.547 45.5167 307.323 45.862C307.108 46.2167 306.824 46.4827 306.469 46.66C306.114 46.8467 305.727 46.94 305.307 46.94ZM306.917 36.048C306.656 36.048 306.436 35.9593 306.259 35.782C306.091 35.6047 306.007 35.3853 306.007 35.124C306.007 34.8627 306.091 34.6433 306.259 34.466C306.436 34.2887 306.656 34.2 306.917 34.2C307.188 34.2 307.407 34.2887 307.575 34.466C307.743 34.6433 307.827 34.8627 307.827 35.124C307.827 35.3853 307.743 35.6047 307.575 35.782C307.407 35.9593 307.188 36.048 306.917 36.048ZM312.45 44.14C311.796 44.14 311.204 43.986 310.672 43.678C310.14 43.3607 309.715 42.936 309.398 42.404C309.09 41.872 308.936 41.2793 308.936 40.626C308.936 39.9727 309.09 39.3847 309.398 38.862C309.715 38.3393 310.14 37.924 310.672 37.616C311.204 37.2987 311.796 37.14 312.45 37.14C313.112 37.14 313.71 37.294 314.242 37.602C314.774 37.91 315.194 38.33 315.502 38.862C315.819 39.3847 315.978 39.9727 315.978 40.626C315.978 41.2793 315.819 41.872 315.502 42.404C315.194 42.936 314.774 43.3607 314.242 43.678C313.71 43.986 313.112 44.14 312.45 44.14ZM312.45 42.656C312.832 42.656 313.168 42.572 313.458 42.404C313.756 42.2267 313.985 41.984 314.144 41.676C314.312 41.368 314.396 41.018 314.396 40.626C314.396 40.234 314.312 39.8887 314.144 39.59C313.976 39.2913 313.747 39.058 313.458 38.89C313.168 38.7127 312.832 38.624 312.45 38.624C312.076 38.624 311.74 38.7127 311.442 38.89C311.152 39.058 310.924 39.2913 310.756 39.59C310.597 39.8887 310.518 40.234 310.518 40.626C310.518 41.018 310.597 41.368 310.756 41.676C310.924 41.984 311.152 42.2267 311.442 42.404C311.74 42.572 312.076 42.656 312.45 42.656ZM321.864 44V40.122C321.864 39.674 321.72 39.3053 321.43 39.016C321.15 38.7267 320.786 38.582 320.338 38.582C320.04 38.582 319.774 38.6473 319.54 38.778C319.307 38.9087 319.125 39.0907 318.994 39.324C318.864 39.5573 318.798 39.8233 318.798 40.122L318.196 39.786C318.196 39.2727 318.308 38.82 318.532 38.428C318.756 38.0267 319.064 37.714 319.456 37.49C319.858 37.2567 320.306 37.14 320.8 37.14C321.304 37.14 321.752 37.2707 322.144 37.532C322.536 37.784 322.844 38.1153 323.068 38.526C323.292 38.9273 323.404 39.3473 323.404 39.786V44H321.864ZM317.258 44V37.28H318.798V44H317.258ZM328.049 44.14C327.396 44.14 326.803 43.986 326.271 43.678C325.739 43.3607 325.315 42.936 324.997 42.404C324.689 41.872 324.535 41.2793 324.535 40.626C324.535 39.9727 324.689 39.3847 324.997 38.862C325.315 38.3393 325.739 37.924 326.271 37.616C326.803 37.2987 327.396 37.14 328.049 37.14C328.712 37.14 329.309 37.294 329.841 37.602C330.373 37.91 330.793 38.33 331.101 38.862C331.419 39.3847 331.577 39.9727 331.577 40.626C331.577 41.2793 331.419 41.872 331.101 42.404C330.793 42.936 330.373 43.3607 329.841 43.678C329.309 43.986 328.712 44.14 328.049 44.14ZM328.049 42.656C328.432 42.656 328.768 42.572 329.057 42.404C329.356 42.2267 329.585 41.984 329.743 41.676C329.911 41.368 329.995 41.018 329.995 40.626C329.995 40.234 329.911 39.8887 329.743 39.59C329.575 39.2913 329.347 39.058 329.057 38.89C328.768 38.7127 328.432 38.624 328.049 38.624C327.676 38.624 327.34 38.7127 327.041 38.89C326.752 39.058 326.523 39.2913 326.355 39.59C326.197 39.8887 326.117 40.234 326.117 40.626C326.117 41.018 326.197 41.368 326.355 41.676C326.523 41.984 326.752 42.2267 327.041 42.404C327.34 42.572 327.676 42.656 328.049 42.656ZM334.893 44L331.827 37.28H333.535L335.873 42.754H334.865L337.217 37.28H338.855L335.789 44H334.893Z" fill="white"/>
<path d="M322.945 213.997C321.336 214.622 321.459 216.84 323.129 217.299L331.558 219.616L335.408 227.151C336.17 228.644 338.475 228.374 338.84 226.75L342.764 209.251C342.834 208.94 342.814 208.617 342.706 208.316C342.598 208.015 342.407 207.748 342.152 207.543C341.897 207.338 341.589 207.204 341.26 207.154C340.932 207.105 340.595 207.142 340.287 207.261L322.945 213.997Z" fill="#3F53D9"/>
<rect width="125" height="30" rx="15" transform="matrix(-1 0 0 1 323 225)" fill="#3F53D9"/>
<path d="M208.336 245L212.368 235.2H213.488L217.492 245H215.756L212.62 237.062H213.208L210.044 245H208.336ZM210.324 243.11V241.71H215.518V243.11H210.324ZM222.282 245.14C221.769 245.14 221.311 245.033 220.91 244.818C220.509 244.594 220.191 244.291 219.958 243.908C219.734 243.525 219.622 243.091 219.622 242.606V240.674C219.622 240.189 219.739 239.755 219.972 239.372C220.205 238.989 220.523 238.691 220.924 238.476C221.325 238.252 221.778 238.14 222.282 238.14C222.889 238.14 223.435 238.299 223.92 238.616C224.415 238.924 224.802 239.344 225.082 239.876C225.371 240.399 225.516 240.991 225.516 241.654C225.516 242.307 225.371 242.9 225.082 243.432C224.802 243.955 224.415 244.37 223.92 244.678C223.435 244.986 222.889 245.14 222.282 245.14ZM222.03 243.684C222.403 243.684 222.73 243.6 223.01 243.432C223.299 243.255 223.523 243.012 223.682 242.704C223.85 242.396 223.934 242.041 223.934 241.64C223.934 241.239 223.85 240.884 223.682 240.576C223.523 240.268 223.299 240.03 223.01 239.862C222.73 239.685 222.403 239.596 222.03 239.596C221.657 239.596 221.325 239.685 221.036 239.862C220.747 240.03 220.523 240.268 220.364 240.576C220.205 240.884 220.126 241.239 220.126 241.64C220.126 242.041 220.205 242.396 220.364 242.704C220.523 243.012 220.747 243.255 221.036 243.432C221.325 243.6 221.657 243.684 222.03 243.684ZM218.684 245V234.92H220.224V239.932L219.958 241.556L220.224 243.194V245H218.684ZM230.403 245.14C229.89 245.14 229.433 245.033 229.031 244.818C228.63 244.594 228.313 244.291 228.079 243.908C227.855 243.525 227.743 243.091 227.743 242.606V240.674C227.743 240.189 227.86 239.755 228.093 239.372C228.327 238.989 228.644 238.691 229.045 238.476C229.447 238.252 229.899 238.14 230.403 238.14C231.01 238.14 231.556 238.299 232.041 238.616C232.536 238.924 232.923 239.344 233.203 239.876C233.493 240.399 233.637 240.991 233.637 241.654C233.637 242.307 233.493 242.9 233.203 243.432C232.923 243.955 232.536 244.37 232.041 244.678C231.556 244.986 231.01 245.14 230.403 245.14ZM230.151 243.684C230.525 243.684 230.851 243.6 231.131 243.432C231.421 243.255 231.645 243.012 231.803 242.704C231.971 242.396 232.055 242.041 232.055 241.64C232.055 241.239 231.971 240.884 231.803 240.576C231.645 240.268 231.421 240.03 231.131 239.862C230.851 239.685 230.525 239.596 230.151 239.596C229.778 239.596 229.447 239.685 229.157 239.862C228.868 240.03 228.644 240.268 228.485 240.576C228.327 240.884 228.247 241.239 228.247 241.64C228.247 242.041 228.327 242.396 228.485 242.704C228.644 243.012 228.868 243.255 229.157 243.432C229.447 243.6 229.778 243.684 230.151 243.684ZM226.805 245V234.92H228.345V239.932L228.079 241.556L228.345 243.194V245H226.805ZM238.006 245.14C237.353 245.14 236.76 244.986 236.228 244.678C235.696 244.361 235.272 243.936 234.954 243.404C234.646 242.872 234.492 242.279 234.492 241.626C234.492 240.973 234.646 240.385 234.954 239.862C235.272 239.339 235.696 238.924 236.228 238.616C236.76 238.299 237.353 238.14 238.006 238.14C238.669 238.14 239.266 238.294 239.798 238.602C240.33 238.91 240.75 239.33 241.058 239.862C241.376 240.385 241.534 240.973 241.534 241.626C241.534 242.279 241.376 242.872 241.058 243.404C240.75 243.936 240.33 244.361 239.798 244.678C239.266 244.986 238.669 245.14 238.006 245.14ZM238.006 243.656C238.389 243.656 238.725 243.572 239.014 243.404C239.313 243.227 239.542 242.984 239.7 242.676C239.868 242.368 239.952 242.018 239.952 241.626C239.952 241.234 239.868 240.889 239.7 240.59C239.532 240.291 239.304 240.058 239.014 239.89C238.725 239.713 238.389 239.624 238.006 239.624C237.633 239.624 237.297 239.713 236.998 239.89C236.709 240.058 236.48 240.291 236.312 240.59C236.154 240.889 236.074 241.234 236.074 241.626C236.074 242.018 236.154 242.368 236.312 242.676C236.48 242.984 236.709 243.227 236.998 243.404C237.297 243.572 237.633 243.656 238.006 243.656ZM245.013 245.14C244.64 245.14 244.28 245.093 243.935 245C243.59 244.897 243.272 244.757 242.983 244.58C242.694 244.393 242.442 244.169 242.227 243.908L243.207 242.928C243.44 243.199 243.706 243.404 244.005 243.544C244.313 243.675 244.658 243.74 245.041 243.74C245.386 243.74 245.648 243.689 245.825 243.586C246.002 243.483 246.091 243.334 246.091 243.138C246.091 242.933 246.007 242.774 245.839 242.662C245.671 242.55 245.452 242.457 245.181 242.382C244.92 242.298 244.64 242.214 244.341 242.13C244.052 242.046 243.772 241.934 243.501 241.794C243.24 241.645 243.025 241.444 242.857 241.192C242.689 240.94 242.605 240.613 242.605 240.212C242.605 239.783 242.703 239.414 242.899 239.106C243.104 238.798 243.389 238.56 243.753 238.392C244.126 238.224 244.57 238.14 245.083 238.14C245.624 238.14 246.1 238.238 246.511 238.434C246.931 238.621 247.281 238.905 247.561 239.288L246.581 240.268C246.385 240.025 246.161 239.843 245.909 239.722C245.657 239.601 245.368 239.54 245.041 239.54C244.733 239.54 244.495 239.587 244.327 239.68C244.159 239.773 244.075 239.909 244.075 240.086C244.075 240.273 244.159 240.417 244.327 240.52C244.495 240.623 244.71 240.711 244.971 240.786C245.242 240.861 245.522 240.945 245.811 241.038C246.11 241.122 246.39 241.243 246.651 241.402C246.922 241.551 247.141 241.757 247.309 242.018C247.477 242.27 247.561 242.601 247.561 243.012C247.561 243.665 247.332 244.183 246.875 244.566C246.418 244.949 245.797 245.14 245.013 245.14ZM253.295 245.14C252.725 245.14 252.217 245.028 251.769 244.804C251.33 244.571 250.975 244.263 250.705 243.88L251.839 242.844C251.997 243.087 252.198 243.273 252.441 243.404C252.683 243.535 252.949 243.6 253.239 243.6C253.556 243.6 253.827 243.535 254.051 243.404C254.275 243.273 254.447 243.087 254.569 242.844C254.69 242.601 254.751 242.312 254.751 241.976V235.2H256.361V241.85C256.361 242.503 256.23 243.077 255.969 243.572C255.717 244.067 255.362 244.454 254.905 244.734C254.447 245.005 253.911 245.14 253.295 245.14ZM260.969 245.14C260.362 245.14 259.811 244.986 259.317 244.678C258.831 244.37 258.444 243.955 258.155 243.432C257.875 242.9 257.735 242.307 257.735 241.654C257.735 240.991 257.875 240.399 258.155 239.876C258.444 239.344 258.831 238.924 259.317 238.616C259.811 238.299 260.362 238.14 260.969 238.14C261.482 238.14 261.935 238.252 262.327 238.476C262.728 238.691 263.045 238.989 263.279 239.372C263.512 239.755 263.629 240.189 263.629 240.674V242.606C263.629 243.091 263.512 243.525 263.279 243.908C263.055 244.291 262.742 244.594 262.341 244.818C261.939 245.033 261.482 245.14 260.969 245.14ZM261.221 243.684C261.79 243.684 262.247 243.493 262.593 243.11C262.947 242.727 263.125 242.237 263.125 241.64C263.125 241.239 263.045 240.884 262.887 240.576C262.728 240.268 262.504 240.03 262.215 239.862C261.935 239.685 261.603 239.596 261.221 239.596C260.847 239.596 260.516 239.685 260.227 239.862C259.947 240.03 259.723 240.268 259.555 240.576C259.396 240.884 259.317 241.239 259.317 241.64C259.317 242.041 259.396 242.396 259.555 242.704C259.723 243.012 259.947 243.255 260.227 243.432C260.516 243.6 260.847 243.684 261.221 243.684ZM263.027 245V243.194L263.293 241.556L263.027 239.932V238.28H264.567V245H263.027ZM270.882 245V241.122C270.882 240.674 270.737 240.305 270.448 240.016C270.168 239.727 269.804 239.582 269.356 239.582C269.057 239.582 268.791 239.647 268.558 239.778C268.325 239.909 268.143 240.091 268.012 240.324C267.881 240.557 267.816 240.823 267.816 241.122L267.214 240.786C267.214 240.273 267.326 239.82 267.55 239.428C267.774 239.027 268.082 238.714 268.474 238.49C268.875 238.257 269.323 238.14 269.818 238.14C270.322 238.14 270.77 238.271 271.162 238.532C271.554 238.784 271.862 239.115 272.086 239.526C272.31 239.927 272.422 240.347 272.422 240.786V245H270.882ZM266.276 245V238.28H267.816V245H266.276ZM274.001 245V238.28H275.541V245H274.001ZM274.771 237.048C274.509 237.048 274.29 236.959 274.113 236.782C273.945 236.605 273.861 236.385 273.861 236.124C273.861 235.863 273.945 235.643 274.113 235.466C274.29 235.289 274.509 235.2 274.771 235.2C275.041 235.2 275.261 235.289 275.429 235.466C275.597 235.643 275.681 235.863 275.681 236.124C275.681 236.385 275.597 236.605 275.429 236.782C275.261 236.959 275.041 237.048 274.771 237.048ZM276.764 244.16L280.516 239.12H282.322L278.57 244.16H276.764ZM276.764 245V244.16L278.164 243.6H282.238V245H276.764ZM277.016 239.68V238.28H282.322V239.12L280.922 239.68H277.016ZM286.289 245.14C285.682 245.14 285.132 244.986 284.637 244.678C284.152 244.37 283.764 243.955 283.475 243.432C283.195 242.9 283.055 242.307 283.055 241.654C283.055 240.991 283.195 240.399 283.475 239.876C283.764 239.344 284.152 238.924 284.637 238.616C285.132 238.299 285.682 238.14 286.289 238.14C286.802 238.14 287.255 238.252 287.647 238.476C288.048 238.691 288.366 238.989 288.599 239.372C288.832 239.755 288.949 240.189 288.949 240.674V242.606C288.949 243.091 288.832 243.525 288.599 243.908C288.375 244.291 288.062 244.594 287.661 244.818C287.26 245.033 286.802 245.14 286.289 245.14ZM286.541 243.684C287.11 243.684 287.568 243.493 287.913 243.11C288.268 242.727 288.445 242.237 288.445 241.64C288.445 241.239 288.366 240.884 288.207 240.576C288.048 240.268 287.824 240.03 287.535 239.862C287.255 239.685 286.924 239.596 286.541 239.596C286.168 239.596 285.836 239.685 285.547 239.862C285.267 240.03 285.043 240.268 284.875 240.576C284.716 240.884 284.637 241.239 284.637 241.64C284.637 242.041 284.716 242.396 284.875 242.704C285.043 243.012 285.267 243.255 285.547 243.432C285.836 243.6 286.168 243.684 286.541 243.684ZM288.347 245V243.194L288.613 241.556L288.347 239.932V238.28H289.887V245H288.347ZM295.866 245L293.024 241.57L295.852 238.28H297.686L294.438 241.976L294.508 241.094L297.826 245H295.866ZM291.596 245V234.92H293.136V245H291.596ZM301.485 245.14C300.831 245.14 300.239 244.986 299.707 244.678C299.175 244.361 298.75 243.936 298.433 243.404C298.125 242.872 297.971 242.279 297.971 241.626C297.971 240.973 298.125 240.385 298.433 239.862C298.75 239.339 299.175 238.924 299.707 238.616C300.239 238.299 300.831 238.14 301.485 238.14C302.147 238.14 302.745 238.294 303.277 238.602C303.809 238.91 304.229 239.33 304.537 239.862C304.854 240.385 305.013 240.973 305.013 241.626C305.013 242.279 304.854 242.872 304.537 243.404C304.229 243.936 303.809 244.361 303.277 244.678C302.745 244.986 302.147 245.14 301.485 245.14ZM301.485 243.656C301.867 243.656 302.203 243.572 302.493 243.404C302.791 243.227 303.02 242.984 303.179 242.676C303.347 242.368 303.431 242.018 303.431 241.626C303.431 241.234 303.347 240.889 303.179 240.59C303.011 240.291 302.782 240.058 302.493 239.89C302.203 239.713 301.867 239.624 301.485 239.624C301.111 239.624 300.775 239.713 300.477 239.89C300.187 240.058 299.959 240.291 299.791 240.59C299.632 240.889 299.553 241.234 299.553 241.626C299.553 242.018 299.632 242.368 299.791 242.676C299.959 242.984 300.187 243.227 300.477 243.404C300.775 243.572 301.111 243.656 301.485 243.656ZM308.329 245L305.263 238.28H306.971L309.309 243.754H308.301L310.653 238.28H312.291L309.225 245H308.329Z" fill="white"/>
<path d="M638.055 316.997C639.664 317.622 639.541 319.84 637.871 320.299L629.442 322.616L625.592 330.151C624.83 331.644 622.525 331.374 622.16 329.75L618.236 312.251C618.166 311.94 618.186 311.617 618.294 311.316C618.402 311.015 618.593 310.748 618.848 310.543C619.103 310.338 619.411 310.204 619.74 310.154C620.068 310.105 620.405 310.142 620.713 310.261L638.055 316.997Z" fill="#4E017D"/>
<rect x="638" y="328" width="135" height="30" rx="15" fill="#4E017D"/>
<path d="M651.794 348.14C651.019 348.14 650.361 348 649.82 347.72C649.279 347.44 648.793 347.029 648.364 346.488L649.456 345.396C649.727 345.788 650.049 346.096 650.422 346.32C650.795 346.535 651.271 346.642 651.85 346.642C652.391 346.642 652.821 346.53 653.138 346.306C653.465 346.082 653.628 345.774 653.628 345.382C653.628 345.055 653.544 344.789 653.376 344.584C653.208 344.379 652.984 344.211 652.704 344.08C652.433 343.94 652.13 343.819 651.794 343.716C651.467 343.604 651.136 343.483 650.8 343.352C650.473 343.212 650.17 343.039 649.89 342.834C649.619 342.629 649.4 342.363 649.232 342.036C649.064 341.709 648.98 341.294 648.98 340.79C648.98 340.211 649.12 339.721 649.4 339.32C649.689 338.909 650.077 338.597 650.562 338.382C651.047 338.167 651.589 338.06 652.186 338.06C652.83 338.06 653.404 338.186 653.908 338.438C654.421 338.69 654.837 339.012 655.154 339.404L654.062 340.496C653.782 340.179 653.488 339.945 653.18 339.796C652.881 339.637 652.536 339.558 652.144 339.558C651.659 339.558 651.276 339.656 650.996 339.852C650.725 340.048 650.59 340.323 650.59 340.678C650.59 340.977 650.674 341.219 650.842 341.406C651.01 341.583 651.229 341.737 651.5 341.868C651.78 341.989 652.083 342.106 652.41 342.218C652.746 342.33 653.077 342.456 653.404 342.596C653.74 342.736 654.043 342.918 654.314 343.142C654.594 343.357 654.818 343.637 654.986 343.982C655.154 344.327 655.238 344.761 655.238 345.284C655.238 346.161 654.925 346.857 654.3 347.37C653.684 347.883 652.849 348.14 651.794 348.14ZM661.239 348V344.122C661.239 343.674 661.095 343.305 660.805 343.016C660.525 342.727 660.161 342.582 659.713 342.582C659.415 342.582 659.149 342.647 658.915 342.778C658.682 342.909 658.5 343.091 658.369 343.324C658.239 343.557 658.173 343.823 658.173 344.122L657.571 343.786C657.571 343.273 657.683 342.82 657.907 342.428C658.131 342.027 658.439 341.714 658.831 341.49C659.233 341.257 659.681 341.14 660.175 341.14C660.679 341.14 661.127 341.252 661.519 341.476C661.911 341.7 662.219 342.013 662.443 342.414C662.667 342.806 662.779 343.263 662.779 343.786V348H661.239ZM656.633 348V337.92H658.173V348H656.633ZM667.158 348.14C666.552 348.14 666.001 347.986 665.506 347.678C665.021 347.37 664.634 346.955 664.344 346.432C664.064 345.9 663.924 345.307 663.924 344.654C663.924 343.991 664.064 343.399 664.344 342.876C664.634 342.344 665.021 341.924 665.506 341.616C666.001 341.299 666.552 341.14 667.158 341.14C667.672 341.14 668.124 341.252 668.516 341.476C668.918 341.691 669.235 341.989 669.468 342.372C669.702 342.755 669.818 343.189 669.818 343.674V345.606C669.818 346.091 669.702 346.525 669.468 346.908C669.244 347.291 668.932 347.594 668.53 347.818C668.129 348.033 667.672 348.14 667.158 348.14ZM667.41 346.684C667.98 346.684 668.437 346.493 668.782 346.11C669.137 345.727 669.314 345.237 669.314 344.64C669.314 344.239 669.235 343.884 669.076 343.576C668.918 343.268 668.694 343.03 668.404 342.862C668.124 342.685 667.793 342.596 667.41 342.596C667.037 342.596 666.706 342.685 666.416 342.862C666.136 343.03 665.912 343.268 665.744 343.576C665.586 343.884 665.506 344.239 665.506 344.64C665.506 345.041 665.586 345.396 665.744 345.704C665.912 346.012 666.136 346.255 666.416 346.432C666.706 346.6 667.037 346.684 667.41 346.684ZM669.216 348V346.194L669.482 344.556L669.216 342.932V341.28H670.756V348H669.216ZM676.721 348L674.789 345.158L674.509 344.906L671.905 341.28H673.767L675.489 343.772L675.755 344.01L678.569 348H676.721ZM671.779 348L674.495 344.234L675.391 345.34L673.571 348H671.779ZM675.895 344.878L674.985 343.786L676.665 341.28H678.443L675.895 344.878ZM683.186 348.14C682.673 348.14 682.216 348.033 681.814 347.818C681.413 347.594 681.096 347.291 680.862 346.908C680.638 346.525 680.526 346.091 680.526 345.606V343.674C680.526 343.189 680.643 342.755 680.876 342.372C681.11 341.989 681.427 341.691 681.828 341.476C682.23 341.252 682.682 341.14 683.186 341.14C683.793 341.14 684.339 341.299 684.824 341.616C685.319 341.924 685.706 342.344 685.986 342.876C686.276 343.399 686.42 343.991 686.42 344.654C686.42 345.307 686.276 345.9 685.986 346.432C685.706 346.955 685.319 347.37 684.824 347.678C684.339 347.986 683.793 348.14 683.186 348.14ZM682.934 346.684C683.308 346.684 683.634 346.6 683.914 346.432C684.204 346.255 684.428 346.012 684.586 345.704C684.754 345.396 684.838 345.041 684.838 344.64C684.838 344.239 684.754 343.884 684.586 343.576C684.428 343.268 684.204 343.03 683.914 342.862C683.634 342.685 683.308 342.596 682.934 342.596C682.561 342.596 682.23 342.685 681.94 342.862C681.651 343.03 681.427 343.268 681.268 343.576C681.11 343.884 681.03 344.239 681.03 344.64C681.03 345.041 681.11 345.396 681.268 345.704C681.427 346.012 681.651 346.255 681.94 346.432C682.23 346.6 682.561 346.684 682.934 346.684ZM679.588 348V337.92H681.128V342.932L680.862 344.556L681.128 346.194V348H679.588ZM690.789 348.14C690.136 348.14 689.543 347.986 689.011 347.678C688.479 347.361 688.055 346.936 687.737 346.404C687.429 345.872 687.275 345.279 687.275 344.626C687.275 343.973 687.429 343.385 687.737 342.862C688.055 342.339 688.479 341.924 689.011 341.616C689.543 341.299 690.136 341.14 690.789 341.14C691.452 341.14 692.049 341.294 692.581 341.602C693.113 341.91 693.533 342.33 693.841 342.862C694.159 343.385 694.317 343.973 694.317 344.626C694.317 345.279 694.159 345.872 693.841 346.404C693.533 346.936 693.113 347.361 692.581 347.678C692.049 347.986 691.452 348.14 690.789 348.14ZM690.789 346.656C691.172 346.656 691.508 346.572 691.797 346.404C692.096 346.227 692.325 345.984 692.483 345.676C692.651 345.368 692.735 345.018 692.735 344.626C692.735 344.234 692.651 343.889 692.483 343.59C692.315 343.291 692.087 343.058 691.797 342.89C691.508 342.713 691.172 342.624 690.789 342.624C690.416 342.624 690.08 342.713 689.781 342.89C689.492 343.058 689.263 343.291 689.095 343.59C688.937 343.889 688.857 344.234 688.857 344.626C688.857 345.018 688.937 345.368 689.095 345.676C689.263 345.984 689.492 346.227 689.781 346.404C690.08 346.572 690.416 346.656 690.789 346.656ZM697.796 348.14C697.423 348.14 697.063 348.093 696.718 348C696.373 347.897 696.055 347.757 695.766 347.58C695.477 347.393 695.225 347.169 695.01 346.908L695.99 345.928C696.223 346.199 696.489 346.404 696.788 346.544C697.096 346.675 697.441 346.74 697.824 346.74C698.169 346.74 698.431 346.689 698.608 346.586C698.785 346.483 698.874 346.334 698.874 346.138C698.874 345.933 698.79 345.774 698.622 345.662C698.454 345.55 698.235 345.457 697.964 345.382C697.703 345.298 697.423 345.214 697.124 345.13C696.835 345.046 696.555 344.934 696.284 344.794C696.023 344.645 695.808 344.444 695.64 344.192C695.472 343.94 695.388 343.613 695.388 343.212C695.388 342.783 695.486 342.414 695.682 342.106C695.887 341.798 696.172 341.56 696.536 341.392C696.909 341.224 697.353 341.14 697.866 341.14C698.407 341.14 698.883 341.238 699.294 341.434C699.714 341.621 700.064 341.905 700.344 342.288L699.364 343.268C699.168 343.025 698.944 342.843 698.692 342.722C698.44 342.601 698.151 342.54 697.824 342.54C697.516 342.54 697.278 342.587 697.11 342.68C696.942 342.773 696.858 342.909 696.858 343.086C696.858 343.273 696.942 343.417 697.11 343.52C697.278 343.623 697.493 343.711 697.754 343.786C698.025 343.861 698.305 343.945 698.594 344.038C698.893 344.122 699.173 344.243 699.434 344.402C699.705 344.551 699.924 344.757 700.092 345.018C700.26 345.27 700.344 345.601 700.344 346.012C700.344 346.665 700.115 347.183 699.658 347.566C699.201 347.949 698.58 348.14 697.796 348.14ZM707.357 348.14C706.582 348.14 705.924 348 705.383 347.72C704.841 347.44 704.356 347.029 703.927 346.488L705.019 345.396C705.289 345.788 705.611 346.096 705.985 346.32C706.358 346.535 706.834 346.642 707.413 346.642C707.954 346.642 708.383 346.53 708.701 346.306C709.027 346.082 709.191 345.774 709.191 345.382C709.191 345.055 709.107 344.789 708.939 344.584C708.771 344.379 708.547 344.211 708.267 344.08C707.996 343.94 707.693 343.819 707.357 343.716C707.03 343.604 706.699 343.483 706.363 343.352C706.036 343.212 705.733 343.039 705.453 342.834C705.182 342.629 704.963 342.363 704.795 342.036C704.627 341.709 704.543 341.294 704.543 340.79C704.543 340.211 704.683 339.721 704.963 339.32C705.252 338.909 705.639 338.597 706.125 338.382C706.61 338.167 707.151 338.06 707.749 338.06C708.393 338.06 708.967 338.186 709.471 338.438C709.984 338.69 710.399 339.012 710.717 339.404L709.625 340.496C709.345 340.179 709.051 339.945 708.743 339.796C708.444 339.637 708.099 339.558 707.707 339.558C707.221 339.558 706.839 339.656 706.559 339.852C706.288 340.048 706.153 340.323 706.153 340.678C706.153 340.977 706.237 341.219 706.405 341.406C706.573 341.583 706.792 341.737 707.062 341.868C707.343 341.989 707.646 342.106 707.973 342.218C708.309 342.33 708.64 342.456 708.967 342.596C709.303 342.736 709.606 342.918 709.877 343.142C710.157 343.357 710.381 343.637 710.549 343.982C710.717 344.327 710.801 344.761 710.801 345.284C710.801 346.161 710.488 346.857 709.863 347.37C709.247 347.883 708.411 348.14 707.357 348.14ZM714.928 348.14C714.321 348.14 713.77 347.986 713.276 347.678C712.79 347.37 712.403 346.955 712.114 346.432C711.834 345.9 711.694 345.307 711.694 344.654C711.694 343.991 711.834 343.399 712.114 342.876C712.403 342.344 712.79 341.924 713.276 341.616C713.77 341.299 714.321 341.14 714.928 341.14C715.441 341.14 715.894 341.252 716.286 341.476C716.687 341.691 717.004 341.989 717.238 342.372C717.471 342.755 717.588 343.189 717.588 343.674V345.606C717.588 346.091 717.471 346.525 717.238 346.908C717.014 347.291 716.701 347.594 716.3 347.818C715.898 348.033 715.441 348.14 714.928 348.14ZM715.18 346.684C715.749 346.684 716.206 346.493 716.552 346.11C716.906 345.727 717.084 345.237 717.084 344.64C717.084 344.239 717.004 343.884 716.846 343.576C716.687 343.268 716.463 343.03 716.174 342.862C715.894 342.685 715.562 342.596 715.18 342.596C714.806 342.596 714.475 342.685 714.186 342.862C713.906 343.03 713.682 343.268 713.514 343.576C713.355 343.884 713.276 344.239 713.276 344.64C713.276 345.041 713.355 345.396 713.514 345.704C713.682 346.012 713.906 346.255 714.186 346.432C714.475 346.6 714.806 346.684 715.18 346.684ZM716.986 348V346.194L717.252 344.556L716.986 342.932V341.28H718.526V348H716.986ZM720.235 348V341.28H721.775V348H720.235ZM724.701 348V343.996C724.701 343.548 724.561 343.203 724.281 342.96C724.001 342.708 723.656 342.582 723.245 342.582C722.965 342.582 722.713 342.638 722.489 342.75C722.274 342.862 722.102 343.025 721.971 343.24C721.84 343.445 721.775 343.697 721.775 343.996L721.173 343.66C721.173 343.147 721.285 342.703 721.509 342.33C721.733 341.957 722.036 341.667 722.419 341.462C722.802 341.247 723.231 341.14 723.707 341.14C724.183 341.14 724.612 341.243 724.995 341.448C725.378 341.653 725.681 341.943 725.905 342.316C726.129 342.689 726.241 343.137 726.241 343.66V348H724.701ZM729.167 348V343.996C729.167 343.548 729.027 343.203 728.747 342.96C728.467 342.708 728.122 342.582 727.711 342.582C727.44 342.582 727.193 342.638 726.969 342.75C726.745 342.862 726.568 343.025 726.437 343.24C726.306 343.445 726.241 343.697 726.241 343.996L725.373 343.66C725.42 343.147 725.569 342.703 725.821 342.33C726.073 341.957 726.395 341.667 726.787 341.462C727.188 341.247 727.627 341.14 728.103 341.14C728.588 341.14 729.027 341.243 729.419 341.448C729.811 341.653 730.124 341.943 730.357 342.316C730.59 342.689 730.707 343.137 730.707 343.66V348H729.167ZM735.107 348.14C734.501 348.14 733.95 347.986 733.455 347.678C732.97 347.37 732.583 346.955 732.293 346.432C732.013 345.9 731.873 345.307 731.873 344.654C731.873 343.991 732.013 343.399 732.293 342.876C732.583 342.344 732.97 341.924 733.455 341.616C733.95 341.299 734.501 341.14 735.107 341.14C735.621 341.14 736.073 341.252 736.465 341.476C736.867 341.691 737.184 341.989 737.417 342.372C737.651 342.755 737.767 343.189 737.767 343.674V345.606C737.767 346.091 737.651 346.525 737.417 346.908C737.193 347.291 736.881 347.594 736.479 347.818C736.078 348.033 735.621 348.14 735.107 348.14ZM735.359 346.684C735.929 346.684 736.386 346.493 736.731 346.11C737.086 345.727 737.263 345.237 737.263 344.64C737.263 344.239 737.184 343.884 737.025 343.576C736.867 343.268 736.643 343.03 736.353 342.862C736.073 342.685 735.742 342.596 735.359 342.596C734.986 342.596 734.655 342.685 734.365 342.862C734.085 343.03 733.861 343.268 733.693 343.576C733.535 343.884 733.455 344.239 733.455 344.64C733.455 345.041 733.535 345.396 733.693 345.704C733.861 346.012 734.085 346.255 734.365 346.432C734.655 346.6 734.986 346.684 735.359 346.684ZM737.165 348V346.194L737.431 344.556L737.165 342.932V341.28H738.705V348H737.165ZM743.229 348.14C742.622 348.14 742.071 347.986 741.577 347.678C741.091 347.37 740.704 346.955 740.415 346.432C740.135 345.9 739.995 345.307 739.995 344.654C739.995 343.991 740.135 343.399 740.415 342.876C740.704 342.344 741.091 341.924 741.577 341.616C742.071 341.299 742.622 341.14 743.229 341.14C743.742 341.14 744.195 341.252 744.587 341.476C744.988 341.691 745.305 341.989 745.539 342.372C745.772 342.755 745.889 343.189 745.889 343.674V345.606C745.889 346.091 745.772 346.525 745.539 346.908C745.315 347.291 745.002 347.594 744.601 347.818C744.199 348.033 743.742 348.14 743.229 348.14ZM743.481 346.684C743.863 346.684 744.195 346.6 744.475 346.432C744.764 346.255 744.988 346.012 745.147 345.704C745.305 345.396 745.385 345.041 745.385 344.64C745.385 344.239 745.305 343.884 745.147 343.576C744.988 343.268 744.764 343.03 744.475 342.862C744.195 342.685 743.863 342.596 743.481 342.596C743.107 342.596 742.776 342.685 742.487 342.862C742.207 343.03 741.983 343.268 741.815 343.576C741.656 343.884 741.577 344.239 741.577 344.64C741.577 345.041 741.656 345.396 741.815 345.704C741.983 346.012 742.207 346.255 742.487 346.432C742.776 346.6 743.107 346.684 743.481 346.684ZM746.827 348H745.287V346.194L745.553 344.556L745.287 342.932V337.92H746.827V348ZM751.616 348.14C750.962 348.14 750.37 347.986 749.838 347.678C749.306 347.361 748.881 346.936 748.564 346.404C748.256 345.872 748.102 345.279 748.102 344.626C748.102 343.973 748.256 343.385 748.564 342.862C748.881 342.339 749.306 341.924 749.838 341.616C750.37 341.299 750.962 341.14 751.616 341.14C752.278 341.14 752.876 341.294 753.408 341.602C753.94 341.91 754.36 342.33 754.668 342.862C754.985 343.385 755.144 343.973 755.144 344.626C755.144 345.279 754.985 345.872 754.668 346.404C754.36 346.936 753.94 347.361 753.408 347.678C752.876 347.986 752.278 348.14 751.616 348.14ZM751.616 346.656C751.998 346.656 752.334 346.572 752.624 346.404C752.922 346.227 753.151 345.984 753.31 345.676C753.478 345.368 753.562 345.018 753.562 344.626C753.562 344.234 753.478 343.889 753.31 343.59C753.142 343.291 752.913 343.058 752.624 342.89C752.334 342.713 751.998 342.624 751.616 342.624C751.242 342.624 750.906 342.713 750.608 342.89C750.318 343.058 750.09 343.291 749.922 343.59C749.763 343.889 749.684 344.234 749.684 344.626C749.684 345.018 749.763 345.368 749.922 345.676C750.09 345.984 750.318 346.227 750.608 346.404C750.906 346.572 751.242 346.656 751.616 346.656ZM758.46 348L755.394 341.28H757.102L759.44 346.754H758.432L760.784 341.28H762.422L759.356 348H758.46Z" fill="white"/>
<path d="M615.055 94.9972C616.664 95.6222 616.541 97.8399 614.871 98.2988L606.442 100.616L602.592 108.151C601.83 109.644 599.525 109.374 599.16 107.75L595.236 90.2513C595.166 89.9403 595.186 89.6169 595.294 89.3159C595.402 89.0149 595.593 88.7476 595.848 88.543C596.103 88.3383 596.411 88.2039 596.74 88.1542C597.068 88.1046 597.405 88.1416 597.713 88.2612L615.055 94.9972Z" fill="#FFD02F"/>
<rect x="615" y="106" width="127" height="30" rx="15" fill="#FFD02F"/>
<path d="M628.794 126.14C628.019 126.14 627.361 126 626.82 125.72C626.279 125.44 625.793 125.029 625.364 124.488L626.456 123.396C626.727 123.788 627.049 124.096 627.422 124.32C627.795 124.535 628.271 124.642 628.85 124.642C629.391 124.642 629.821 124.53 630.138 124.306C630.465 124.082 630.628 123.774 630.628 123.382C630.628 123.055 630.544 122.789 630.376 122.584C630.208 122.379 629.984 122.211 629.704 122.08C629.433 121.94 629.13 121.819 628.794 121.716C628.467 121.604 628.136 121.483 627.8 121.352C627.473 121.212 627.17 121.039 626.89 120.834C626.619 120.629 626.4 120.363 626.232 120.036C626.064 119.709 625.98 119.294 625.98 118.79C625.98 118.211 626.12 117.721 626.4 117.32C626.689 116.909 627.077 116.597 627.562 116.382C628.047 116.167 628.589 116.06 629.186 116.06C629.83 116.06 630.404 116.186 630.908 116.438C631.421 116.69 631.837 117.012 632.154 117.404L631.062 118.496C630.782 118.179 630.488 117.945 630.18 117.796C629.881 117.637 629.536 117.558 629.144 117.558C628.659 117.558 628.276 117.656 627.996 117.852C627.725 118.048 627.59 118.323 627.59 118.678C627.59 118.977 627.674 119.219 627.842 119.406C628.01 119.583 628.229 119.737 628.5 119.868C628.78 119.989 629.083 120.106 629.41 120.218C629.746 120.33 630.077 120.456 630.404 120.596C630.74 120.736 631.043 120.918 631.314 121.142C631.594 121.357 631.818 121.637 631.986 121.982C632.154 122.327 632.238 122.761 632.238 123.284C632.238 124.161 631.925 124.857 631.3 125.37C630.684 125.883 629.849 126.14 628.794 126.14ZM638.239 126V122.122C638.239 121.674 638.095 121.305 637.805 121.016C637.525 120.727 637.161 120.582 636.713 120.582C636.415 120.582 636.149 120.647 635.915 120.778C635.682 120.909 635.5 121.091 635.369 121.324C635.239 121.557 635.173 121.823 635.173 122.122L634.571 121.786C634.571 121.273 634.683 120.82 634.907 120.428C635.131 120.027 635.439 119.714 635.831 119.49C636.233 119.257 636.681 119.14 637.175 119.14C637.679 119.14 638.127 119.252 638.519 119.476C638.911 119.7 639.219 120.013 639.443 120.414C639.667 120.806 639.779 121.263 639.779 121.786V126H638.239ZM633.633 126V115.92H635.173V126H633.633ZM644.158 126.14C643.552 126.14 643.001 125.986 642.506 125.678C642.021 125.37 641.634 124.955 641.344 124.432C641.064 123.9 640.924 123.307 640.924 122.654C640.924 121.991 641.064 121.399 641.344 120.876C641.634 120.344 642.021 119.924 642.506 119.616C643.001 119.299 643.552 119.14 644.158 119.14C644.672 119.14 645.124 119.252 645.516 119.476C645.918 119.691 646.235 119.989 646.468 120.372C646.702 120.755 646.818 121.189 646.818 121.674V123.606C646.818 124.091 646.702 124.525 646.468 124.908C646.244 125.291 645.932 125.594 645.53 125.818C645.129 126.033 644.672 126.14 644.158 126.14ZM644.41 124.684C644.98 124.684 645.437 124.493 645.782 124.11C646.137 123.727 646.314 123.237 646.314 122.64C646.314 122.239 646.235 121.884 646.076 121.576C645.918 121.268 645.694 121.03 645.404 120.862C645.124 120.685 644.793 120.596 644.41 120.596C644.037 120.596 643.706 120.685 643.416 120.862C643.136 121.03 642.912 121.268 642.744 121.576C642.586 121.884 642.506 122.239 642.506 122.64C642.506 123.041 642.586 123.396 642.744 123.704C642.912 124.012 643.136 124.255 643.416 124.432C643.706 124.6 644.037 124.684 644.41 124.684ZM646.216 126V124.194L646.482 122.556L646.216 120.932V119.28H647.756V126H646.216ZM653.721 126L651.789 123.158L651.509 122.906L648.905 119.28H650.767L652.489 121.772L652.755 122.01L655.569 126H653.721ZM648.779 126L651.495 122.234L652.391 123.34L650.571 126H648.779ZM652.895 122.878L651.985 121.786L653.665 119.28H655.443L652.895 122.878ZM656.588 126V119.28H658.128V126H656.588ZM658.128 122.262L657.596 121.996C657.596 121.147 657.783 120.461 658.156 119.938C658.539 119.406 659.113 119.14 659.878 119.14C660.214 119.14 660.518 119.201 660.788 119.322C661.059 119.443 661.311 119.639 661.544 119.91L660.536 120.946C660.415 120.815 660.28 120.722 660.13 120.666C659.981 120.61 659.808 120.582 659.612 120.582C659.183 120.582 658.828 120.717 658.548 120.988C658.268 121.259 658.128 121.683 658.128 122.262ZM662.304 126V119.28H663.844V126H662.304ZM663.074 118.048C662.812 118.048 662.593 117.959 662.416 117.782C662.248 117.605 662.164 117.385 662.164 117.124C662.164 116.863 662.248 116.643 662.416 116.466C662.593 116.289 662.812 116.2 663.074 116.2C663.344 116.2 663.564 116.289 663.732 116.466C663.9 116.643 663.984 116.863 663.984 117.124C663.984 117.385 663.9 117.605 663.732 117.782C663.564 117.959 663.344 118.048 663.074 118.048ZM667.741 126.07L664.871 119.28H666.565L668.525 124.264H668.035L670.107 119.28H671.815L668.693 126.07H667.741ZM665.739 128.8L667.825 124.502L668.693 126.07L667.447 128.8H665.739ZM675.555 126.14C674.902 126.14 674.309 125.986 673.777 125.678C673.245 125.361 672.82 124.936 672.503 124.404C672.195 123.872 672.041 123.279 672.041 122.626C672.041 121.973 672.195 121.385 672.503 120.862C672.82 120.339 673.245 119.924 673.777 119.616C674.309 119.299 674.902 119.14 675.555 119.14C676.218 119.14 676.815 119.294 677.347 119.602C677.879 119.91 678.299 120.33 678.607 120.862C678.924 121.385 679.083 121.973 679.083 122.626C679.083 123.279 678.924 123.872 678.607 124.404C678.299 124.936 677.879 125.361 677.347 125.678C676.815 125.986 676.218 126.14 675.555 126.14ZM675.555 124.656C675.938 124.656 676.274 124.572 676.563 124.404C676.862 124.227 677.09 123.984 677.249 123.676C677.417 123.368 677.501 123.018 677.501 122.626C677.501 122.234 677.417 121.889 677.249 121.59C677.081 121.291 676.852 121.058 676.563 120.89C676.274 120.713 675.938 120.624 675.555 120.624C675.182 120.624 674.846 120.713 674.547 120.89C674.258 121.058 674.029 121.291 673.861 121.59C673.702 121.889 673.623 122.234 673.623 122.626C673.623 123.018 673.702 123.368 673.861 123.676C674.029 123.984 674.258 124.227 674.547 124.404C674.846 124.572 675.182 124.656 675.555 124.656ZM680.364 126V119.28H681.904V126H680.364ZM681.904 122.262L681.372 121.996C681.372 121.147 681.558 120.461 681.932 119.938C682.314 119.406 682.888 119.14 683.654 119.14C683.99 119.14 684.293 119.201 684.564 119.322C684.834 119.443 685.086 119.639 685.32 119.91L684.312 120.946C684.19 120.815 684.055 120.722 683.906 120.666C683.756 120.61 683.584 120.582 683.388 120.582C682.958 120.582 682.604 120.717 682.324 120.988C682.044 121.259 681.904 121.683 681.904 122.262ZM693.832 126.14C693.132 126.14 692.478 126.009 691.872 125.748C691.265 125.487 690.733 125.127 690.276 124.67C689.818 124.203 689.459 123.667 689.198 123.06C688.946 122.444 688.82 121.786 688.82 121.086C688.82 120.386 688.946 119.733 689.198 119.126C689.459 118.519 689.814 117.987 690.262 117.53C690.719 117.063 691.246 116.704 691.844 116.452C692.45 116.191 693.104 116.06 693.804 116.06C694.504 116.06 695.152 116.191 695.75 116.452C696.356 116.704 696.888 117.063 697.346 117.53C697.803 117.987 698.158 118.524 698.41 119.14C698.671 119.747 698.802 120.4 698.802 121.1C698.802 121.8 698.671 122.458 698.41 123.074C698.158 123.681 697.803 124.213 697.346 124.67C696.898 125.127 696.37 125.487 695.764 125.748C695.166 126.009 694.522 126.14 693.832 126.14ZM693.804 124.6C694.466 124.6 695.045 124.451 695.54 124.152C696.044 123.853 696.436 123.443 696.716 122.92C697.005 122.388 697.15 121.777 697.15 121.086C697.15 120.573 697.066 120.106 696.898 119.686C696.739 119.257 696.51 118.888 696.212 118.58C695.913 118.263 695.558 118.02 695.148 117.852C694.746 117.684 694.298 117.6 693.804 117.6C693.15 117.6 692.572 117.749 692.068 118.048C691.573 118.337 691.181 118.743 690.892 119.266C690.612 119.789 690.472 120.395 690.472 121.086C690.472 121.599 690.551 122.075 690.71 122.514C690.878 122.943 691.106 123.312 691.396 123.62C691.694 123.928 692.049 124.171 692.46 124.348C692.87 124.516 693.318 124.6 693.804 124.6ZM700.229 126V119.28H701.769V126H700.229ZM701.769 122.262L701.237 121.996C701.237 121.147 701.424 120.461 701.797 119.938C702.18 119.406 702.754 119.14 703.519 119.14C703.855 119.14 704.158 119.201 704.429 119.322C704.7 119.443 704.952 119.639 705.185 119.91L704.177 120.946C704.056 120.815 703.92 120.722 703.771 120.666C703.622 120.61 703.449 120.582 703.253 120.582C702.824 120.582 702.469 120.717 702.189 120.988C701.909 121.259 701.769 121.683 701.769 122.262ZM705.944 126V119.28H707.484V126H705.944ZM706.714 118.048C706.453 118.048 706.234 117.959 706.056 117.782C705.888 117.605 705.804 117.385 705.804 117.124C705.804 116.863 705.888 116.643 706.056 116.466C706.234 116.289 706.453 116.2 706.714 116.2C706.985 116.2 707.204 116.289 707.372 116.466C707.54 116.643 707.624 116.863 707.624 117.124C707.624 117.385 707.54 117.605 707.372 117.782C707.204 117.959 706.985 118.048 706.714 118.048ZM712.809 126.14C712.296 126.14 711.839 126.033 711.437 125.818C711.036 125.594 710.719 125.291 710.485 124.908C710.261 124.525 710.149 124.091 710.149 123.606V121.674C710.149 121.189 710.266 120.755 710.499 120.372C710.733 119.989 711.05 119.691 711.451 119.476C711.853 119.252 712.305 119.14 712.809 119.14C713.416 119.14 713.962 119.299 714.447 119.616C714.942 119.924 715.329 120.344 715.609 120.876C715.899 121.399 716.043 121.991 716.043 122.654C716.043 123.307 715.899 123.9 715.609 124.432C715.329 124.955 714.942 125.37 714.447 125.678C713.962 125.986 713.416 126.14 712.809 126.14ZM712.557 124.684C712.931 124.684 713.257 124.6 713.537 124.432C713.827 124.255 714.051 124.012 714.209 123.704C714.377 123.396 714.461 123.041 714.461 122.64C714.461 122.239 714.377 121.884 714.209 121.576C714.051 121.268 713.827 121.03 713.537 120.862C713.257 120.685 712.931 120.596 712.557 120.596C712.184 120.596 711.853 120.685 711.563 120.862C711.274 121.03 711.05 121.268 710.891 121.576C710.733 121.884 710.653 122.239 710.653 122.64C710.653 123.041 710.733 123.396 710.891 123.704C711.05 124.012 711.274 124.255 711.563 124.432C711.853 124.6 712.184 124.684 712.557 124.684ZM709.211 128.8V119.28H710.751V121.086L710.485 122.724L710.751 124.348V128.8H709.211ZM720.413 126.14C719.759 126.14 719.167 125.986 718.635 125.678C718.103 125.361 717.678 124.936 717.361 124.404C717.053 123.872 716.899 123.279 716.899 122.626C716.899 121.973 717.053 121.385 717.361 120.862C717.678 120.339 718.103 119.924 718.635 119.616C719.167 119.299 719.759 119.14 720.413 119.14C721.075 119.14 721.673 119.294 722.205 119.602C722.737 119.91 723.157 120.33 723.465 120.862C723.782 121.385 723.941 121.973 723.941 122.626C723.941 123.279 723.782 123.872 723.465 124.404C723.157 124.936 722.737 125.361 722.205 125.678C721.673 125.986 721.075 126.14 720.413 126.14ZM720.413 124.656C720.795 124.656 721.131 124.572 721.421 124.404C721.719 124.227 721.948 123.984 722.107 123.676C722.275 123.368 722.359 123.018 722.359 122.626C722.359 122.234 722.275 121.889 722.107 121.59C721.939 121.291 721.71 121.058 721.421 120.89C721.131 120.713 720.795 120.624 720.413 120.624C720.039 120.624 719.703 120.713 719.405 120.89C719.115 121.058 718.887 121.291 718.719 121.59C718.56 121.889 718.481 122.234 718.481 122.626C718.481 123.018 718.56 123.368 718.719 123.676C718.887 123.984 719.115 124.227 719.405 124.404C719.703 124.572 720.039 124.656 720.413 124.656ZM727.257 126L724.191 119.28H725.899L728.237 124.754H727.229L729.581 119.28H731.219L728.153 126H727.257Z" fill="#121212"/>
<path d="M737.055 237.997C738.664 238.622 738.541 240.84 736.871 241.299L728.442 243.616L724.592 251.151C723.83 252.644 721.525 252.374 721.16 250.75L717.236 233.251C717.166 232.94 717.186 232.617 717.294 232.316C717.402 232.015 717.593 231.748 717.848 231.543C718.103 231.338 718.411 231.204 718.74 231.154C719.068 231.105 719.405 231.142 719.713 231.261L737.055 237.997Z" fill="#FF3D00"/>
<rect x="737" y="249" width="148" height="30" rx="15" fill="#FF3D00"/>
<path d="M749.17 269V267.53H751.746C752.418 267.53 753.006 267.385 753.51 267.096C754.023 266.807 754.42 266.405 754.7 265.892C754.989 265.369 755.134 264.767 755.134 264.086C755.134 263.414 754.989 262.821 754.7 262.308C754.411 261.795 754.009 261.393 753.496 261.104C752.992 260.815 752.409 260.67 751.746 260.67H749.17V259.2H751.788C752.497 259.2 753.155 259.326 753.762 259.578C754.369 259.821 754.896 260.166 755.344 260.614C755.801 261.053 756.156 261.571 756.408 262.168C756.66 262.756 756.786 263.4 756.786 264.1C756.786 264.791 756.66 265.435 756.408 266.032C756.156 266.629 755.806 267.152 755.358 267.6C754.91 268.039 754.383 268.384 753.776 268.636C753.169 268.879 752.516 269 751.816 269H749.17ZM748.064 269V259.2H749.674V269H748.064ZM758.231 269V262.28H759.771V269H758.231ZM759.001 261.048C758.74 261.048 758.521 260.959 758.343 260.782C758.175 260.605 758.091 260.385 758.091 260.124C758.091 259.863 758.175 259.643 758.343 259.466C758.521 259.289 758.74 259.2 759.001 259.2C759.272 259.2 759.491 259.289 759.659 259.466C759.827 259.643 759.911 259.863 759.911 260.124C759.911 260.385 759.827 260.605 759.659 260.782C759.491 260.959 759.272 261.048 759.001 261.048ZM763.669 269.07L760.799 262.28H762.493L764.453 267.264H763.963L766.035 262.28H767.743L764.621 269.07H763.669ZM761.667 271.8L763.753 267.502L764.621 269.07L763.375 271.8H761.667ZM771.483 269.14C770.829 269.14 770.237 268.986 769.705 268.678C769.173 268.361 768.748 267.936 768.431 267.404C768.123 266.872 767.969 266.279 767.969 265.626C767.969 264.973 768.123 264.385 768.431 263.862C768.748 263.339 769.173 262.924 769.705 262.616C770.237 262.299 770.829 262.14 771.483 262.14C772.145 262.14 772.743 262.294 773.275 262.602C773.807 262.91 774.227 263.33 774.535 263.862C774.852 264.385 775.011 264.973 775.011 265.626C775.011 266.279 774.852 266.872 774.535 267.404C774.227 267.936 773.807 268.361 773.275 268.678C772.743 268.986 772.145 269.14 771.483 269.14ZM771.483 267.656C771.865 267.656 772.201 267.572 772.491 267.404C772.789 267.227 773.018 266.984 773.177 266.676C773.345 266.368 773.429 266.018 773.429 265.626C773.429 265.234 773.345 264.889 773.177 264.59C773.009 264.291 772.78 264.058 772.491 263.89C772.201 263.713 771.865 263.624 771.483 263.624C771.109 263.624 770.773 263.713 770.475 263.89C770.185 264.058 769.957 264.291 769.789 264.59C769.63 264.889 769.551 265.234 769.551 265.626C769.551 266.018 769.63 266.368 769.789 266.676C769.957 266.984 770.185 267.227 770.475 267.404C770.773 267.572 771.109 267.656 771.483 267.656ZM776.292 269V262.28H777.832V269H776.292ZM777.832 265.262L777.3 264.996C777.3 264.147 777.486 263.461 777.86 262.938C778.242 262.406 778.816 262.14 779.582 262.14C779.918 262.14 780.221 262.201 780.492 262.322C780.762 262.443 781.014 262.639 781.248 262.91L780.24 263.946C780.118 263.815 779.983 263.722 779.834 263.666C779.684 263.61 779.512 263.582 779.316 263.582C778.886 263.582 778.532 263.717 778.252 263.988C777.972 264.259 777.832 264.683 777.832 265.262ZM785.44 269.14C784.927 269.14 784.47 269.033 784.068 268.818C783.667 268.594 783.35 268.291 783.116 267.908C782.892 267.525 782.78 267.091 782.78 266.606V264.674C782.78 264.189 782.897 263.755 783.13 263.372C783.364 262.989 783.681 262.691 784.082 262.476C784.484 262.252 784.936 262.14 785.44 262.14C786.047 262.14 786.593 262.299 787.078 262.616C787.573 262.924 787.96 263.344 788.24 263.876C788.53 264.399 788.674 264.991 788.674 265.654C788.674 266.307 788.53 266.9 788.24 267.432C787.96 267.955 787.573 268.37 787.078 268.678C786.593 268.986 786.047 269.14 785.44 269.14ZM785.188 267.684C785.562 267.684 785.888 267.6 786.168 267.432C786.458 267.255 786.682 267.012 786.84 266.704C787.008 266.396 787.092 266.041 787.092 265.64C787.092 265.239 787.008 264.884 786.84 264.576C786.682 264.268 786.458 264.03 786.168 263.862C785.888 263.685 785.562 263.596 785.188 263.596C784.815 263.596 784.484 263.685 784.194 263.862C783.905 264.03 783.681 264.268 783.522 264.576C783.364 264.884 783.284 265.239 783.284 265.64C783.284 266.041 783.364 266.396 783.522 266.704C783.681 267.012 783.905 267.255 784.194 267.432C784.484 267.6 784.815 267.684 785.188 267.684ZM781.842 269V258.92H783.382V263.932L783.116 265.556L783.382 267.194V269H781.842ZM793.085 269.14C792.413 269.14 791.807 268.991 791.265 268.692C790.733 268.384 790.309 267.964 789.991 267.432C789.683 266.9 789.529 266.303 789.529 265.64C789.529 264.977 789.683 264.385 789.991 263.862C790.299 263.33 790.715 262.91 791.237 262.602C791.769 262.294 792.357 262.14 793.001 262.14C793.627 262.14 794.177 262.285 794.653 262.574C795.139 262.863 795.517 263.26 795.787 263.764C796.067 264.268 796.207 264.842 796.207 265.486C796.207 265.598 796.198 265.715 796.179 265.836C796.17 265.948 796.151 266.074 796.123 266.214H790.607V264.954H795.325L794.751 265.458C794.733 265.047 794.653 264.702 794.513 264.422C794.373 264.142 794.173 263.927 793.911 263.778C793.659 263.629 793.347 263.554 792.973 263.554C792.581 263.554 792.241 263.638 791.951 263.806C791.662 263.974 791.438 264.212 791.279 264.52C791.121 264.819 791.041 265.178 791.041 265.598C791.041 266.018 791.125 266.387 791.293 266.704C791.461 267.021 791.699 267.269 792.007 267.446C792.315 267.614 792.67 267.698 793.071 267.698C793.417 267.698 793.734 267.637 794.023 267.516C794.322 267.395 794.574 267.217 794.779 266.984L795.759 267.978C795.433 268.361 795.036 268.65 794.569 268.846C794.103 269.042 793.608 269.14 793.085 269.14ZM801.712 269L798.87 265.57L801.698 262.28H803.532L800.284 265.976L800.354 265.094L803.672 269H801.712ZM797.442 269V258.92H798.982V269H797.442ZM810.275 265.08L806.453 259.2H808.315L811.297 263.89H810.429L813.411 259.2H815.245L811.395 265.08H810.275ZM810.051 269V264.072H811.661V269H810.051ZM817.85 269.14C817.281 269.14 816.772 269.014 816.324 268.762C815.886 268.51 815.54 268.165 815.288 267.726C815.046 267.278 814.924 266.765 814.924 266.186V262.28H816.464V266.116C816.464 266.443 816.516 266.723 816.618 266.956C816.73 267.18 816.889 267.353 817.094 267.474C817.309 267.595 817.561 267.656 817.85 267.656C818.298 267.656 818.639 267.525 818.872 267.264C819.115 266.993 819.236 266.611 819.236 266.116V262.28H820.776V266.186C820.776 266.774 820.65 267.292 820.398 267.74C820.156 268.179 819.815 268.524 819.376 268.776C818.938 269.019 818.429 269.14 817.85 269.14ZM824.523 269.14C824.149 269.14 823.79 269.093 823.445 269C823.099 268.897 822.782 268.757 822.493 268.58C822.203 268.393 821.951 268.169 821.737 267.908L822.717 266.928C822.95 267.199 823.216 267.404 823.515 267.544C823.823 267.675 824.168 267.74 824.551 267.74C824.896 267.74 825.157 267.689 825.335 267.586C825.512 267.483 825.601 267.334 825.601 267.138C825.601 266.933 825.517 266.774 825.349 266.662C825.181 266.55 824.961 266.457 824.691 266.382C824.429 266.298 824.149 266.214 823.851 266.13C823.561 266.046 823.281 265.934 823.011 265.794C822.749 265.645 822.535 265.444 822.367 265.192C822.199 264.94 822.115 264.613 822.115 264.212C822.115 263.783 822.213 263.414 822.409 263.106C822.614 262.798 822.899 262.56 823.263 262.392C823.636 262.224 824.079 262.14 824.593 262.14C825.134 262.14 825.61 262.238 826.021 262.434C826.441 262.621 826.791 262.905 827.071 263.288L826.091 264.268C825.895 264.025 825.671 263.843 825.419 263.722C825.167 263.601 824.877 263.54 824.551 263.54C824.243 263.54 824.005 263.587 823.837 263.68C823.669 263.773 823.585 263.909 823.585 264.086C823.585 264.273 823.669 264.417 823.837 264.52C824.005 264.623 824.219 264.711 824.481 264.786C824.751 264.861 825.031 264.945 825.321 265.038C825.619 265.122 825.899 265.243 826.161 265.402C826.431 265.551 826.651 265.757 826.819 266.018C826.987 266.27 827.071 266.601 827.071 267.012C827.071 267.665 826.842 268.183 826.385 268.566C825.927 268.949 825.307 269.14 824.523 269.14ZM831.098 269.14C830.529 269.14 830.02 269.014 829.572 268.762C829.134 268.51 828.788 268.165 828.536 267.726C828.294 267.278 828.172 266.765 828.172 266.186V262.28H829.712V266.116C829.712 266.443 829.764 266.723 829.866 266.956C829.978 267.18 830.137 267.353 830.342 267.474C830.557 267.595 830.809 267.656 831.098 267.656C831.546 267.656 831.887 267.525 832.12 267.264C832.363 266.993 832.484 266.611 832.484 266.116V262.28H834.024V266.186C834.024 266.774 833.898 267.292 833.646 267.74C833.404 268.179 833.063 268.524 832.624 268.776C832.186 269.019 831.677 269.14 831.098 269.14ZM836.497 269V261.398C836.497 260.885 836.609 260.432 836.833 260.04C837.066 259.648 837.383 259.34 837.785 259.116C838.195 258.892 838.667 258.78 839.199 258.78C839.609 258.78 839.959 258.85 840.249 258.99C840.538 259.13 840.809 259.331 841.061 259.592L840.067 260.586C839.955 260.474 839.833 260.385 839.703 260.32C839.572 260.255 839.404 260.222 839.199 260.222C838.825 260.222 838.536 260.325 838.331 260.53C838.135 260.726 838.037 261.011 838.037 261.384V269H836.497ZM834.887 263.68V262.28H840.067V263.68H834.887ZM840.547 271.94C840.071 271.94 839.684 271.865 839.385 271.716C839.077 271.567 838.797 271.347 838.545 271.058L839.539 270.064C839.651 270.213 839.777 270.321 839.917 270.386C840.057 270.461 840.23 270.498 840.435 270.498C840.687 270.498 840.902 270.419 841.079 270.26C841.266 270.111 841.359 269.887 841.359 269.588V262.28H842.899V269.574C842.899 270.087 842.787 270.517 842.563 270.862C842.349 271.217 842.064 271.483 841.709 271.66C841.355 271.847 840.967 271.94 840.547 271.94ZM842.157 261.048C841.896 261.048 841.677 260.959 841.499 260.782C841.331 260.605 841.247 260.385 841.247 260.124C841.247 259.863 841.331 259.643 841.499 259.466C841.677 259.289 841.896 259.2 842.157 259.2C842.428 259.2 842.647 259.289 842.815 259.466C842.983 259.643 843.067 259.863 843.067 260.124C843.067 260.385 842.983 260.605 842.815 260.782C842.647 260.959 842.428 261.048 842.157 261.048ZM847.69 269.14C847.037 269.14 846.444 268.986 845.912 268.678C845.38 268.361 844.955 267.936 844.638 267.404C844.33 266.872 844.176 266.279 844.176 265.626C844.176 264.973 844.33 264.385 844.638 263.862C844.955 263.339 845.38 262.924 845.912 262.616C846.444 262.299 847.037 262.14 847.69 262.14C848.353 262.14 848.95 262.294 849.482 262.602C850.014 262.91 850.434 263.33 850.742 263.862C851.059 264.385 851.218 264.973 851.218 265.626C851.218 266.279 851.059 266.872 850.742 267.404C850.434 267.936 850.014 268.361 849.482 268.678C848.95 268.986 848.353 269.14 847.69 269.14ZM847.69 267.656C848.073 267.656 848.409 267.572 848.698 267.404C848.997 267.227 849.225 266.984 849.384 266.676C849.552 266.368 849.636 266.018 849.636 265.626C849.636 265.234 849.552 264.889 849.384 264.59C849.216 264.291 848.987 264.058 848.698 263.89C848.409 263.713 848.073 263.624 847.69 263.624C847.317 263.624 846.981 263.713 846.682 263.89C846.393 264.058 846.164 264.291 845.996 264.59C845.837 264.889 845.758 265.234 845.758 265.626C845.758 266.018 845.837 266.368 845.996 266.676C846.164 266.984 846.393 267.227 846.682 267.404C846.981 267.572 847.317 267.656 847.69 267.656ZM857.105 269V265.122C857.105 264.674 856.96 264.305 856.671 264.016C856.391 263.727 856.027 263.582 855.579 263.582C855.28 263.582 855.014 263.647 854.781 263.778C854.547 263.909 854.365 264.091 854.235 264.324C854.104 264.557 854.039 264.823 854.039 265.122L853.437 264.786C853.437 264.273 853.549 263.82 853.773 263.428C853.997 263.027 854.305 262.714 854.697 262.49C855.098 262.257 855.546 262.14 856.041 262.14C856.545 262.14 856.993 262.271 857.385 262.532C857.777 262.784 858.085 263.115 858.309 263.526C858.533 263.927 858.645 264.347 858.645 264.786V269H857.105ZM852.499 269V262.28H854.039V269H852.499ZM863.289 269.14C862.636 269.14 862.043 268.986 861.511 268.678C860.979 268.361 860.555 267.936 860.237 267.404C859.929 266.872 859.775 266.279 859.775 265.626C859.775 264.973 859.929 264.385 860.237 263.862C860.555 263.339 860.979 262.924 861.511 262.616C862.043 262.299 862.636 262.14 863.289 262.14C863.952 262.14 864.549 262.294 865.081 262.602C865.613 262.91 866.033 263.33 866.341 263.862C866.659 264.385 866.817 264.973 866.817 265.626C866.817 266.279 866.659 266.872 866.341 267.404C866.033 267.936 865.613 268.361 865.081 268.678C864.549 268.986 863.952 269.14 863.289 269.14ZM863.289 267.656C863.672 267.656 864.008 267.572 864.297 267.404C864.596 267.227 864.825 266.984 864.983 266.676C865.151 266.368 865.235 266.018 865.235 265.626C865.235 265.234 865.151 264.889 864.983 264.59C864.815 264.291 864.587 264.058 864.297 263.89C864.008 263.713 863.672 263.624 863.289 263.624C862.916 263.624 862.58 263.713 862.281 263.89C861.992 264.058 861.763 264.291 861.595 264.59C861.437 264.889 861.357 265.234 861.357 265.626C861.357 266.018 861.437 266.368 861.595 266.676C861.763 266.984 861.992 267.227 862.281 267.404C862.58 267.572 862.916 267.656 863.289 267.656ZM870.134 269L867.068 262.28H868.776L871.114 267.754H870.106L872.458 262.28H874.096L871.03 269H870.134Z" fill="white"/>
<defs>
<filter id="filter0_d_1202_1266" x="127" y="295" width="74" height="74" filterUnits="userSpaceOnUse" color-interpolation-filters="sRGB">
<feFlood flood-opacity="0" result="BackgroundImageFix"/>
<feColorMatrix in="SourceAlpha" type="matrix" values="0 0 0 0 0 0 0 0 0 0 0 0 0 0 0 0 0 0 127 0" result="hardAlpha"/>
<feOffset dy="5"/>
<feGaussianBlur stdDeviation="8.5"/>
<feComposite in2="hardAlpha" operator="out"/>
<feColorMatrix type="matrix" values="0 0 0 0 0 0 0 0 0 0 0 0 0 0 0 0 0 0 0.06 0"/>
<feBlend mode="normal" in2="BackgroundImageFix" result="effect1_dropShadow_1202_1266"/>
<feBlend mode="normal" in="SourceGraphic" in2="effect1_dropShadow_1202_1266" result="shape"/>
</filter>
<filter id="filter1_d_1202_1266" x="0" y="181" width="96" height="96" filterUnits="userSpaceOnUse" color-interpolation-filters="sRGB">
<feFlood flood-opacity="0" result="BackgroundImageFix"/>
<feColorMatrix in="SourceAlpha" type="matrix" values="0 0 0 0 0 0 0 0 0 0 0 0 0 0 0 0 0 0 127 0" result="hardAlpha"/>
<feOffset dy="5"/>
<feGaussianBlur stdDeviation="8.5"/>
<feComposite in2="hardAlpha" operator="out"/>
<feColorMatrix type="matrix" values="0 0 0 0 0 0 0 0 0 0 0 0 0 0 0 0 0 0 0.06 0"/>
<feBlend mode="normal" in2="BackgroundImageFix" result="effect1_dropShadow_1202_1266"/>
<feBlend mode="normal" in="SourceGraphic" in2="effect1_dropShadow_1202_1266" result="shape"/>
</filter>
</defs>
</svg>
