<svg width="177" height="54" viewBox="0 0 177 54" fill="none" xmlns="http://www.w3.org/2000/svg">
<path d="M150.945 12.9972C149.336 13.6222 149.459 15.8399 151.129 16.2988L159.558 18.6161L163.408 26.151C164.17 27.6439 166.475 27.3742 166.84 25.7496L170.764 8.25134C170.834 7.94031 170.814 7.61689 170.706 7.31588C170.598 7.01486 170.407 6.74764 170.152 6.54296C169.897 6.33828 169.589 6.20389 169.26 6.15425C168.932 6.1046 168.595 6.14158 168.287 6.26121L150.945 12.9972Z" fill="#00BC1E"/>
<rect width="151" height="30" rx="15" transform="matrix(-1 0 0 1 151 24)" fill="#00BC1E"/>
<path d="M10.336 44L14.368 34.2H15.488L19.492 44H17.756L14.62 36.062H15.208L12.044 44H10.336ZM12.324 42.11V40.71H17.518V42.11H12.324ZM24.2821 44.14C23.7687 44.14 23.3114 44.0327 22.9101 43.818C22.5087 43.594 22.1914 43.2907 21.9581 42.908C21.7341 42.5253 21.6221 42.0913 21.6221 41.606V39.674C21.6221 39.1887 21.7387 38.7547 21.9721 38.372C22.2054 37.9893 22.5227 37.6907 22.9241 37.476C23.3254 37.252 23.7781 37.14 24.2821 37.14C24.8887 37.14 25.4347 37.2987 25.9201 37.616C26.4147 37.924 26.8021 38.344 27.0821 38.876C27.3714 39.3987 27.5161 39.9913 27.5161 40.654C27.5161 41.3073 27.3714 41.9 27.0821 42.432C26.8021 42.9547 26.4147 43.37 25.9201 43.678C25.4347 43.986 24.8887 44.14 24.2821 44.14ZM24.0301 42.684C24.4034 42.684 24.7301 42.6 25.0101 42.432C25.2994 42.2547 25.5234 42.012 25.6821 41.704C25.8501 41.396 25.9341 41.0413 25.9341 40.64C25.9341 40.2387 25.8501 39.884 25.6821 39.576C25.5234 39.268 25.2994 39.03 25.0101 38.862C24.7301 38.6847 24.4034 38.596 24.0301 38.596C23.6567 38.596 23.3254 38.6847 23.0361 38.862C22.7467 39.03 22.5227 39.268 22.3641 39.576C22.2054 39.884 22.1261 40.2387 22.1261 40.64C22.1261 41.0413 22.2054 41.396 22.3641 41.704C22.5227 42.012 22.7467 42.2547 23.0361 42.432C23.3254 42.6 23.6567 42.684 24.0301 42.684ZM20.6841 44V33.92H22.2241V38.932L21.9581 40.556L22.2241 42.194V44H20.6841ZM31.6192 44.14C31.0125 44.14 30.4618 43.986 29.9672 43.678C29.4818 43.37 29.0945 42.9547 28.8052 42.432C28.5252 41.9 28.3852 41.3073 28.3852 40.654C28.3852 39.9913 28.5252 39.3987 28.8052 38.876C29.0945 38.344 29.4818 37.924 29.9672 37.616C30.4618 37.2987 31.0125 37.14 31.6192 37.14C32.1325 37.14 32.5852 37.252 32.9772 37.476C33.3785 37.6907 33.6958 37.9893 33.9292 38.372C34.1625 38.7547 34.2792 39.1887 34.2792 39.674V41.606C34.2792 42.0913 34.1625 42.5253 33.9292 42.908C33.7052 43.2907 33.3925 43.594 32.9912 43.818C32.5898 44.0327 32.1325 44.14 31.6192 44.14ZM31.8712 42.684C32.2538 42.684 32.5852 42.6 32.8652 42.432C33.1545 42.2547 33.3785 42.012 33.5372 41.704C33.6958 41.396 33.7752 41.0413 33.7752 40.64C33.7752 40.2387 33.6958 39.884 33.5372 39.576C33.3785 39.268 33.1545 39.03 32.8652 38.862C32.5852 38.6847 32.2538 38.596 31.8712 38.596C31.4978 38.596 31.1665 38.6847 30.8772 38.862C30.5972 39.03 30.3732 39.268 30.2052 39.576C30.0465 39.884 29.9672 40.2387 29.9672 40.64C29.9672 41.0413 30.0465 41.396 30.2052 41.704C30.3732 42.012 30.5972 42.2547 30.8772 42.432C31.1665 42.6 31.4978 42.684 31.8712 42.684ZM35.2172 44H33.6772V42.194L33.9432 40.556L33.6772 38.932V33.92H35.2172V44ZM39.6843 44.14C39.1149 44.14 38.6063 44.014 38.1583 43.762C37.7196 43.51 37.3743 43.1647 37.1223 42.726C36.8796 42.278 36.7583 41.7647 36.7583 41.186V37.28H38.2983V41.116C38.2983 41.4427 38.3496 41.7227 38.4523 41.956C38.5643 42.18 38.7229 42.3527 38.9283 42.474C39.1429 42.5953 39.3949 42.656 39.6843 42.656C40.1323 42.656 40.4729 42.5253 40.7063 42.264C40.9489 41.9933 41.0703 41.6107 41.0703 41.116V37.28H42.6103V41.186C42.6103 41.774 42.4843 42.292 42.2323 42.74C41.9896 43.1787 41.6489 43.524 41.2103 43.776C40.7716 44.0187 40.2629 44.14 39.6843 44.14ZM44.1587 44V33.92H45.6987V44H44.1587ZM50.2266 44.14C49.6199 44.14 49.0693 43.986 48.5746 43.678C48.0893 43.37 47.7019 42.9547 47.4126 42.432C47.1326 41.9 46.9926 41.3073 46.9926 40.654C46.9926 39.9913 47.1326 39.3987 47.4126 38.876C47.7019 38.344 48.0893 37.924 48.5746 37.616C49.0693 37.2987 49.6199 37.14 50.2266 37.14C50.7399 37.14 51.1926 37.252 51.5846 37.476C51.9859 37.6907 52.3033 37.9893 52.5366 38.372C52.7699 38.7547 52.8866 39.1887 52.8866 39.674V41.606C52.8866 42.0913 52.7699 42.5253 52.5366 42.908C52.3126 43.2907 51.9999 43.594 51.5986 43.818C51.1973 44.0327 50.7399 44.14 50.2266 44.14ZM50.4786 42.684C51.0479 42.684 51.5053 42.4927 51.8506 42.11C52.2053 41.7273 52.3826 41.2373 52.3826 40.64C52.3826 40.2387 52.3033 39.884 52.1446 39.576C51.9859 39.268 51.7619 39.03 51.4726 38.862C51.1926 38.6847 50.8613 38.596 50.4786 38.596C50.1053 38.596 49.7739 38.6847 49.4846 38.862C49.2046 39.03 48.9806 39.268 48.8126 39.576C48.6539 39.884 48.5746 40.2387 48.5746 40.64C48.5746 41.0413 48.6539 41.396 48.8126 41.704C48.9806 42.012 49.2046 42.2547 49.4846 42.432C49.7739 42.6 50.1053 42.684 50.4786 42.684ZM52.2846 44V42.194L52.5506 40.556L52.2846 38.932V37.28H53.8246V44H52.2846ZM55.0297 43.16L58.7817 38.12H60.5877L56.8357 43.16H55.0297ZM55.0297 44V43.16L56.4297 42.6H60.5037V44H55.0297ZM55.2817 38.68V37.28H60.5877V38.12L59.1877 38.68H55.2817ZM61.8641 44V37.28H63.4041V44H61.8641ZM62.6341 36.048C62.3728 36.048 62.1534 35.9593 61.9761 35.782C61.8081 35.6047 61.7241 35.3853 61.7241 35.124C61.7241 34.8627 61.8081 34.6433 61.9761 34.466C62.1534 34.2887 62.3728 34.2 62.6341 34.2C62.9048 34.2 63.1241 34.2887 63.2921 34.466C63.4601 34.6433 63.5441 34.8627 63.5441 35.124C63.5441 35.3853 63.4601 35.6047 63.2921 35.782C63.1241 35.9593 62.9048 36.048 62.6341 36.048ZM64.6273 43.16L68.3793 38.12H70.1853L66.4333 43.16H64.6273ZM64.6273 44V43.16L66.0273 42.6H70.1013V44H64.6273ZM64.8793 38.68V37.28H70.1853V38.12L68.7853 38.68H64.8793ZM80.3825 44L75.8465 38.89L80.2845 34.2H82.3425L77.4425 39.296L77.4565 38.414L82.4825 44H80.3825ZM74.4605 44V34.2H76.0705V44H74.4605ZM86.0668 44.14C85.4135 44.14 84.8208 43.986 84.2888 43.678C83.7568 43.3607 83.3321 42.936 83.0148 42.404C82.7068 41.872 82.5528 41.2793 82.5528 40.626C82.5528 39.9727 82.7068 39.3847 83.0148 38.862C83.3321 38.3393 83.7568 37.924 84.2888 37.616C84.8208 37.2987 85.4135 37.14 86.0668 37.14C86.7295 37.14 87.3268 37.294 87.8588 37.602C88.3908 37.91 88.8108 38.33 89.1188 38.862C89.4361 39.3847 89.5948 39.9727 89.5948 40.626C89.5948 41.2793 89.4361 41.872 89.1188 42.404C88.8108 42.936 88.3908 43.3607 87.8588 43.678C87.3268 43.986 86.7295 44.14 86.0668 44.14ZM86.0668 42.656C86.4495 42.656 86.7855 42.572 87.0748 42.404C87.3735 42.2267 87.6021 41.984 87.7608 41.676C87.9288 41.368 88.0128 41.018 88.0128 40.626C88.0128 40.234 87.9288 39.8887 87.7608 39.59C87.5928 39.2913 87.3641 39.058 87.0748 38.89C86.7855 38.7127 86.4495 38.624 86.0668 38.624C85.6935 38.624 85.3575 38.7127 85.0588 38.89C84.7695 39.058 84.5408 39.2913 84.3728 39.59C84.2141 39.8887 84.1348 40.234 84.1348 40.626C84.1348 41.018 84.2141 41.368 84.3728 41.676C84.5408 41.984 84.7695 42.2267 85.0588 42.404C85.3575 42.572 85.6935 42.656 86.0668 42.656ZM93.6895 44.14C93.0828 44.14 92.5322 43.986 92.0375 43.678C91.5522 43.37 91.1648 42.9547 90.8755 42.432C90.5955 41.9 90.4555 41.3073 90.4555 40.654C90.4555 39.9913 90.5955 39.3987 90.8755 38.876C91.1648 38.344 91.5522 37.924 92.0375 37.616C92.5322 37.2987 93.0828 37.14 93.6895 37.14C94.2028 37.14 94.6555 37.252 95.0475 37.476C95.4488 37.6907 95.7662 37.9893 95.9995 38.372C96.2328 38.7547 96.3495 39.1887 96.3495 39.674V41.606C96.3495 42.0913 96.2328 42.5253 95.9995 42.908C95.7755 43.2907 95.4628 43.594 95.0615 43.818C94.6602 44.0327 94.2028 44.14 93.6895 44.14ZM93.9415 42.684C94.3242 42.684 94.6555 42.6 94.9355 42.432C95.2248 42.2547 95.4488 42.012 95.6075 41.704C95.7662 41.396 95.8455 41.0413 95.8455 40.64C95.8455 40.2387 95.7662 39.884 95.6075 39.576C95.4488 39.268 95.2248 39.03 94.9355 38.862C94.6555 38.6847 94.3242 38.596 93.9415 38.596C93.5682 38.596 93.2368 38.6847 92.9475 38.862C92.6675 39.03 92.4435 39.268 92.2755 39.576C92.1168 39.884 92.0375 40.2387 92.0375 40.64C92.0375 41.0413 92.1168 41.396 92.2755 41.704C92.4435 42.012 92.6675 42.2547 92.9475 42.432C93.2368 42.6 93.5682 42.684 93.9415 42.684ZM97.2875 44H95.7475V42.194L96.0135 40.556L95.7475 38.932V33.92H97.2875V44ZM99.0106 44V37.28H100.551V44H99.0106ZM99.7806 36.048C99.5192 36.048 99.2999 35.9593 99.1226 35.782C98.9546 35.6047 98.8706 35.3853 98.8706 35.124C98.8706 34.8627 98.9546 34.6433 99.1226 34.466C99.2999 34.2887 99.5192 34.2 99.7806 34.2C100.051 34.2 100.271 34.2887 100.439 34.466C100.607 34.6433 100.691 34.8627 100.691 35.124C100.691 35.3853 100.607 35.6047 100.439 35.782C100.271 35.9593 100.051 36.048 99.7806 36.048ZM102.278 44V37.28H103.818V44H102.278ZM103.818 40.262L103.286 39.996C103.286 39.1467 103.472 38.4607 103.846 37.938C104.228 37.406 104.802 37.14 105.568 37.14C105.904 37.14 106.207 37.2007 106.478 37.322C106.748 37.4433 107 37.6393 107.234 37.91L106.226 38.946C106.104 38.8153 105.969 38.722 105.82 38.666C105.67 38.61 105.498 38.582 105.302 38.582C104.872 38.582 104.518 38.7173 104.238 38.988C103.958 39.2587 103.818 39.6833 103.818 40.262ZM107.307 46.94C106.831 46.94 106.444 46.8653 106.145 46.716C105.837 46.5667 105.557 46.3473 105.305 46.058L106.299 45.064C106.411 45.2133 106.537 45.3207 106.677 45.386C106.817 45.4607 106.99 45.498 107.195 45.498C107.447 45.498 107.662 45.4187 107.839 45.26C108.026 45.1107 108.119 44.8867 108.119 44.588V37.28H109.659V44.574C109.659 45.0873 109.547 45.5167 109.323 45.862C109.108 46.2167 108.824 46.4827 108.469 46.66C108.114 46.8467 107.727 46.94 107.307 46.94ZM108.917 36.048C108.656 36.048 108.436 35.9593 108.259 35.782C108.091 35.6047 108.007 35.3853 108.007 35.124C108.007 34.8627 108.091 34.6433 108.259 34.466C108.436 34.2887 108.656 34.2 108.917 34.2C109.188 34.2 109.407 34.2887 109.575 34.466C109.743 34.6433 109.827 34.8627 109.827 35.124C109.827 35.3853 109.743 35.6047 109.575 35.782C109.407 35.9593 109.188 36.048 108.917 36.048ZM114.45 44.14C113.796 44.14 113.204 43.986 112.672 43.678C112.14 43.3607 111.715 42.936 111.398 42.404C111.09 41.872 110.936 41.2793 110.936 40.626C110.936 39.9727 111.09 39.3847 111.398 38.862C111.715 38.3393 112.14 37.924 112.672 37.616C113.204 37.2987 113.796 37.14 114.45 37.14C115.112 37.14 115.71 37.294 116.242 37.602C116.774 37.91 117.194 38.33 117.502 38.862C117.819 39.3847 117.978 39.9727 117.978 40.626C117.978 41.2793 117.819 41.872 117.502 42.404C117.194 42.936 116.774 43.3607 116.242 43.678C115.71 43.986 115.112 44.14 114.45 44.14ZM114.45 42.656C114.832 42.656 115.168 42.572 115.458 42.404C115.756 42.2267 115.985 41.984 116.144 41.676C116.312 41.368 116.396 41.018 116.396 40.626C116.396 40.234 116.312 39.8887 116.144 39.59C115.976 39.2913 115.747 39.058 115.458 38.89C115.168 38.7127 114.832 38.624 114.45 38.624C114.076 38.624 113.74 38.7127 113.442 38.89C113.152 39.058 112.924 39.2913 112.756 39.59C112.597 39.8887 112.518 40.234 112.518 40.626C112.518 41.018 112.597 41.368 112.756 41.676C112.924 41.984 113.152 42.2267 113.442 42.404C113.74 42.572 114.076 42.656 114.45 42.656ZM123.864 44V40.122C123.864 39.674 123.72 39.3053 123.43 39.016C123.15 38.7267 122.786 38.582 122.338 38.582C122.04 38.582 121.774 38.6473 121.54 38.778C121.307 38.9087 121.125 39.0907 120.994 39.324C120.864 39.5573 120.798 39.8233 120.798 40.122L120.196 39.786C120.196 39.2727 120.308 38.82 120.532 38.428C120.756 38.0267 121.064 37.714 121.456 37.49C121.858 37.2567 122.306 37.14 122.8 37.14C123.304 37.14 123.752 37.2707 124.144 37.532C124.536 37.784 124.844 38.1153 125.068 38.526C125.292 38.9273 125.404 39.3473 125.404 39.786V44H123.864ZM119.258 44V37.28H120.798V44H119.258ZM130.049 44.14C129.396 44.14 128.803 43.986 128.271 43.678C127.739 43.3607 127.315 42.936 126.997 42.404C126.689 41.872 126.535 41.2793 126.535 40.626C126.535 39.9727 126.689 39.3847 126.997 38.862C127.315 38.3393 127.739 37.924 128.271 37.616C128.803 37.2987 129.396 37.14 130.049 37.14C130.712 37.14 131.309 37.294 131.841 37.602C132.373 37.91 132.793 38.33 133.101 38.862C133.419 39.3847 133.577 39.9727 133.577 40.626C133.577 41.2793 133.419 41.872 133.101 42.404C132.793 42.936 132.373 43.3607 131.841 43.678C131.309 43.986 130.712 44.14 130.049 44.14ZM130.049 42.656C130.432 42.656 130.768 42.572 131.057 42.404C131.356 42.2267 131.585 41.984 131.743 41.676C131.911 41.368 131.995 41.018 131.995 40.626C131.995 40.234 131.911 39.8887 131.743 39.59C131.575 39.2913 131.347 39.058 131.057 38.89C130.768 38.7127 130.432 38.624 130.049 38.624C129.676 38.624 129.34 38.7127 129.041 38.89C128.752 39.058 128.523 39.2913 128.355 39.59C128.197 39.8887 128.117 40.234 128.117 40.626C128.117 41.018 128.197 41.368 128.355 41.676C128.523 41.984 128.752 42.2267 129.041 42.404C129.34 42.572 129.676 42.656 130.049 42.656ZM136.893 44L133.827 37.28H135.535L137.873 42.754H136.865L139.217 37.28H140.855L137.789 44H136.893Z" fill="white"/>
</svg>
