<svg width="161" height="54" viewBox="0 0 161 54" fill="none" xmlns="http://www.w3.org/2000/svg">
<path d="M26.0546 12.9972C27.664 13.6222 27.541 15.8399 25.8715 16.2988L17.4421 18.6161L13.5924 26.151C12.8304 27.6439 10.5246 27.3742 10.1597 25.7496L6.2364 8.25134C6.16629 7.94031 6.18619 7.61689 6.29396 7.31588C6.40173 7.01486 6.5933 6.74764 6.84805 6.54296C7.10279 6.33828 7.41108 6.20389 7.73975 6.15425C8.06841 6.1046 8.40501 6.14158 8.71334 6.26121L26.0546 12.9972Z" fill="#4E017D"/>
<rect x="26" y="24" width="135" height="30" rx="15" fill="#4E017D"/>
<path d="M39.794 44.14C39.0193 44.14 38.3613 44 37.82 43.72C37.2787 43.44 36.7933 43.0293 36.364 42.488L37.456 41.396C37.7267 41.788 38.0487 42.096 38.422 42.32C38.7953 42.5347 39.2713 42.642 39.85 42.642C40.3913 42.642 40.8207 42.53 41.138 42.306C41.4647 42.082 41.628 41.774 41.628 41.382C41.628 41.0553 41.544 40.7893 41.376 40.584C41.208 40.3787 40.984 40.2107 40.704 40.08C40.4333 39.94 40.13 39.8187 39.794 39.716C39.4673 39.604 39.136 39.4827 38.8 39.352C38.4733 39.212 38.17 39.0393 37.89 38.834C37.6193 38.6287 37.4 38.3627 37.232 38.036C37.064 37.7093 36.98 37.294 36.98 36.79C36.98 36.2113 37.12 35.7213 37.4 35.32C37.6893 34.9093 38.0767 34.5967 38.562 34.382C39.0473 34.1673 39.5887 34.06 40.186 34.06C40.83 34.06 41.404 34.186 41.908 34.438C42.4213 34.69 42.8367 35.012 43.154 35.404L42.062 36.496C41.782 36.1787 41.488 35.9453 41.18 35.796C40.8813 35.6373 40.536 35.558 40.144 35.558C39.6587 35.558 39.276 35.656 38.996 35.852C38.7253 36.048 38.59 36.3233 38.59 36.678C38.59 36.9767 38.674 37.2193 38.842 37.406C39.01 37.5833 39.2293 37.7373 39.5 37.868C39.78 37.9893 40.0833 38.106 40.41 38.218C40.746 38.33 41.0773 38.456 41.404 38.596C41.74 38.736 42.0433 38.918 42.314 39.142C42.594 39.3567 42.818 39.6367 42.986 39.982C43.154 40.3273 43.238 40.7613 43.238 41.284C43.238 42.1613 42.9253 42.8567 42.3 43.37C41.684 43.8833 40.8487 44.14 39.794 44.14ZM49.2393 44V40.122C49.2393 39.674 49.0946 39.3053 48.8053 39.016C48.5253 38.7267 48.1613 38.582 47.7133 38.582C47.4146 38.582 47.1486 38.6473 46.9153 38.778C46.682 38.9087 46.5 39.0907 46.3693 39.324C46.2386 39.5573 46.1733 39.8233 46.1733 40.122L45.5713 39.786C45.5713 39.2727 45.6833 38.82 45.9073 38.428C46.1313 38.0267 46.4393 37.714 46.8313 37.49C47.2326 37.2567 47.6806 37.14 48.1753 37.14C48.6793 37.14 49.1273 37.252 49.5193 37.476C49.9113 37.7 50.2193 38.0127 50.4433 38.414C50.6673 38.806 50.7793 39.2633 50.7793 39.786V44H49.2393ZM44.6333 44V33.92H46.1733V44H44.6333ZM55.1582 44.14C54.5516 44.14 54.0009 43.986 53.5062 43.678C53.0209 43.37 52.6336 42.9547 52.3442 42.432C52.0642 41.9 51.9242 41.3073 51.9242 40.654C51.9242 39.9913 52.0642 39.3987 52.3442 38.876C52.6336 38.344 53.0209 37.924 53.5062 37.616C54.0009 37.2987 54.5516 37.14 55.1582 37.14C55.6716 37.14 56.1242 37.252 56.5162 37.476C56.9176 37.6907 57.2349 37.9893 57.4682 38.372C57.7016 38.7547 57.8182 39.1887 57.8182 39.674V41.606C57.8182 42.0913 57.7016 42.5253 57.4682 42.908C57.2442 43.2907 56.9316 43.594 56.5302 43.818C56.1289 44.0327 55.6716 44.14 55.1582 44.14ZM55.4102 42.684C55.9796 42.684 56.4369 42.4927 56.7822 42.11C57.1369 41.7273 57.3142 41.2373 57.3142 40.64C57.3142 40.2387 57.2349 39.884 57.0762 39.576C56.9176 39.268 56.6936 39.03 56.4042 38.862C56.1242 38.6847 55.7929 38.596 55.4102 38.596C55.0369 38.596 54.7056 38.6847 54.4162 38.862C54.1362 39.03 53.9122 39.268 53.7442 39.576C53.5856 39.884 53.5062 40.2387 53.5062 40.64C53.5062 41.0413 53.5856 41.396 53.7442 41.704C53.9122 42.012 54.1362 42.2547 54.4162 42.432C54.7056 42.6 55.0369 42.684 55.4102 42.684ZM57.2162 44V42.194L57.4822 40.556L57.2162 38.932V37.28H58.7562V44H57.2162ZM64.7213 44L62.7893 41.158L62.5093 40.906L59.9053 37.28H61.7673L63.4893 39.772L63.7553 40.01L66.5693 44H64.7213ZM59.7793 44L62.4953 40.234L63.3913 41.34L61.5713 44H59.7793ZM63.8953 40.878L62.9853 39.786L64.6653 37.28H66.4433L63.8953 40.878ZM71.1864 44.14C70.673 44.14 70.2157 44.0327 69.8144 43.818C69.413 43.594 69.0957 43.2907 68.8624 42.908C68.6384 42.5253 68.5264 42.0913 68.5264 41.606V39.674C68.5264 39.1887 68.643 38.7547 68.8764 38.372C69.1097 37.9893 69.427 37.6907 69.8284 37.476C70.2297 37.252 70.6824 37.14 71.1864 37.14C71.793 37.14 72.339 37.2987 72.8244 37.616C73.319 37.924 73.7064 38.344 73.9864 38.876C74.2757 39.3987 74.4204 39.9913 74.4204 40.654C74.4204 41.3073 74.2757 41.9 73.9864 42.432C73.7064 42.9547 73.319 43.37 72.8244 43.678C72.339 43.986 71.793 44.14 71.1864 44.14ZM70.9344 42.684C71.3077 42.684 71.6344 42.6 71.9144 42.432C72.2037 42.2547 72.4277 42.012 72.5864 41.704C72.7544 41.396 72.8384 41.0413 72.8384 40.64C72.8384 40.2387 72.7544 39.884 72.5864 39.576C72.4277 39.268 72.2037 39.03 71.9144 38.862C71.6344 38.6847 71.3077 38.596 70.9344 38.596C70.561 38.596 70.2297 38.6847 69.9404 38.862C69.651 39.03 69.427 39.268 69.2684 39.576C69.1097 39.884 69.0304 40.2387 69.0304 40.64C69.0304 41.0413 69.1097 41.396 69.2684 41.704C69.427 42.012 69.651 42.2547 69.9404 42.432C70.2297 42.6 70.561 42.684 70.9344 42.684ZM67.5884 44V33.92H69.1284V38.932L68.8624 40.556L69.1284 42.194V44H67.5884ZM78.7895 44.14C78.1361 44.14 77.5435 43.986 77.0115 43.678C76.4795 43.3607 76.0548 42.936 75.7375 42.404C75.4295 41.872 75.2755 41.2793 75.2755 40.626C75.2755 39.9727 75.4295 39.3847 75.7375 38.862C76.0548 38.3393 76.4795 37.924 77.0115 37.616C77.5435 37.2987 78.1361 37.14 78.7895 37.14C79.4521 37.14 80.0495 37.294 80.5815 37.602C81.1135 37.91 81.5335 38.33 81.8415 38.862C82.1588 39.3847 82.3175 39.9727 82.3175 40.626C82.3175 41.2793 82.1588 41.872 81.8415 42.404C81.5335 42.936 81.1135 43.3607 80.5815 43.678C80.0495 43.986 79.4521 44.14 78.7895 44.14ZM78.7895 42.656C79.1721 42.656 79.5081 42.572 79.7975 42.404C80.0961 42.2267 80.3248 41.984 80.4835 41.676C80.6515 41.368 80.7355 41.018 80.7355 40.626C80.7355 40.234 80.6515 39.8887 80.4835 39.59C80.3155 39.2913 80.0868 39.058 79.7975 38.89C79.5081 38.7127 79.1721 38.624 78.7895 38.624C78.4161 38.624 78.0801 38.7127 77.7815 38.89C77.4921 39.058 77.2635 39.2913 77.0955 39.59C76.9368 39.8887 76.8575 40.234 76.8575 40.626C76.8575 41.018 76.9368 41.368 77.0955 41.676C77.2635 41.984 77.4921 42.2267 77.7815 42.404C78.0801 42.572 78.4161 42.656 78.7895 42.656ZM85.7961 44.14C85.4228 44.14 85.0635 44.0933 84.7181 44C84.3728 43.8973 84.0555 43.7573 83.7661 43.58C83.4768 43.3933 83.2248 43.1693 83.0101 42.908L83.9901 41.928C84.2235 42.1987 84.4895 42.404 84.7881 42.544C85.0961 42.6747 85.4415 42.74 85.8241 42.74C86.1695 42.74 86.4308 42.6887 86.6081 42.586C86.7855 42.4833 86.8741 42.334 86.8741 42.138C86.8741 41.9327 86.7901 41.774 86.6221 41.662C86.4541 41.55 86.2348 41.4567 85.9641 41.382C85.7028 41.298 85.4228 41.214 85.1241 41.13C84.8348 41.046 84.5548 40.934 84.2841 40.794C84.0228 40.6447 83.8081 40.444 83.6401 40.192C83.4721 39.94 83.3881 39.6133 83.3881 39.212C83.3881 38.7827 83.4861 38.414 83.6821 38.106C83.8875 37.798 84.1721 37.56 84.5361 37.392C84.9095 37.224 85.3528 37.14 85.8661 37.14C86.4075 37.14 86.8835 37.238 87.2941 37.434C87.7141 37.6207 88.0641 37.9053 88.3441 38.288L87.3641 39.268C87.1681 39.0253 86.9441 38.8433 86.6921 38.722C86.4401 38.6007 86.1508 38.54 85.8241 38.54C85.5161 38.54 85.2781 38.5867 85.1101 38.68C84.9421 38.7733 84.8581 38.9087 84.8581 39.086C84.8581 39.2727 84.9421 39.4173 85.1101 39.52C85.2781 39.6227 85.4928 39.7113 85.7541 39.786C86.0248 39.8607 86.3048 39.9447 86.5941 40.038C86.8928 40.122 87.1728 40.2433 87.4341 40.402C87.7048 40.5513 87.9241 40.7567 88.0921 41.018C88.2601 41.27 88.3441 41.6013 88.3441 42.012C88.3441 42.6653 88.1155 43.1833 87.6581 43.566C87.2008 43.9487 86.5801 44.14 85.7961 44.14ZM95.3565 44.14C94.5818 44.14 93.9238 44 93.3825 43.72C92.8412 43.44 92.3558 43.0293 91.9265 42.488L93.0185 41.396C93.2892 41.788 93.6112 42.096 93.9845 42.32C94.3578 42.5347 94.8338 42.642 95.4125 42.642C95.9538 42.642 96.3832 42.53 96.7005 42.306C97.0272 42.082 97.1905 41.774 97.1905 41.382C97.1905 41.0553 97.1065 40.7893 96.9385 40.584C96.7705 40.3787 96.5465 40.2107 96.2665 40.08C95.9958 39.94 95.6925 39.8187 95.3565 39.716C95.0298 39.604 94.6985 39.4827 94.3625 39.352C94.0358 39.212 93.7325 39.0393 93.4525 38.834C93.1818 38.6287 92.9625 38.3627 92.7945 38.036C92.6265 37.7093 92.5425 37.294 92.5425 36.79C92.5425 36.2113 92.6825 35.7213 92.9625 35.32C93.2518 34.9093 93.6392 34.5967 94.1245 34.382C94.6098 34.1673 95.1512 34.06 95.7485 34.06C96.3925 34.06 96.9665 34.186 97.4705 34.438C97.9838 34.69 98.3992 35.012 98.7165 35.404L97.6245 36.496C97.3445 36.1787 97.0505 35.9453 96.7425 35.796C96.4438 35.6373 96.0985 35.558 95.7065 35.558C95.2212 35.558 94.8385 35.656 94.5585 35.852C94.2878 36.048 94.1525 36.3233 94.1525 36.678C94.1525 36.9767 94.2365 37.2193 94.4045 37.406C94.5725 37.5833 94.7918 37.7373 95.0625 37.868C95.3425 37.9893 95.6458 38.106 95.9725 38.218C96.3085 38.33 96.6398 38.456 96.9665 38.596C97.3025 38.736 97.6058 38.918 97.8765 39.142C98.1565 39.3567 98.3805 39.6367 98.5485 39.982C98.7165 40.3273 98.8005 40.7613 98.8005 41.284C98.8005 42.1613 98.4878 42.8567 97.8625 43.37C97.2465 43.8833 96.4112 44.14 95.3565 44.14ZM102.928 44.14C102.321 44.14 101.77 43.986 101.276 43.678C100.79 43.37 100.403 42.9547 100.114 42.432C99.8338 41.9 99.6938 41.3073 99.6938 40.654C99.6938 39.9913 99.8338 39.3987 100.114 38.876C100.403 38.344 100.79 37.924 101.276 37.616C101.77 37.2987 102.321 37.14 102.928 37.14C103.441 37.14 103.894 37.252 104.286 37.476C104.687 37.6907 105.004 37.9893 105.238 38.372C105.471 38.7547 105.588 39.1887 105.588 39.674V41.606C105.588 42.0913 105.471 42.5253 105.238 42.908C105.014 43.2907 104.701 43.594 104.3 43.818C103.898 44.0327 103.441 44.14 102.928 44.14ZM103.18 42.684C103.749 42.684 104.206 42.4927 104.552 42.11C104.906 41.7273 105.084 41.2373 105.084 40.64C105.084 40.2387 105.004 39.884 104.846 39.576C104.687 39.268 104.463 39.03 104.174 38.862C103.894 38.6847 103.562 38.596 103.18 38.596C102.806 38.596 102.475 38.6847 102.186 38.862C101.906 39.03 101.682 39.268 101.514 39.576C101.355 39.884 101.276 40.2387 101.276 40.64C101.276 41.0413 101.355 41.396 101.514 41.704C101.682 42.012 101.906 42.2547 102.186 42.432C102.475 42.6 102.806 42.684 103.18 42.684ZM104.986 44V42.194L105.252 40.556L104.986 38.932V37.28H106.526V44H104.986ZM108.235 44V37.28H109.775V44H108.235ZM112.701 44V39.996C112.701 39.548 112.561 39.2027 112.281 38.96C112.001 38.708 111.656 38.582 111.245 38.582C110.965 38.582 110.713 38.638 110.489 38.75C110.274 38.862 110.102 39.0253 109.971 39.24C109.84 39.4453 109.775 39.6973 109.775 39.996L109.173 39.66C109.173 39.1467 109.285 38.7033 109.509 38.33C109.733 37.9567 110.036 37.6673 110.419 37.462C110.802 37.2473 111.231 37.14 111.707 37.14C112.183 37.14 112.612 37.2427 112.995 37.448C113.378 37.6533 113.681 37.9427 113.905 38.316C114.129 38.6893 114.241 39.1373 114.241 39.66V44H112.701ZM117.167 44V39.996C117.167 39.548 117.027 39.2027 116.747 38.96C116.467 38.708 116.122 38.582 115.711 38.582C115.44 38.582 115.193 38.638 114.969 38.75C114.745 38.862 114.568 39.0253 114.437 39.24C114.306 39.4453 114.241 39.6973 114.241 39.996L113.373 39.66C113.42 39.1467 113.569 38.7033 113.821 38.33C114.073 37.9567 114.395 37.6673 114.787 37.462C115.188 37.2473 115.627 37.14 116.103 37.14C116.588 37.14 117.027 37.2427 117.419 37.448C117.811 37.6533 118.124 37.9427 118.357 38.316C118.59 38.6893 118.707 39.1373 118.707 39.66V44H117.167ZM123.107 44.14C122.501 44.14 121.95 43.986 121.455 43.678C120.97 43.37 120.583 42.9547 120.293 42.432C120.013 41.9 119.873 41.3073 119.873 40.654C119.873 39.9913 120.013 39.3987 120.293 38.876C120.583 38.344 120.97 37.924 121.455 37.616C121.95 37.2987 122.501 37.14 123.107 37.14C123.621 37.14 124.073 37.252 124.465 37.476C124.867 37.6907 125.184 37.9893 125.417 38.372C125.651 38.7547 125.767 39.1887 125.767 39.674V41.606C125.767 42.0913 125.651 42.5253 125.417 42.908C125.193 43.2907 124.881 43.594 124.479 43.818C124.078 44.0327 123.621 44.14 123.107 44.14ZM123.359 42.684C123.929 42.684 124.386 42.4927 124.731 42.11C125.086 41.7273 125.263 41.2373 125.263 40.64C125.263 40.2387 125.184 39.884 125.025 39.576C124.867 39.268 124.643 39.03 124.353 38.862C124.073 38.6847 123.742 38.596 123.359 38.596C122.986 38.596 122.655 38.6847 122.365 38.862C122.085 39.03 121.861 39.268 121.693 39.576C121.535 39.884 121.455 40.2387 121.455 40.64C121.455 41.0413 121.535 41.396 121.693 41.704C121.861 42.012 122.085 42.2547 122.365 42.432C122.655 42.6 122.986 42.684 123.359 42.684ZM125.165 44V42.194L125.431 40.556L125.165 38.932V37.28H126.705V44H125.165ZM131.229 44.14C130.622 44.14 130.071 43.986 129.577 43.678C129.091 43.37 128.704 42.9547 128.415 42.432C128.135 41.9 127.995 41.3073 127.995 40.654C127.995 39.9913 128.135 39.3987 128.415 38.876C128.704 38.344 129.091 37.924 129.577 37.616C130.071 37.2987 130.622 37.14 131.229 37.14C131.742 37.14 132.195 37.252 132.587 37.476C132.988 37.6907 133.305 37.9893 133.539 38.372C133.772 38.7547 133.889 39.1887 133.889 39.674V41.606C133.889 42.0913 133.772 42.5253 133.539 42.908C133.315 43.2907 133.002 43.594 132.601 43.818C132.199 44.0327 131.742 44.14 131.229 44.14ZM131.481 42.684C131.863 42.684 132.195 42.6 132.475 42.432C132.764 42.2547 132.988 42.012 133.147 41.704C133.305 41.396 133.385 41.0413 133.385 40.64C133.385 40.2387 133.305 39.884 133.147 39.576C132.988 39.268 132.764 39.03 132.475 38.862C132.195 38.6847 131.863 38.596 131.481 38.596C131.107 38.596 130.776 38.6847 130.487 38.862C130.207 39.03 129.983 39.268 129.815 39.576C129.656 39.884 129.577 40.2387 129.577 40.64C129.577 41.0413 129.656 41.396 129.815 41.704C129.983 42.012 130.207 42.2547 130.487 42.432C130.776 42.6 131.107 42.684 131.481 42.684ZM134.827 44H133.287V42.194L133.553 40.556L133.287 38.932V33.92H134.827V44ZM139.616 44.14C138.962 44.14 138.37 43.986 137.838 43.678C137.306 43.3607 136.881 42.936 136.564 42.404C136.256 41.872 136.102 41.2793 136.102 40.626C136.102 39.9727 136.256 39.3847 136.564 38.862C136.881 38.3393 137.306 37.924 137.838 37.616C138.37 37.2987 138.962 37.14 139.616 37.14C140.278 37.14 140.876 37.294 141.408 37.602C141.94 37.91 142.36 38.33 142.668 38.862C142.985 39.3847 143.144 39.9727 143.144 40.626C143.144 41.2793 142.985 41.872 142.668 42.404C142.36 42.936 141.94 43.3607 141.408 43.678C140.876 43.986 140.278 44.14 139.616 44.14ZM139.616 42.656C139.998 42.656 140.334 42.572 140.624 42.404C140.922 42.2267 141.151 41.984 141.31 41.676C141.478 41.368 141.562 41.018 141.562 40.626C141.562 40.234 141.478 39.8887 141.31 39.59C141.142 39.2913 140.913 39.058 140.624 38.89C140.334 38.7127 139.998 38.624 139.616 38.624C139.242 38.624 138.906 38.7127 138.608 38.89C138.318 39.058 138.09 39.2913 137.922 39.59C137.763 39.8887 137.684 40.234 137.684 40.626C137.684 41.018 137.763 41.368 137.922 41.676C138.09 41.984 138.318 42.2267 138.608 42.404C138.906 42.572 139.242 42.656 139.616 42.656ZM146.46 44L143.394 37.28H145.102L147.44 42.754H146.432L148.784 37.28H150.422L147.356 44H146.46Z" fill="white"/>
</svg>
