<svg width="18" height="18" viewBox="0 0 18 18" fill="none" xmlns="http://www.w3.org/2000/svg">
<rect width="18" height="18" fill="white"/>
<path d="M12.75 2.62553C12.75 2.52607 12.7105 2.43069 12.6402 2.36036C12.5698 2.29004 12.4745 2.25053 12.375 2.25053H10.5C9.55584 2.2035 8.63145 2.53207 7.92879 3.16446C7.22613 3.79685 6.80234 4.68165 6.75 5.62553V7.65053H4.875C4.77554 7.65053 4.68016 7.69004 4.60984 7.76036C4.53951 7.83069 4.5 7.92607 4.5 8.02553V9.97553C4.5 10.075 4.53951 10.1704 4.60984 10.2407C4.68016 10.311 4.77554 10.3505 4.875 10.3505H6.75V15.3755C6.75 15.475 6.78951 15.5704 6.85983 15.6407C6.93016 15.711 7.02554 15.7505 7.125 15.7505H9.375C9.47446 15.7505 9.56984 15.711 9.64017 15.6407C9.71049 15.5704 9.75 15.475 9.75 15.3755V10.3505H11.715C11.7984 10.3517 11.8798 10.3251 11.9464 10.2748C12.0129 10.2246 12.0608 10.1536 12.0825 10.073L12.6225 8.12303C12.6374 8.06762 12.6394 8.00953 12.6284 7.95322C12.6173 7.89692 12.5935 7.8439 12.5587 7.79826C12.5239 7.75261 12.4791 7.71556 12.4278 7.68995C12.3764 7.66434 12.3199 7.65085 12.2625 7.65053H9.75V5.62553C9.76866 5.43989 9.85584 5.26786 9.99452 5.14305C10.1332 5.01823 10.3134 4.94959 10.5 4.95053H12.375C12.4745 4.95053 12.5698 4.91102 12.6402 4.84069C12.7105 4.77037 12.75 4.67498 12.75 4.57553V2.62553Z" fill="#121212"/>
</svg>
