<svg width="18" height="18" viewBox="0 0 18 18" fill="#121212" xmlns="http://www.w3.org/2000/svg">
<path d="M16.4982 0.554688H1.48537C0.97131 0.554997 0.554585 0.971928 0.554688 1.48619V16.499C0.554997 17.0131 0.971928 17.4298 1.48619 17.4297H9.56897V10.9038H7.3772V8.34949H9.56897V6.46969C9.56897 4.28976 10.8998 3.10324 12.8444 3.10324C13.7758 3.10324 14.5762 3.17266 14.8094 3.20366V5.48206H13.4685C12.4105 5.48206 12.2057 5.98478 12.2057 6.72265V8.34949H14.7353L14.4057 10.9038H12.2057V17.4297H16.4982C17.0126 17.4298 17.4296 17.013 17.4297 16.4986C17.4297 16.4985 17.4297 16.4984 17.4297 16.4982V1.48537C17.4295 0.97131 17.0124 0.554585 16.4982 0.554688Z" />
</svg>
