<svg width="14" height="12" viewBox="0 0 14 12" fill="none" xmlns="http://www.w3.org/2000/svg">
<path d="M12.0009 6.38145L7.00085 11.3335L2.00085 6.38145C1.67106 6.06053 1.41128 5.67479 1.23788 5.24854C1.06449 4.82229 0.981226 4.36475 0.993343 3.90474C1.00546 3.44473 1.11269 2.99221 1.30829 2.57568C1.50389 2.15914 1.78361 1.78762 2.12984 1.4845C2.47608 1.18139 2.88132 0.953244 3.32006 0.814438C3.7588 0.675633 4.22152 0.629174 4.6791 0.677985C5.13667 0.726797 5.57918 0.869823 5.97877 1.09806C6.37835 1.32629 6.72635 1.63478 7.00085 2.00412C7.27654 1.63747 7.62494 1.33166 8.02425 1.10585C8.42356 0.880044 8.86518 0.739084 9.32147 0.691798C9.77776 0.644512 10.2389 0.691917 10.676 0.831046C11.1132 0.970175 11.5169 1.19803 11.8619 1.50036C12.2069 1.80269 12.4858 2.17297 12.6811 2.58805C12.8765 3.00312 12.984 3.45404 12.9971 3.91259C13.0101 4.37114 12.9284 4.82745 12.7569 5.25295C12.5855 5.67846 12.3281 6.064 12.0009 6.38545" stroke="black" stroke-linecap="round" stroke-linejoin="round"/>
</svg>
