<svg width="18" height="18" viewBox="0 0 18 18" fill="none" xmlns="http://www.w3.org/2000/svg">
<g clip-path="url(#clip0_758_678)">
<path d="M2.60113 0.914062C1.36373 0.914062 0.554688 1.7266 0.554688 2.79458C0.554688 3.83897 1.33963 4.67468 2.55365 4.67468H2.57713C3.83874 4.67468 4.62389 3.83897 4.62389 2.79458C4.6003 1.7266 3.83874 0.914062 2.60113 0.914062Z" fill="#121212"/>
<path d="M0.767578 6.16016H4.38503V17.0434H0.767578V6.16016Z" fill="#121212"/>
<path d="M13.2643 5.90625C11.3129 5.90625 10.0043 7.74001 10.0043 7.74001V6.16168H6.38672V17.045H10.0041V10.9673C10.0041 10.6419 10.0277 10.3171 10.1232 10.0844C10.3847 9.43472 10.9799 8.76163 11.9792 8.76163C13.2882 8.76163 13.8118 9.75967 13.8118 11.2227V17.045H17.4289V10.8047C17.4289 7.46181 15.6442 5.90625 13.2643 5.90625Z" fill="#121212"/>
</g>
<defs>
<clipPath id="clip0_758_678">
<rect width="18" height="18" fill="white"/>
</clipPath>
</defs>
</svg>
