<svg width="18" height="21" viewBox="0 0 18 21" fill="none" xmlns="http://www.w3.org/2000/svg">
<path d="M15.0009 2.9804C13.4096 1.3891 11.2513 0.495117 9.00091 0.495117C6.75047 0.495117 4.59221 1.3891 3.00091 2.9804C1.40961 4.5717 0.515625 6.72996 0.515625 8.9804C0.515625 11.2308 1.40961 13.3891 3.00091 14.9804L8.27091 20.2604C8.36387 20.3541 8.47447 20.4285 8.59633 20.4793C8.71819 20.5301 8.84889 20.5562 8.98091 20.5562C9.11292 20.5562 9.24362 20.5301 9.36548 20.4793C9.48734 20.4285 9.59794 20.3541 9.69091 20.2604L15.0009 14.9304C16.5856 13.3457 17.4758 11.1965 17.4758 8.9554C17.4758 6.71434 16.5856 4.56508 15.0009 2.9804ZM13.5709 13.5004L9.00091 18.0904L4.43091 13.5004C3.52805 12.5967 2.91338 11.4456 2.6646 10.1927C2.41582 8.93973 2.54409 7.64115 3.03321 6.46108C3.52233 5.28101 4.35032 4.27245 5.41254 3.56288C6.47475 2.8533 7.72349 2.47458 9.00091 2.47458C10.2783 2.47458 11.5271 2.8533 12.5893 3.56288C13.6515 4.27245 14.4795 5.28101 14.9686 6.46108C15.4577 7.64115 15.586 8.93973 15.3372 10.1927C15.0884 11.4456 14.4738 12.5967 13.5709 13.5004ZM6.00091 5.9104C5.19362 6.72017 4.7403 7.81697 4.7403 8.9604C4.7403 10.1038 5.19362 11.2006 6.00091 12.0104C6.60067 12.6112 7.36449 13.0215 8.19656 13.1898C9.02862 13.3581 9.89186 13.277 10.678 12.9566C11.4641 12.6361 12.1381 12.0907 12.6154 11.3886C13.0927 10.6866 13.352 9.85927 13.3609 9.0104C13.3654 8.4436 13.2562 7.88166 13.0398 7.35779C12.8234 6.83392 12.5041 6.35875 12.1009 5.9604C11.7046 5.55498 11.232 5.23194 10.7103 5.00986C10.1887 4.78779 9.62825 4.67107 9.06131 4.66643C8.49437 4.66178 7.93211 4.7693 7.40688 4.98279C6.88165 5.19628 6.40383 5.51153 6.00091 5.9104ZM10.6909 10.5904C10.3119 10.9751 9.81112 11.2163 9.27403 11.2727C8.73695 11.329 8.19697 11.197 7.74641 10.8993C7.29586 10.6016 6.9627 10.1566 6.80391 9.64048C6.64512 9.12432 6.67056 8.56904 6.87586 8.06955C7.08117 7.57007 7.45361 7.15741 7.92949 6.90213C8.40538 6.64686 8.95516 6.56481 9.48484 6.67002C10.0145 6.77522 10.4912 7.06116 10.8334 7.47893C11.1756 7.8967 11.3621 8.42037 11.3609 8.9604C11.3464 9.57767 11.0874 10.1639 10.6409 10.5904H10.6909Z" fill="black"/>
</svg>
