<svg width="18" height="15" viewBox="0 0 18 15" fill="none" xmlns="http://www.w3.org/2000/svg">
<path fill-rule="evenodd" clip-rule="evenodd" d="M0.00976562 1.33789C0.00976562 0.785606 0.457481 0.337891 1.00977 0.337891H17C17.5523 0.337891 18 0.785606 18 1.33789V12.6621C18 13.7667 17.1046 14.6621 16 14.6621H2C0.89543 14.6621 0 13.7667 0 12.6621V1.66211C0 1.61449 0.00332856 1.56765 0.00976562 1.5218V1.33789ZM2 3.56165V12.6621H16V3.56199L11.1215 8.4405C9.94992 9.61207 8.05042 9.61207 6.87885 8.4405L2 3.56165ZM3.57232 2.30554H14.428L9.70728 7.02628C9.31675 7.41681 8.68359 7.41681 8.29306 7.02628L3.57232 2.30554Z" fill="#333333"/>
</svg>
