<svg width="21" height="21" viewBox="0 0 21 21" fill="none" xmlns="http://www.w3.org/2000/svg">
<path d="M18.4406 11.5004C18.2206 11.5004 17.9906 11.4304 17.7706 11.3804C17.3251 11.2822 16.8873 11.1518 16.4606 10.9904C15.9967 10.8216 15.4867 10.8304 15.0289 11.015C14.5711 11.1996 14.1977 11.547 13.9806 11.9904L13.7606 12.4404C12.7866 11.8985 11.8916 11.2256 11.1006 10.4404C10.3154 9.64937 9.64241 8.75435 9.10059 7.78036L9.52059 7.50036C9.96395 7.28327 10.3114 6.90989 10.496 6.45205C10.6806 5.99421 10.6894 5.48427 10.5206 5.02036C10.3618 4.59278 10.2315 4.15515 10.1306 3.71036C10.0806 3.49036 10.0406 3.26036 10.0106 3.03036C9.88915 2.32598 9.52021 1.6881 8.97021 1.2316C8.42021 0.775093 7.72529 0.529965 7.01059 0.540356H4.01059C3.57962 0.53631 3.15284 0.62517 2.7593 0.800887C2.36576 0.976604 2.0147 1.23505 1.73002 1.55864C1.44534 1.88222 1.23372 2.26335 1.10958 2.67607C0.985431 3.08879 0.951668 3.52342 1.01059 3.95036C1.54333 8.13974 3.45662 12.0322 6.44824 15.013C9.43987 17.9938 13.3393 19.8929 17.5306 20.4104H17.9106C18.648 20.4114 19.36 20.1409 19.9106 19.6504C20.227 19.3674 20.4797 19.0205 20.6521 18.6327C20.8244 18.2448 20.9126 17.8248 20.9106 17.4004V14.4004C20.8983 13.7057 20.6454 13.0369 20.1949 12.508C19.7445 11.9791 19.1244 11.623 18.4406 11.5004ZM18.9406 17.5004C18.9404 17.6423 18.91 17.7827 18.8514 17.912C18.7927 18.0413 18.7073 18.1566 18.6006 18.2504C18.4889 18.3468 18.3582 18.4189 18.217 18.462C18.0758 18.505 17.9271 18.5181 17.7806 18.5004C14.0355 18.0202 10.5568 16.3068 7.89331 13.6306C5.22978 10.9545 3.533 7.46769 3.07059 3.72036C3.05467 3.57387 3.06862 3.42569 3.11159 3.28475C3.15456 3.14381 3.22566 3.01304 3.32059 2.90036C3.4143 2.79369 3.52965 2.7082 3.65897 2.64957C3.78829 2.59095 3.9286 2.56054 4.07059 2.56036H7.07059C7.30314 2.55518 7.53021 2.63124 7.71273 2.77543C7.89525 2.91962 8.0218 3.12293 8.07059 3.35036C8.11059 3.62369 8.16059 3.89369 8.22059 4.16036C8.33611 4.6875 8.48985 5.20554 8.68059 5.71036L7.28059 6.36036C7.16089 6.41528 7.05321 6.4933 6.96375 6.58995C6.87428 6.6866 6.80479 6.79997 6.75926 6.92355C6.71373 7.04713 6.69306 7.17849 6.69844 7.31008C6.70381 7.44167 6.73513 7.5709 6.79059 7.69036C8.22979 10.7731 10.7078 13.2512 13.7906 14.6904C14.0341 14.7904 14.3071 14.7904 14.5506 14.6904C14.6753 14.6457 14.7899 14.5768 14.8878 14.4875C14.9856 14.3983 15.0648 14.2905 15.1206 14.1704L15.7406 12.7704C16.2576 12.9552 16.7852 13.1088 17.3206 13.2304C17.5873 13.2904 17.8573 13.3404 18.1306 13.3804C18.358 13.4291 18.5613 13.5557 18.7055 13.7382C18.8497 13.9207 18.9258 14.1478 18.9206 14.3804L18.9406 17.5004Z" fill="black"/>
</svg>
