<svg width="18" height="14" viewBox="0 0 18 14" fill="none" xmlns="http://www.w3.org/2000/svg">
<path d="M5.86371 13.7574C12.232 13.7574 15.7145 8.48148 15.7145 3.90661C15.7145 3.75676 15.7114 3.60754 15.7047 3.45914C16.3806 2.97039 16.9681 2.36049 17.4317 1.66628C16.8114 1.94212 16.1437 2.12757 15.4435 2.21147C16.1582 1.78268 16.7071 1.10467 16.9659 0.296423C16.2969 0.693014 15.5561 0.981143 14.7674 1.13677C14.1357 0.463811 13.2361 0.0429688 12.2401 0.0429688C10.3283 0.0429688 8.77772 1.59342 8.77772 3.50465C8.77772 3.77647 8.80816 4.04066 8.8675 4.29411C5.99003 4.14933 3.43835 2.77173 1.73093 0.676812C1.43372 1.18837 1.26221 1.78279 1.26221 2.41704C1.26221 3.61806 1.87345 4.67863 2.80285 5.29885C2.23485 5.28141 1.70131 5.12548 1.23486 4.86594C1.23434 4.88049 1.23434 4.89462 1.23434 4.9101C1.23434 6.58687 2.42773 7.98686 4.01213 8.30409C3.72111 8.38324 3.41492 8.42586 3.09913 8.42586C2.87643 8.42586 2.6593 8.40398 2.44837 8.36343C2.88913 9.73906 4.16734 10.7401 5.6827 10.7681C4.49768 11.6969 3.00491 12.2502 1.38254 12.2502C1.10349 12.2502 0.827639 12.2342 0.556641 12.2022C2.08893 13.1843 3.90841 13.7575 5.86381 13.7575" fill="#121212"/>
</svg>
